<svg width="22" height="16" viewBox="0 0 22 16" fill="none" xmlns="http://www.w3.org/2000/svg">
<path d="M5.60035 4.6416H16.4003M5.60035 4.6416C5.04029 4.6416 4.75957 4.6416 4.54566 4.7506C4.3575 4.84647 4.20463 4.99934 4.10875 5.1875C3.99976 5.40141 3.99976 5.68165 3.99976 6.2417V11.4417C3.99976 12.5618 3.99976 13.122 4.21775 13.5498C4.40949 13.9261 4.71523 14.2321 5.09156 14.4238C5.51896 14.6416 6.07875 14.6416 7.19667 14.6416H14.8025C15.9204 14.6416 16.4794 14.6416 16.9068 14.4238C17.2831 14.2321 17.5902 13.9261 17.782 13.5497C17.9998 13.1223 17.9998 12.5632 17.9998 11.4453V6.23263C17.9998 5.67861 17.9998 5.40025 17.8914 5.1875C17.7955 4.99934 17.6419 4.84647 17.4538 4.7506C17.2398 4.6416 16.9604 4.6416 16.4003 4.6416M5.60035 4.6416H3.97507C3.12597 4.6416 2.70168 4.6416 2.4607 4.49316C2.13911 4.29507 1.95678 3.9324 1.98902 3.55607C2.0132 3.27383 2.26593 2.93249 2.77222 2.249C2.91866 2.05131 2.99189 1.95244 3.08152 1.87695C3.20104 1.7763 3.34286 1.70482 3.49488 1.6687C3.60889 1.6416 3.73126 1.6416 3.9773 1.6416H18.0217C18.2677 1.6416 18.3904 1.6416 18.5044 1.6687C18.6564 1.70482 18.7982 1.7763 18.9177 1.87695C19.0074 1.95244 19.0809 2.05085 19.2273 2.24854C19.7336 2.93202 19.9867 3.27378 20.0109 3.55602C20.0432 3.93234 19.8602 4.29507 19.5386 4.49316C19.2976 4.6416 18.8723 4.6416 18.0232 4.6416H16.4003M8.99976 9.6416H12.9998" stroke="#737373" stroke-width="2" stroke-linecap="round" stroke-linejoin="round"/>
</svg>
