<svg width="42" height="42" viewBox="0 0 42 42" fill="none" xmlns="http://www.w3.org/2000/svg">
<path d="M22.75 5.25152C22.5829 5.25 22.3952 5.25 22.1808 5.25H14.3503C12.3902 5.25 11.4093 5.25 10.6606 5.63148C10.0021 5.96703 9.46703 6.50208 9.13148 7.16064C8.75 7.90934 8.75 8.89016 8.75 10.8503V31.1503C8.75 33.1105 8.75 34.0901 9.13148 34.8388C9.46703 35.4974 10.0021 36.0333 10.6606 36.3689C11.4086 36.75 12.3883 36.75 14.3446 36.75H27.6554C29.6118 36.75 30.59 36.75 31.3379 36.3689C31.9965 36.0333 32.5333 35.4974 32.8689 34.8388C33.25 34.0908 33.25 33.1126 33.25 31.1563V16.3199C33.25 16.1052 33.25 15.9173 33.2484 15.75M22.75 5.25152C23.2499 5.25607 23.5661 5.27423 23.868 5.34671C24.2251 5.43244 24.5662 5.57421 24.8794 5.76611C25.2325 5.98249 25.5357 6.28568 26.1406 6.89062L31.6102 12.3602C32.2156 12.9656 32.5165 13.2674 32.733 13.6206C32.9249 13.9337 33.0669 14.2752 33.1526 14.6323C33.225 14.9341 33.2436 15.2504 33.2484 15.75M22.75 5.25152V10.15C22.75 12.1102 22.75 13.0896 23.1315 13.8383C23.467 14.4969 24.0021 15.0333 24.6606 15.3689C25.4086 15.75 26.3882 15.75 28.3446 15.75H33.2484M33.2484 15.75H33.2503" stroke="#544A90" stroke-width="3" stroke-linecap="round" stroke-linejoin="round"/>
<path d="M13 25.9063V20.0936H15.6166C15.99 20.0936 16.3105 20.156 16.5779 20.2808C16.851 20.4056 17.06 20.5825 17.205 20.8114C17.3554 21.0351 17.4307 21.3029 17.4307 21.615C17.4307 21.9011 17.3498 22.1612 17.1882 22.3953C17.0322 22.6242 16.8009 22.8037 16.4943 22.9337L16.486 22.645C16.7535 22.7385 16.9736 22.8634 17.1464 23.0195C17.3247 23.1703 17.4585 23.3472 17.5477 23.55C17.6368 23.7477 17.6814 23.9584 17.6814 24.182C17.6814 24.7178 17.4975 25.1391 17.1297 25.446C16.7618 25.7529 16.2603 25.9063 15.625 25.9063H13ZM13.8192 25.2041H15.6584C16.0207 25.2041 16.3105 25.1131 16.5278 24.931C16.7452 24.7489 16.8539 24.5019 16.8539 24.1898C16.8539 23.8777 16.7452 23.6307 16.5278 23.4486C16.3105 23.2613 16.0207 23.1677 15.6584 23.1677H13.8192V25.2041ZM13.8192 22.4811H15.5998C15.9008 22.4811 16.1432 22.4005 16.3272 22.2392C16.5111 22.0728 16.603 21.8622 16.603 21.6072C16.603 21.3419 16.5111 21.1391 16.3272 20.9986C16.1432 20.8583 15.9008 20.788 15.5998 20.788H13.8192V22.4811ZM20.9282 26C20.5325 26 20.1702 25.9323 19.8414 25.7971C19.5126 25.6567 19.234 25.4668 19.0054 25.2275C18.777 24.9882 18.6125 24.7204 18.5123 24.4239L19.2228 24.1508C19.3733 24.5254 19.5962 24.814 19.8916 25.0169C20.1925 25.2145 20.5436 25.3133 20.945 25.3133C21.1902 25.3133 21.4046 25.2769 21.5886 25.2041C21.7725 25.1313 21.9147 25.0298 22.0149 24.8998C22.1208 24.7646 22.1738 24.6086 22.1738 24.4317C22.1738 24.1872 22.0985 23.9948 21.948 23.8543C21.8032 23.7087 21.5886 23.5994 21.3044 23.5266L20.1591 23.1989C19.7077 23.0688 19.3621 22.8634 19.1224 22.5826C18.8829 22.3016 18.763 21.9791 18.763 21.615C18.763 21.2977 18.8439 21.0194 19.0054 20.7802C19.1727 20.5357 19.4011 20.3459 19.6909 20.2106C19.9863 20.0702 20.3207 20 20.6941 20C21.0675 20 21.4046 20.0624 21.7056 20.1872C22.0121 20.3121 22.2713 20.4811 22.4831 20.6944C22.6948 20.9025 22.8509 21.1417 22.9512 21.4122L22.249 21.6853C22.1153 21.3576 21.9147 21.1105 21.6472 20.9441C21.3796 20.7724 21.0647 20.6865 20.7024 20.6865C20.4795 20.6865 20.2817 20.723 20.1089 20.7957C19.9418 20.8634 19.8108 20.9649 19.7161 21.1001C19.6268 21.2302 19.5822 21.3861 19.5822 21.5682C19.5822 21.7815 19.6548 21.9714 19.7996 22.1378C19.9445 22.3042 20.1647 22.4316 20.46 22.5201L21.505 22.8088C21.9954 22.9493 22.366 23.1495 22.6169 23.4096C22.8676 23.6697 22.9931 23.9922 22.9931 24.377C22.9931 24.6944 22.9039 24.9753 22.7256 25.2197C22.5528 25.4641 22.3104 25.6567 21.9983 25.7971C21.6918 25.9323 21.335 26 20.9282 26ZM23.5661 25.9063L25.7982 20.0936H26.7679L29 25.9063H28.1222L27.6122 24.5409H24.9538L24.4439 25.9063H23.5661ZM25.213 23.8387H27.3531L26.166 20.6475H26.4001L25.213 23.8387Z" fill="#544A90"/>
</svg>
