<svg width="222" height="512" viewBox="0 0 222 512" fill="none" xmlns="http://www.w3.org/2000/svg">
<g clip-path="url(#clip0_639_6946)">
<g opacity="0.64" filter="url(#filter0_f_639_6946)">
<path d="M182.477 499.897C182.477 503.496 166.78 511.999 118.568 511.999C70.356 511.999 54.6591 503.496 54.6591 499.897C54.6591 496.298 83.2721 494.312 118.568 494.312C153.864 494.312 182.477 496.298 182.477 499.897Z" fill="black"/>
</g>
<path d="M192.568 390.981C192.568 395.294 183.598 498.035 183.318 498.687C183.318 498.687 181.777 511.999 118.568 511.999C55.3599 511.999 53.8182 498.687 53.8182 498.687C53.5379 498.035 44.5682 395.051 44.5682 390.981C44.5682 386.326 77.6991 380.741 118.568 380.741C159.437 380.741 192.568 385.861 192.568 390.981Z" fill="#A58465"/>
<path d="M192.568 390.981C192.568 395.294 183.598 498.035 183.318 498.687C183.318 498.687 181.777 511.999 118.568 511.999C55.3599 511.999 53.8182 498.687 53.8182 498.687C53.5379 498.035 44.5682 395.051 44.5682 390.981C44.5682 386.326 77.6991 380.741 118.568 380.741C159.437 380.741 192.568 385.861 192.568 390.981Z" fill="url(#paint0_linear_639_6946)" fill-opacity="0.32"/>
<g filter="url(#filter1_i_639_6946)">
<ellipse cx="118.568" cy="390.981" rx="74" ry="10.24" fill="#6D5947"/>
</g>
<g filter="url(#filter2_i_639_6946)">
<path d="M144.006 390.98C147.791 390.98 151.201 391.531 153.594 392.408C165.462 392.817 174.068 394.029 174.068 395.461C174.066 396.82 164.036 398.357 152.048 398.996C149.828 399.587 147.037 399.94 144.006 399.94C141.453 399.94 139.07 399.69 137.055 399.258C132.75 399.164 129.029 398.917 125.947 398.571C121.742 399.414 115.846 399.94 109.318 399.94C102.933 399.94 97.1532 399.438 92.9686 398.628C91.7623 398.649 90.5294 398.66 89.2762 398.66C74.8031 398.66 63.0702 397.228 63.0682 395.461C63.0682 393.694 74.8019 392.261 89.2762 392.261C90.5294 392.261 91.7623 392.271 92.9686 392.292C97.1532 391.482 102.934 390.98 109.318 390.98C117.021 390.98 123.844 391.712 128.047 392.834C129.957 392.689 132.032 392.568 134.237 392.475C136.637 391.558 140.124 390.98 144.006 390.98Z" fill="#51483A"/>
</g>
<path d="M118.568 382.116C138.96 382.116 157.394 383.26 170.706 385.102C177.371 386.024 182.696 387.114 186.325 388.301C188.149 388.898 189.464 389.494 190.295 390.056C190.708 390.335 190.949 390.572 191.078 390.748C191.139 390.831 191.168 390.891 191.18 390.926C191.193 390.959 191.193 390.976 191.193 390.981C191.193 390.986 191.192 391.002 191.18 391.035C191.168 391.07 191.14 391.13 191.078 391.214C190.949 391.39 190.708 391.627 190.295 391.906C189.464 392.468 188.149 393.063 186.325 393.66C182.696 394.847 177.372 395.937 170.706 396.86C157.394 398.702 138.96 399.846 118.568 399.846C98.1764 399.846 79.7421 398.702 66.4305 396.86C59.7647 395.937 54.4406 394.847 50.8113 393.66C48.9873 393.063 47.6725 392.468 46.8416 391.906C46.4287 391.627 46.1874 391.39 46.0584 391.214C45.9967 391.13 45.9688 391.07 45.9559 391.035C45.944 391.002 45.9432 390.986 45.9432 390.981C45.9432 390.976 45.9439 390.959 45.9559 390.926C45.9688 390.891 45.9971 390.831 46.0584 390.748C46.1874 390.572 46.4288 390.335 46.8416 390.056C47.6725 389.494 48.9873 388.898 50.8113 388.301C54.4406 387.114 59.7649 386.024 66.4305 385.102C79.7421 383.26 98.1764 382.116 118.568 382.116Z" stroke="#A38263" stroke-width="2.75"/>
<path d="M78.7652 30.2541C79.3258 31.1851 84.1844 33.9778 86.6137 35.3741L86.6137 36.7706C83.9975 35.219 78.6531 32.0229 78.2046 31.6506C77.644 31.1851 76.5228 29.7887 77.0834 28.8578C77.644 27.9269 78.2046 29.3232 78.7652 30.2541Z" fill="#286114"/>
<path d="M76.9517 123.811C77.5123 124.118 84.6128 129.238 87.0421 130.634L85.3602 132.654C82.7441 131.103 76.8391 125.421 76.3906 125.049C75.83 124.583 74.0252 123.005 75.2697 122.88C75.2697 122.88 76.3911 123.504 76.9517 123.811Z" fill="#1E3D12"/>
<path d="M4.76515 215.04C6.55909 215.412 8.50252 214.264 9.25 213.644L9.81061 216.902C8.6894 217.057 5.66213 216.995 2.52273 215.505C-1.40152 213.644 0.280305 210.851 0.840916 209.92L0.84092 209.92C1.40153 208.989 4.20454 208.524 2.52273 210.851C0.840908 213.178 2.52273 214.574 4.76515 215.04Z" fill="#286114"/>
<path d="M8.6894 166.633C11.8288 167.005 13.7349 170.511 14.2955 172.218C16.351 170.977 20.4621 168.401 20.4621 168.029C20.4621 167.563 14.2955 165.702 12.053 165.236C9.81062 164.771 4.76516 166.167 8.6894 166.633Z" fill="#1E3D12"/>
<path d="M76.5227 78.6617C79.0598 77.0819 83.0821 77.3186 84.932 78.1962C85.3284 76.1118 85.8888 74.304 85.5717 74.0407C85.1753 73.7115 79.2292 76.0154 77.2472 77.0028C75.2651 77.9902 73.3515 80.6364 76.5227 78.6617Z" fill="#1E3D12"/>
<path d="M75.4015 214.574C74.953 217.181 71.1036 218.143 69.2349 218.298L70.3561 221.556C71.2904 221.556 72.4864 219.694 74.2803 219.694C76.5227 219.694 78.7652 224.349 78.7652 222.953C78.7652 221.836 77.0833 220.936 76.5227 219.229C76.149 217.522 75.85 211.968 75.4015 214.574Z" fill="#286114"/>
<path d="M198.174 228.538L184.72 222.022C186.402 220.315 189.877 217.461 190.326 219.695C190.774 221.929 195.745 226.521 198.174 228.538Z" fill="#1E3D12"/>
<path d="M72.5987 166.797L98.1724 174.105C96.0837 177.973 94.6123 183.995 92.4403 180.022C90.2682 176.049 78.3075 169.55 72.5987 166.797Z" fill="#1E3D12"/>
<path d="M17.659 286.273L33.8257 279.724C35.0348 282.359 37.7535 285.766 34.4815 284.745C31.2096 283.725 21.9032 285.339 17.659 286.273Z" fill="#1E3D12"/>
<path d="M162.555 278.697L148.98 288.497C146.991 286.212 143.303 283.506 146.782 283.788C150.26 284.071 158.746 280.512 162.555 278.697Z" fill="#1E3D12"/>
<path d="M222.373 186.173L206.797 186.115C207.226 183.939 208.517 180.024 210.25 181.772C211.984 183.521 219.055 185.435 222.373 186.173Z" fill="#1E3D12"/>
<path d="M164.07 94.0127L148.494 93.9548C148.923 91.7787 150.214 87.8634 151.947 89.6121C153.681 91.3608 160.752 93.2745 164.07 94.0127Z" fill="#1E3D12"/>
<path d="M113.344 -1.21043e-05L117.308 12.5068C114.665 12.7262 109.776 12.7043 111.362 10.8611C112.948 9.01804 113.344 2.85241 113.344 -1.21043e-05Z" fill="#1E3D12"/>
<path d="M166.78 110.778C166.22 110.312 164.538 109.381 167.902 107.985C170.593 106.868 172.76 112.484 173.508 115.432L171.826 115.898C171.265 114.191 170.032 110.871 169.583 111.243C169.023 111.708 167.341 111.243 166.78 110.778Z" fill="#286114"/>
<g filter="url(#filter3_ii_639_6946)">
<path d="M54.6593 310.458C60.2654 317.439 82.129 337.454 92.7805 343.039C112.963 357.003 100.148 282.065 98.9469 280.668C96.1439 277.41 83.8106 262.516 81.5682 256.93C79.3257 251.345 74.2803 234.589 71.4772 222.952C68.6742 211.316 66.9924 200.61 60.2651 185.25C53.5379 169.89 42.8863 164.305 39.5227 163.839C36.1591 163.374 28.3106 161.978 18.7803 167.098C9.24998 172.218 9.81082 184.319 8.68961 190.836C7.5684 197.352 8.68961 213.643 10.932 222.952C13.1745 232.261 18.2199 252.276 23.826 264.843C29.432 277.41 49.0532 303.476 54.6593 310.458Z" fill="url(#paint1_linear_639_6946)"/>
</g>
<g filter="url(#filter4_f_639_6946)">
<path d="M61.6666 303.476C14.5757 267.171 15.6968 195.956 15.1361 186.182C14.5726 176.356 26.7685 190.306 27.4243 200.125C31.0632 254.619 53.2264 283.968 70.0115 296.153C75.876 300.41 82.204 304.5 85.8568 310.759C91.4 320.257 90.5326 325.731 61.6666 303.476Z" fill="url(#paint2_linear_639_6946)"/>
</g>
<g opacity="0.8" filter="url(#filter5_f_639_6946)">
<path d="M76.2424 297.891C29.1515 261.585 30.2725 190.371 29.7119 180.596C29.1484 170.771 41.3443 184.72 42 194.54C45.6389 249.033 67.8021 278.382 84.5872 290.568C90.4518 294.825 96.7797 298.914 100.433 305.173C105.976 314.672 105.108 320.145 76.2424 297.891Z" fill="url(#paint3_linear_639_6946)"/>
</g>
<g opacity="0.4" filter="url(#filter6_f_639_6946)">
<path d="M83.0451 278.771C47.8061 251.531 48.645 198.101 48.2255 190.767C47.8044 183.407 56.9305 193.852 57.4195 201.208C59.9823 239.759 74.8678 261.541 87.0894 271.573C92.6947 276.174 99.4858 280.076 102.433 286.702C104.816 292.058 101.98 293.407 83.0451 278.771Z" fill="url(#paint4_linear_639_6946)"/>
</g>
<path d="M7.56822 231.969C7.56822 231.969 15.5878 231.15 18.0989 231.969C20.6099 232.787 16.5899 237.269 14.856 235.52C13.1222 233.771 10.8867 232.707 7.56822 231.969Z" fill="#1E3D12"/>
<mask id="mask0_639_6946" style="mask-type:alpha" maskUnits="userSpaceOnUse" x="8" y="163" width="97" height="182">
<path d="M54.6593 310.458C60.2654 317.439 82.129 337.454 92.7805 343.039C112.963 357.003 100.148 282.065 98.9469 280.668C96.1439 277.41 83.8106 262.516 81.5682 256.93C79.3257 251.345 74.2803 234.589 71.4772 222.952C68.6742 211.316 66.9924 200.61 60.2651 185.25C53.5379 169.89 42.8863 164.305 39.5227 163.839C36.1591 163.374 28.3106 161.978 18.7803 167.098C9.24998 172.218 9.81082 184.319 8.68961 190.836C7.5684 197.352 8.68961 213.643 10.932 222.952C13.1745 232.261 18.2199 252.276 23.826 264.843C29.432 277.41 49.0532 303.476 54.6593 310.458Z" fill="url(#paint5_linear_639_6946)"/>
</mask>
<g mask="url(#mask0_639_6946)">
<g opacity="0.32" filter="url(#filter7_f_639_6946)">
<path d="M78.3289 329.439C75.3859 320.32 58.4343 225.467 66.8081 223.604C75.1819 221.741 105.71 313.573 108.653 322.693C111.596 331.812 107.194 340.715 98.8199 342.578C90.4461 344.441 81.272 338.559 78.3289 329.439Z" fill="black"/>
</g>
</g>
<path d="M154.181 306.81C154.742 306.345 155.863 304.948 157.545 307.741C158.89 309.975 152.125 311.775 148.575 312.396L148.014 310.999C150.07 310.534 154.069 309.51 153.62 309.137C153.06 308.672 153.62 307.276 154.181 306.81Z" fill="#286114"/>
<path d="M78.2048 291.488C78.2048 291.488 85.6147 292.665 87.283 293.209C88.9514 293.753 86.1405 297.256 84.9886 296.094C83.8366 294.932 80.4096 291.979 78.2048 291.488Z" fill="#1E3D12"/>
<path d="M75.9622 357.555C75.9622 357.555 83.1783 363.772 85.6509 364.668C88.1234 365.563 89.6227 359.351 86.9074 359.57C84.1921 359.788 78.9374 358.981 75.9622 357.555Z" fill="#1E3D12"/>
<g filter="url(#filter8_i_639_6946)">
<path d="M84.371 300.683C84.371 322.28 85.4923 379.81 87.1741 399.359C87.1741 399.359 95.359 400.662 119.129 400.29C142.899 399.918 150.523 398.894 150.523 398.894C149.775 314.181 148.729 117.759 150.523 106.588C152.765 92.6247 153.886 47.941 150.523 40.0283C147.159 32.1156 131.462 11.1701 112.402 11.6356C93.3409 12.101 89.9771 26.9956 86.6135 36.7701C83.2498 46.5447 84.371 76.7992 84.371 93.5556V214.574V300.683Z" fill="#51A234"/>
<path d="M84.371 300.683C84.371 322.28 85.4923 379.81 87.1741 399.359C87.1741 399.359 95.359 400.662 119.129 400.29C142.899 399.918 150.523 398.894 150.523 398.894C149.775 314.181 148.729 117.759 150.523 106.588C152.765 92.6247 153.886 47.941 150.523 40.0283C147.159 32.1156 131.462 11.1701 112.402 11.6356C93.3409 12.101 89.9771 26.9956 86.6135 36.7701C83.2498 46.5447 84.371 76.7992 84.371 93.5556V214.574V300.683Z" fill="url(#paint6_linear_639_6946)" fill-opacity="0.24"/>
</g>
<mask id="mask1_639_6946" style="mask-type:alpha" maskUnits="userSpaceOnUse" x="84" y="11" width="69" height="390">
<path d="M84.371 300.684C84.371 322.281 85.4923 379.811 87.1741 399.36C87.1741 399.36 95.359 400.663 119.129 400.291C142.899 399.919 150.523 398.895 150.523 398.895C149.775 314.182 148.729 117.76 150.523 106.589C152.765 92.6257 153.886 47.942 150.523 40.0293C147.159 32.1165 131.462 11.1711 112.402 11.6365C93.3409 12.102 89.9771 26.9965 86.6135 36.7711C83.2498 46.5456 84.371 76.8002 84.371 93.5565V214.575V300.684Z" fill="#51A234"/>
<path d="M84.371 300.684C84.371 322.281 85.4923 379.811 87.1741 399.36C87.1741 399.36 95.359 400.663 119.129 400.291C142.899 399.919 150.523 398.895 150.523 398.895C149.775 314.182 148.729 117.76 150.523 106.589C152.765 92.6257 153.886 47.942 150.523 40.0293C147.159 32.1165 131.462 11.1711 112.402 11.6365C93.3409 12.102 89.9771 26.9965 86.6135 36.7711C83.2498 46.5456 84.371 76.8002 84.371 93.5565V214.575V300.684Z" fill="url(#paint7_linear_639_6946)" fill-opacity="0.24"/>
</mask>
<g mask="url(#mask1_639_6946)">
<g filter="url(#filter9_f_639_6946)">
<rect x="91.9394" y="23.2725" width="15.697" height="386.327" rx="7.84848" fill="url(#paint8_linear_639_6946)"/>
</g>
<g opacity="0.8" filter="url(#filter10_f_639_6946)">
<rect x="115.485" y="21.4106" width="6.72727" height="388.189" rx="3.36364" fill="url(#paint9_linear_639_6946)"/>
</g>
<g opacity="0.4" filter="url(#filter11_f_639_6946)">
<path d="M133.424 51.0303C133.424 48.5533 135.432 46.5454 137.909 46.5454V46.5454C140.386 46.5454 142.394 48.5533 142.394 51.0303V422.802C142.394 425.279 140.386 427.287 137.909 427.287V427.287C135.432 427.287 133.424 425.279 133.424 422.802V51.0303Z" fill="url(#paint10_linear_639_6946)"/>
</g>
<g opacity="0.24" filter="url(#filter12_f_639_6946)">
<path d="M152.205 227.289C152.205 235.082 135.24 313.716 124.094 313.716C112.948 313.716 111.841 235.082 111.841 227.289C111.841 219.496 120.877 213.178 132.023 213.178C143.169 213.178 152.205 219.496 152.205 227.289Z" fill="black"/>
</g>
<g opacity="0.24" filter="url(#filter13_f_639_6946)">
<path d="M73.8767 376.608C82.9431 378.625 170.035 412.583 167.15 421.522C164.265 430.46 72.4962 410.996 63.4299 408.979C54.3635 406.962 49.3523 398.081 52.2372 389.142C55.122 380.203 64.8104 374.591 73.8767 376.608Z" fill="black"/>
</g>
</g>
<path d="M96.3307 271.825C96.3307 271.825 97.4542 278.468 99.0562 280.27C100.658 282.072 105.698 277.315 103.215 276.377C100.732 275.439 98.0484 274.295 96.3307 271.825Z" fill="#1E3D12"/>
<path d="M89.4337 371.234C89.4337 371.234 97.2499 372.422 99.761 371.604C102.272 370.785 99.6272 366.253 97.8933 368.002C96.1759 369.734 92.8167 370.481 89.5282 371.213L89.4337 371.234Z" fill="#1E3D12"/>
<path d="M153.926 339.782C153.926 339.782 149.386 345.472 146.598 347.695C143.81 349.917 140.015 345.262 143.795 344.436L143.854 344.424C147.609 343.604 150.795 342.909 153.926 339.782Z" fill="#1E3D12"/>
<path d="M153.326 150.231C153.326 150.231 141.553 145.466 139.871 143.714C138.189 141.963 145.029 139.153 145.477 141.387C145.926 143.621 150.896 148.214 153.326 150.231Z" fill="#1E3D12"/>
<g filter="url(#filter14_ii_639_6946)">
<path d="M160.053 183.389C153.326 193.815 129.967 207.592 124.174 213.178C112.962 224.783 115.765 233.192 116.326 235.52C116.886 237.847 120.81 249.018 137.068 246.69C153.326 244.363 181.916 230.865 196.492 213.178C211.068 195.491 217.235 183.389 212.189 160.581C207.144 137.774 192.568 124.741 186.962 120.087C181.356 115.432 166.78 112.64 160.053 120.087C153.326 127.534 161.735 140.567 163.977 151.738C166.22 162.909 168.462 170.356 160.053 183.389Z" fill="url(#paint11_linear_639_6946)"/>
</g>
<g opacity="0.8" filter="url(#filter15_f_639_6946)">
<path d="M171.866 126.326C168.942 126.924 166.638 130.095 167.621 133.585C183.879 191.302 145.384 203.714 135.667 216.436C125.949 229.159 112.682 243.898 135.667 228.289C193.085 199.508 185.013 159.31 180.533 140.35C179.127 134.404 177.852 125.102 171.866 126.326Z" fill="url(#paint12_linear_639_6946)"/>
</g>
<g opacity="0.4" filter="url(#filter16_f_639_6946)">
<path d="M198.879 153.113C199.211 147.393 189.95 150.077 190.581 154.815C196.835 201.794 172.464 206.106 165.272 215.411C158.08 224.716 148.261 235.497 165.272 224.08C217.135 198.39 198.464 160.262 198.879 153.113Z" fill="url(#paint13_linear_639_6946)"/>
</g>
<path d="M198.171 120.087C198.171 120.087 199.087 130.934 198.101 133.019C197.115 135.104 190.764 131.591 192.87 130.152C194.977 128.712 197.282 122.842 198.171 120.087Z" fill="#1E3D12"/>
<path d="M129.777 11.17C129.777 11.17 130.693 22.0176 129.707 24.1025C128.721 26.1874 122.37 22.6748 124.477 21.2352C126.583 19.7956 128.888 13.9253 129.777 11.17Z" fill="#1E3D12"/>
<path d="M128.514 203.869C128.514 203.869 133.618 208.114 134.115 209.278C134.611 210.442 130.437 210.885 130.687 209.653C130.938 208.421 129.343 205.284 128.514 203.869Z" fill="#1E3D12"/>
<path d="M155.568 173.321C155.568 173.321 163.588 172.503 166.099 173.321C168.61 174.139 164.379 179.412 162.645 177.664C160.911 175.915 158.887 174.059 155.568 173.321Z" fill="#1E3D12"/>
<path d="M144.142 67.956C144.142 67.956 143.018 74.5993 141.416 76.4013C139.814 78.2033 134.775 73.4456 137.258 72.5077C139.741 71.5698 142.424 70.4262 144.142 67.956Z" fill="#1E3D12"/>
<path d="M92.7802 45.7004C92.7802 45.7004 98.1562 49.8387 100.629 50.7343C103.101 51.6298 104.198 46.5659 101.483 46.7845C98.7678 47.0031 95.7555 47.1266 92.7802 45.7004Z" fill="#1E3D12"/>
<path d="M63.6306 238.312C63.6306 238.312 64.6163 244.971 63.6306 247.056C62.6449 249.141 56.2939 245.628 58.4001 244.188C60.5062 242.749 62.7414 241.068 63.6306 238.312Z" fill="#1E3D12"/>
<path d="M55.2197 168.96C55.2197 168.96 53.8022 175.112 53.1473 176.497C52.4925 177.882 48.273 175.549 49.6723 174.592C51.0716 173.636 54.6289 170.79 55.2197 168.96Z" fill="#1E3D12"/>
<path d="M185.15 386.507C189.902 387.858 192.568 389.376 192.568 390.98C192.568 396.636 159.437 401.221 118.568 401.221C77.6991 401.221 44.5682 396.636 44.5682 390.98C44.5685 389.376 47.236 387.859 51.9901 386.507C48.1206 387.868 46.391 389.877 47.9207 390.97C47.9157 390.973 47.9109 390.977 47.9061 390.98C47.9401 391.005 47.9773 391.032 48.0184 391.06C48.6516 391.488 49.7739 392.016 51.5135 392.585C54.9624 393.713 60.1353 394.781 66.7488 395.696C79.9267 397.52 98.2495 398.661 118.568 398.661C138.887 398.661 157.21 397.52 170.388 395.696C177.001 394.781 182.174 393.713 185.623 392.585C187.362 392.016 188.485 391.488 189.118 391.06C189.159 391.032 189.196 391.005 189.23 390.98C189.226 390.977 189.222 390.975 189.218 390.972C190.753 389.88 189.022 387.869 185.15 386.507Z" fill="#E2C2A4"/>
</g>
<defs>
<filter id="filter0_f_639_6946" x="38.6591" y="478.312" width="159.818" height="49.6875" filterUnits="userSpaceOnUse" color-interpolation-filters="sRGB">
<feFlood flood-opacity="0" result="BackgroundImageFix"/>
<feBlend mode="normal" in="SourceGraphic" in2="BackgroundImageFix" result="shape"/>
<feGaussianBlur stdDeviation="8" result="effect1_foregroundBlur_639_6946"/>
</filter>
<filter id="filter1_i_639_6946" x="44.5682" y="380.741" width="148" height="25.98" filterUnits="userSpaceOnUse" color-interpolation-filters="sRGB">
<feFlood flood-opacity="0" result="BackgroundImageFix"/>
<feBlend mode="normal" in="SourceGraphic" in2="BackgroundImageFix" result="shape"/>
<feColorMatrix in="SourceAlpha" type="matrix" values="0 0 0 0 0 0 0 0 0 0 0 0 0 0 0 0 0 0 127 0" result="hardAlpha"/>
<feOffset dy="5.5"/>
<feGaussianBlur stdDeviation="2.75"/>
<feComposite in2="hardAlpha" operator="arithmetic" k2="-1" k3="1"/>
<feColorMatrix type="matrix" values="0 0 0 0 0 0 0 0 0 0 0 0 0 0 0 0 0 0 0.25 0"/>
<feBlend mode="normal" in2="shape" result="effect1_innerShadow_639_6946"/>
</filter>
<filter id="filter2_i_639_6946" x="63.0682" y="388.23" width="111" height="11.71" filterUnits="userSpaceOnUse" color-interpolation-filters="sRGB">
<feFlood flood-opacity="0" result="BackgroundImageFix"/>
<feBlend mode="normal" in="SourceGraphic" in2="BackgroundImageFix" result="shape"/>
<feColorMatrix in="SourceAlpha" type="matrix" values="0 0 0 0 0 0 0 0 0 0 0 0 0 0 0 0 0 0 127 0" result="hardAlpha"/>
<feOffset dy="-2.75"/>
<feGaussianBlur stdDeviation="2.75"/>
<feComposite in2="hardAlpha" operator="arithmetic" k2="-1" k3="1"/>
<feColorMatrix type="matrix" values="0 0 0 0 0 0 0 0 0 0 0 0 0 0 0 0 0 0 0.32 0"/>
<feBlend mode="normal" in2="shape" result="effect1_innerShadow_639_6946"/>
</filter>
<filter id="filter3_ii_639_6946" x="0.249756" y="155.311" width="111.809" height="201.462" filterUnits="userSpaceOnUse" color-interpolation-filters="sRGB">
<feFlood flood-opacity="0" result="BackgroundImageFix"/>
<feBlend mode="normal" in="SourceGraphic" in2="BackgroundImageFix" result="shape"/>
<feColorMatrix in="SourceAlpha" type="matrix" values="0 0 0 0 0 0 0 0 0 0 0 0 0 0 0 0 0 0 127 0" result="hardAlpha"/>
<feOffset dx="8" dy="-16"/>
<feGaussianBlur stdDeviation="4"/>
<feComposite in2="hardAlpha" operator="arithmetic" k2="-1" k3="1"/>
<feColorMatrix type="matrix" values="0 0 0 0 0 0 0 0 0 0 0 0 0 0 0 0 0 0 0.25 0"/>
<feBlend mode="normal" in2="shape" result="effect1_innerShadow_639_6946"/>
<feColorMatrix in="SourceAlpha" type="matrix" values="0 0 0 0 0 0 0 0 0 0 0 0 0 0 0 0 0 0 127 0" result="hardAlpha"/>
<feOffset dx="-8" dy="12"/>
<feGaussianBlur stdDeviation="8"/>
<feComposite in2="hardAlpha" operator="arithmetic" k2="-1" k3="1"/>
<feColorMatrix type="matrix" values="0 0 0 0 0.499306 0 0 0 0 0.833333 0 0 0 0 0.381944 0 0 0 1 0"/>
<feBlend mode="normal" in2="effect1_innerShadow_639_6946" result="effect2_innerShadow_639_6946"/>
</filter>
<filter id="filter4_f_639_6946" x="7.11719" y="174.83" width="89.4183" height="152.205" filterUnits="userSpaceOnUse" color-interpolation-filters="sRGB">
<feFlood flood-opacity="0" result="BackgroundImageFix"/>
<feBlend mode="normal" in="SourceGraphic" in2="BackgroundImageFix" result="shape"/>
<feGaussianBlur stdDeviation="4" result="effect1_foregroundBlur_639_6946"/>
</filter>
<filter id="filter5_f_639_6946" x="21.6929" y="169.244" width="89.4183" height="152.205" filterUnits="userSpaceOnUse" color-interpolation-filters="sRGB">
<feFlood flood-opacity="0" result="BackgroundImageFix"/>
<feBlend mode="normal" in="SourceGraphic" in2="BackgroundImageFix" result="shape"/>
<feGaussianBlur stdDeviation="4" result="effect1_foregroundBlur_639_6946"/>
</filter>
<filter id="filter6_f_639_6946" x="40.2113" y="180.256" width="70.9402" height="118.188" filterUnits="userSpaceOnUse" color-interpolation-filters="sRGB">
<feFlood flood-opacity="0" result="BackgroundImageFix"/>
<feBlend mode="normal" in="SourceGraphic" in2="BackgroundImageFix" result="shape"/>
<feGaussianBlur stdDeviation="4" result="effect1_foregroundBlur_639_6946"/>
</filter>
<filter id="filter7_f_639_6946" x="48.5068" y="207.576" width="77.0599" height="151.347" filterUnits="userSpaceOnUse" color-interpolation-filters="sRGB">
<feFlood flood-opacity="0" result="BackgroundImageFix"/>
<feBlend mode="normal" in="SourceGraphic" in2="BackgroundImageFix" result="shape"/>
<feGaussianBlur stdDeviation="8" result="effect1_foregroundBlur_639_6946"/>
</filter>
<filter id="filter8_i_639_6946" x="76.1917" y="11.6279" width="76.454" height="400.729" filterUnits="userSpaceOnUse" color-interpolation-filters="sRGB">
<feFlood flood-opacity="0" result="BackgroundImageFix"/>
<feBlend mode="normal" in="SourceGraphic" in2="BackgroundImageFix" result="shape"/>
<feColorMatrix in="SourceAlpha" type="matrix" values="0 0 0 0 0 0 0 0 0 0 0 0 0 0 0 0 0 0 127 0" result="hardAlpha"/>
<feOffset dx="-8" dy="12"/>
<feGaussianBlur stdDeviation="8"/>
<feComposite in2="hardAlpha" operator="arithmetic" k2="-1" k3="1"/>
<feColorMatrix type="matrix" values="0 0 0 0 0.499306 0 0 0 0 0.833333 0 0 0 0 0.381944 0 0 0 1 0"/>
<feBlend mode="normal" in2="shape" result="effect1_innerShadow_639_6946"/>
</filter>
<filter id="filter9_f_639_6946" x="83.9394" y="15.2725" width="31.697" height="402.327" filterUnits="userSpaceOnUse" color-interpolation-filters="sRGB">
<feFlood flood-opacity="0" result="BackgroundImageFix"/>
<feBlend mode="normal" in="SourceGraphic" in2="BackgroundImageFix" result="shape"/>
<feGaussianBlur stdDeviation="4" result="effect1_foregroundBlur_639_6946"/>
</filter>
<filter id="filter10_f_639_6946" x="107.485" y="13.4106" width="22.7273" height="404.189" filterUnits="userSpaceOnUse" color-interpolation-filters="sRGB">
<feFlood flood-opacity="0" result="BackgroundImageFix"/>
<feBlend mode="normal" in="SourceGraphic" in2="BackgroundImageFix" result="shape"/>
<feGaussianBlur stdDeviation="4" result="effect1_foregroundBlur_639_6946"/>
</filter>
<filter id="filter11_f_639_6946" x="125.424" y="38.5454" width="24.9697" height="396.742" filterUnits="userSpaceOnUse" color-interpolation-filters="sRGB">
<feFlood flood-opacity="0" result="BackgroundImageFix"/>
<feBlend mode="normal" in="SourceGraphic" in2="BackgroundImageFix" result="shape"/>
<feGaussianBlur stdDeviation="4" result="effect1_foregroundBlur_639_6946"/>
</filter>
<filter id="filter12_f_639_6946" x="95.8409" y="197.178" width="72.3636" height="132.538" filterUnits="userSpaceOnUse" color-interpolation-filters="sRGB">
<feFlood flood-opacity="0" result="BackgroundImageFix"/>
<feBlend mode="normal" in="SourceGraphic" in2="BackgroundImageFix" result="shape"/>
<feGaussianBlur stdDeviation="8" result="effect1_foregroundBlur_639_6946"/>
</filter>
<filter id="filter13_f_639_6946" x="35.4216" y="360.198" width="147.798" height="79.6587" filterUnits="userSpaceOnUse" color-interpolation-filters="sRGB">
<feFlood flood-opacity="0" result="BackgroundImageFix"/>
<feBlend mode="normal" in="SourceGraphic" in2="BackgroundImageFix" result="shape"/>
<feGaussianBlur stdDeviation="8" result="effect1_foregroundBlur_639_6946"/>
</filter>
<filter id="filter14_ii_639_6946" x="107.606" y="107.49" width="114.32" height="149.518" filterUnits="userSpaceOnUse" color-interpolation-filters="sRGB">
<feFlood flood-opacity="0" result="BackgroundImageFix"/>
<feBlend mode="normal" in="SourceGraphic" in2="BackgroundImageFix" result="shape"/>
<feColorMatrix in="SourceAlpha" type="matrix" values="0 0 0 0 0 0 0 0 0 0 0 0 0 0 0 0 0 0 127 0" result="hardAlpha"/>
<feOffset dx="8" dy="-8"/>
<feGaussianBlur stdDeviation="4"/>
<feComposite in2="hardAlpha" operator="arithmetic" k2="-1" k3="1"/>
<feColorMatrix type="matrix" values="0 0 0 0 0 0 0 0 0 0 0 0 0 0 0 0 0 0 0.16 0"/>
<feBlend mode="normal" in2="shape" result="effect1_innerShadow_639_6946"/>
<feColorMatrix in="SourceAlpha" type="matrix" values="0 0 0 0 0 0 0 0 0 0 0 0 0 0 0 0 0 0 127 0" result="hardAlpha"/>
<feOffset dx="-8" dy="10"/>
<feGaussianBlur stdDeviation="8"/>
<feComposite in2="hardAlpha" operator="arithmetic" k2="-1" k3="1"/>
<feColorMatrix type="matrix" values="0 0 0 0 0.499306 0 0 0 0 0.833333 0 0 0 0 0.381944 0 0 0 1 0"/>
<feBlend mode="normal" in2="effect1_innerShadow_639_6946" result="effect2_innerShadow_639_6946"/>
</filter>
<filter id="filter15_f_639_6946" x="114.934" y="118.216" width="76.7434" height="124.804" filterUnits="userSpaceOnUse" color-interpolation-filters="sRGB">
<feFlood flood-opacity="0" result="BackgroundImageFix"/>
<feBlend mode="normal" in="SourceGraphic" in2="BackgroundImageFix" result="shape"/>
<feGaussianBlur stdDeviation="4" result="effect1_foregroundBlur_639_6946"/>
</filter>
<filter id="filter16_f_639_6946" x="147.848" y="141.876" width="61.9697" height="95.1274" filterUnits="userSpaceOnUse" color-interpolation-filters="sRGB">
<feFlood flood-opacity="0" result="BackgroundImageFix"/>
<feBlend mode="normal" in="SourceGraphic" in2="BackgroundImageFix" result="shape"/>
<feGaussianBlur stdDeviation="4" result="effect1_foregroundBlur_639_6946"/>
</filter>
<linearGradient id="paint0_linear_639_6946" x1="44.5682" y1="431.01" x2="187.172" y2="431.01" gradientUnits="userSpaceOnUse">
<stop/>
<stop offset="1" stop-opacity="0"/>
</linearGradient>
<linearGradient id="paint1_linear_639_6946" x1="72.0379" y1="168.029" x2="37.1642" y2="318.106" gradientUnits="userSpaceOnUse">
<stop stop-color="#51A234"/>
<stop offset="1" stop-color="#43852C"/>
</linearGradient>
<linearGradient id="paint2_linear_639_6946" x1="51.8269" y1="181.311" x2="51.8269" y2="319.035" gradientUnits="userSpaceOnUse">
<stop stop-color="#3E782A"/>
<stop offset="1" stop-color="#2F5B20"/>
</linearGradient>
<linearGradient id="paint3_linear_639_6946" x1="66.4026" y1="175.725" x2="66.4026" y2="313.449" gradientUnits="userSpaceOnUse">
<stop stop-color="#3E782A"/>
<stop offset="1" stop-color="#2F5B20"/>
</linearGradient>
<linearGradient id="paint4_linear_639_6946" x1="75.6818" y1="187.113" x2="75.6818" y2="290.444" gradientUnits="userSpaceOnUse">
<stop stop-color="#3E782A"/>
<stop offset="1" stop-color="#2F5B20"/>
</linearGradient>
<linearGradient id="paint5_linear_639_6946" x1="72.0379" y1="168.029" x2="37.1642" y2="318.106" gradientUnits="userSpaceOnUse">
<stop stop-color="#51A234"/>
<stop offset="1" stop-color="#43852C"/>
</linearGradient>
<linearGradient id="paint6_linear_639_6946" x1="84.1916" y1="201.878" x2="166.63" y2="188.005" gradientUnits="userSpaceOnUse">
<stop/>
<stop offset="1" stop-opacity="0"/>
</linearGradient>
<linearGradient id="paint7_linear_639_6946" x1="84.1916" y1="201.879" x2="166.63" y2="188.006" gradientUnits="userSpaceOnUse">
<stop/>
<stop offset="1" stop-opacity="0"/>
</linearGradient>
<linearGradient id="paint8_linear_639_6946" x1="99.7879" y1="23.2725" x2="99.7879" y2="409.6" gradientUnits="userSpaceOnUse">
<stop stop-color="#3E782A"/>
<stop offset="1" stop-color="#2F5B20"/>
</linearGradient>
<linearGradient id="paint9_linear_639_6946" x1="118.848" y1="21.4106" x2="118.848" y2="409.6" gradientUnits="userSpaceOnUse">
<stop stop-color="#3E782A"/>
<stop offset="1" stop-color="#2F5B20"/>
</linearGradient>
<linearGradient id="paint10_linear_639_6946" x1="137.909" y1="46.5454" x2="137.909" y2="427.287" gradientUnits="userSpaceOnUse">
<stop stop-color="#3E782A"/>
<stop offset="1" stop-color="#2F5B20"/>
</linearGradient>
<linearGradient id="paint11_linear_639_6946" x1="228.447" y1="133.585" x2="147.697" y2="249.011" gradientUnits="userSpaceOnUse">
<stop stop-color="#51A234"/>
<stop offset="1" stop-color="#43852C"/>
</linearGradient>
<linearGradient id="paint12_linear_639_6946" x1="167.931" y1="106.124" x2="167.931" y2="243.848" gradientUnits="userSpaceOnUse">
<stop stop-color="#3E782A"/>
<stop offset="1" stop-color="#2F5B20"/>
</linearGradient>
<linearGradient id="paint13_linear_639_6946" x1="189.15" y1="134.729" x2="189.15" y2="235.46" gradientUnits="userSpaceOnUse">
<stop stop-color="#3E782A"/>
<stop offset="1" stop-color="#2F5B20"/>
</linearGradient>
<clipPath id="clip0_639_6946">
<rect width="222" height="512" fill="white"/>
</clipPath>
</defs>
</svg>
