<svg width="42" height="42" viewBox="0 0 42 42" fill="none" xmlns="http://www.w3.org/2000/svg">
<path d="M22.75 5.25152C22.5829 5.25 22.3952 5.25 22.1808 5.25H14.3503C12.3902 5.25 11.4093 5.25 10.6606 5.63148C10.0021 5.96703 9.46703 6.50208 9.13148 7.16064C8.75 7.90934 8.75 8.89016 8.75 10.8503V31.1503C8.75 33.1105 8.75 34.0901 9.13148 34.8388C9.46703 35.4974 10.0021 36.0333 10.6606 36.3689C11.4086 36.75 12.3883 36.75 14.3446 36.75H27.6554C29.6118 36.75 30.59 36.75 31.3379 36.3689C31.9965 36.0333 32.5333 35.4974 32.8689 34.8388C33.25 34.0908 33.25 33.1126 33.25 31.1563V16.3199C33.25 16.1052 33.25 15.9173 33.2484 15.75M22.75 5.25152C23.2499 5.25607 23.5661 5.27423 23.868 5.34671C24.2251 5.43244 24.5662 5.57421 24.8794 5.76611C25.2325 5.98249 25.5357 6.28568 26.1406 6.89062L31.6102 12.3602C32.2156 12.9656 32.5165 13.2674 32.733 13.6206C32.9249 13.9337 33.0669 14.2752 33.1526 14.6323C33.225 14.9341 33.2436 15.2504 33.2484 15.75M22.75 5.25152V10.15C22.75 12.1102 22.75 13.0896 23.1315 13.8383C23.467 14.4969 24.0021 15.0333 24.6606 15.3689C25.4086 15.75 26.3882 15.75 28.3446 15.75H33.2484M33.2484 15.75H33.2503" stroke="#544A90" stroke-width="3" stroke-linecap="round" stroke-linejoin="round"/>
<path d="M14.7195 27.0896C14.3262 27.0896 13.9628 27.0199 13.6293 26.8805C13.3008 26.7362 13.0121 26.5346 12.7632 26.2757C12.5193 26.0169 12.3301 25.7132 12.1957 25.3648C12.0613 25.0164 11.9941 24.6356 11.9941 24.2224C11.9941 23.8043 12.0613 23.421 12.1957 23.0725C12.3301 22.7241 12.5193 22.4204 12.7632 22.1616C13.0071 21.9028 13.2958 21.7036 13.6293 21.5643C13.9628 21.4199 14.3262 21.3477 14.7195 21.3477C15.1028 21.3477 15.4462 21.4149 15.7499 21.5493C16.0585 21.6837 16.3173 21.858 16.5264 22.072C16.7404 22.286 16.8923 22.515 16.9819 22.7589L16.3099 23.0651C16.1804 22.7564 15.9788 22.5076 15.7051 22.3184C15.4313 22.1243 15.1028 22.0272 14.7195 22.0272C14.3312 22.0272 13.9852 22.1193 13.6816 22.3035C13.3829 22.4876 13.149 22.744 12.9797 23.0725C12.8105 23.4011 12.7259 23.7844 12.7259 24.2224C12.7259 24.6555 12.8105 25.0363 12.9797 25.3648C13.149 25.6933 13.3829 25.9497 13.6816 26.1339C13.9852 26.318 14.3312 26.4101 14.7195 26.4101C15.1028 26.4101 15.4313 26.3156 15.7051 26.1264C15.9788 25.9323 16.1804 25.6809 16.3099 25.3723L16.9819 25.6784C16.8923 25.9223 16.7404 26.1513 16.5264 26.3653C16.3173 26.5794 16.0585 26.7536 15.7499 26.888C15.4462 27.0224 15.1028 27.0896 14.7195 27.0896ZM17.9771 27V21.4373H18.7089V27H17.9771ZM19.9459 27V21.4373H22.283C22.6165 21.4373 22.9027 21.4971 23.1416 21.6165C23.3855 21.736 23.5722 21.9052 23.7016 22.1243C23.836 22.3383 23.9032 22.5947 23.9032 22.8933C23.9032 23.1671 23.8311 23.416 23.6867 23.64C23.5473 23.859 23.3407 24.0308 23.067 24.1552L23.0595 23.8789C23.2984 23.9685 23.4951 24.088 23.6494 24.2373C23.8087 24.3817 23.9281 24.5509 24.0078 24.7451C24.0874 24.9342 24.1272 25.1358 24.1272 25.3499C24.1272 25.8626 23.963 26.2658 23.6344 26.5595C23.3059 26.8532 22.8579 27 22.2904 27H19.9459ZM20.6776 26.328H22.3203C22.6439 26.328 22.9027 26.2409 23.0968 26.0667C23.291 25.8924 23.388 25.656 23.388 25.3573C23.388 25.0587 23.291 24.8222 23.0968 24.648C22.9027 24.4688 22.6439 24.3792 22.3203 24.3792H20.6776V26.328ZM20.6776 23.7221H22.268C22.5368 23.7221 22.7534 23.645 22.9176 23.4907C23.0819 23.3314 23.164 23.1298 23.164 22.8859C23.164 22.632 23.0819 22.4379 22.9176 22.3035C22.7534 22.1691 22.5368 22.1019 22.268 22.1019H20.6776V23.7221ZM25.1157 27V21.4373H25.8474V27H25.1157ZM27.0844 27V21.4373H27.8162V26.328H30.2578V27H27.0844Z" fill="#544A90"/>
</svg>
