<svg width="461" height="75" viewBox="0 0 461 75" fill="none" xmlns="http://www.w3.org/2000/svg">
<path d="M44.2805 31.2858H33.2874C33.1408 30.1572 32.8403 29.1385 32.3859 28.2297C31.9315 27.3209 31.3306 26.5441 30.583 25.8991C29.8355 25.2542 28.9487 24.7632 27.9227 24.4261C26.9113 24.0743 25.79 23.8984 24.5588 23.8984C22.3748 23.8984 20.4913 24.4334 18.9083 25.5034C17.3399 26.5734 16.1307 28.1198 15.2805 30.1425C14.445 32.1653 14.0273 34.6131 14.0273 37.486C14.0273 40.4761 14.4524 42.9826 15.3025 45.0053C16.1673 47.0134 17.3766 48.5304 18.9303 49.5565C20.4986 50.5678 22.3528 51.0735 24.4928 51.0735C25.6947 51.0735 26.7867 50.9196 27.7688 50.6118C28.7655 50.304 29.6376 49.857 30.3852 49.2707C31.1474 48.6697 31.7703 47.9441 32.254 47.094C32.7524 46.2292 33.0968 45.2545 33.2874 44.1698L44.2805 44.2358C44.09 46.2292 43.511 48.1933 42.5436 50.1281C41.5909 52.0629 40.279 53.8292 38.6081 55.4268C36.9371 57.0099 34.8997 58.2704 32.4958 59.2085C30.1067 60.1466 27.3657 60.6156 24.2729 60.6156C20.1981 60.6156 16.5484 59.7215 13.3237 57.9333C10.1137 56.1304 7.57797 53.5067 5.71645 50.0622C3.85494 46.6176 2.92419 42.4256 2.92419 37.486C2.92419 32.5317 3.8696 28.3323 5.76043 24.8878C7.65125 21.4432 10.209 18.8269 13.4337 17.0386C16.6583 15.2504 20.2714 14.3563 24.2729 14.3563C26.9993 14.3563 29.5204 14.7374 31.8363 15.4996C34.1522 16.2471 36.1896 17.3465 37.9485 18.7976C39.7074 20.234 41.1365 22.0002 42.2358 24.0963C43.3351 26.1923 44.0167 28.5888 44.2805 31.2858ZM93.0078 37.486C93.0078 42.4402 92.0551 46.6396 90.1496 50.0841C88.2441 53.5287 85.6644 56.1451 82.4104 57.9333C79.1711 59.7215 75.536 60.6156 71.5052 60.6156C67.4597 60.6156 63.8173 59.7142 60.5779 57.9113C57.3386 56.1084 54.7662 53.492 52.8607 50.0622C50.9699 46.6176 50.0245 42.4256 50.0245 37.486C50.0245 32.5317 50.9699 28.3323 52.8607 24.8878C54.7662 21.4432 57.3386 18.8269 60.5779 17.0386C63.8173 15.2504 67.4597 14.3563 71.5052 14.3563C75.536 14.3563 79.1711 15.2504 82.4104 17.0386C85.6644 18.8269 88.2441 21.4432 90.1496 24.8878C92.0551 28.3323 93.0078 32.5317 93.0078 37.486ZM81.8827 37.486C81.8827 34.5544 81.465 32.0773 80.6295 30.0546C79.8087 28.0318 78.6214 26.5001 77.0677 25.4594C75.5287 24.4187 73.6745 23.8984 71.5052 23.8984C69.3505 23.8984 67.4963 24.4187 65.9426 25.4594C64.3889 26.5001 63.1943 28.0318 62.3588 30.0546C61.538 32.0773 61.1276 34.5544 61.1276 37.486C61.1276 40.4175 61.538 42.8946 62.3588 44.9174C63.1943 46.9401 64.3889 48.4718 65.9426 49.5125C67.4963 50.5532 69.3505 51.0735 71.5052 51.0735C73.6745 51.0735 75.5287 50.5532 77.0677 49.5125C78.6214 48.4718 79.8087 46.9401 80.6295 44.9174C81.465 42.8946 81.8827 40.4175 81.8827 37.486ZM99.3619 14.9719H112.84L124.272 42.8506H124.8L136.233 14.9719H149.711V60H139.113V32.3412H138.739L127.922 59.7142H121.15L110.333 32.1872H109.959V60H99.3619V14.9719ZM167.382 14.9719V60H156.499V14.9719H167.382ZM212.537 14.9719V60H203.302L185.384 34.0121H185.098V60H174.214V14.9719H183.581L201.302 40.9158H201.675V14.9719H212.537ZM248.93 29.6808C248.68 28.7574 248.314 27.9439 247.83 27.2403C247.347 26.5221 246.753 25.9138 246.049 25.4154C245.346 24.9171 244.54 24.5433 243.631 24.2941C242.722 24.0303 241.725 23.8984 240.641 23.8984C238.457 23.8984 236.566 24.4261 234.968 25.4814C233.385 26.5368 232.161 28.0758 231.297 30.0985C230.432 32.1066 229.999 34.5471 229.999 37.42C229.999 40.3075 230.417 42.77 231.253 44.8074C232.088 46.8448 233.297 48.3985 234.88 49.4685C236.463 50.5385 238.383 51.0735 240.641 51.0735C242.634 51.0735 244.32 50.7511 245.698 50.1061C247.09 49.4465 248.145 48.5158 248.864 47.3139C249.582 46.1119 249.941 44.6975 249.941 43.0705L251.964 43.3123H241.015V35.3753H260.428V41.3336C260.428 45.3644 259.571 48.8163 257.856 51.6892C256.156 54.562 253.811 56.768 250.82 58.307C247.845 59.8461 244.422 60.6156 240.553 60.6156C236.258 60.6156 232.484 59.6849 229.23 57.8233C225.976 55.9618 223.44 53.3088 221.623 49.8643C219.805 46.4051 218.896 42.301 218.896 37.5519C218.896 33.8582 219.446 30.5822 220.545 27.724C221.645 24.8511 223.176 22.418 225.14 20.4245C227.119 18.4311 229.406 16.9214 232 15.8954C234.609 14.8693 237.416 14.3563 240.421 14.3563C243.03 14.3563 245.456 14.7301 247.698 15.4776C249.956 16.2251 251.949 17.2805 253.679 18.6436C255.423 20.0068 256.837 21.6265 257.922 23.5026C259.007 25.3788 259.681 27.4382 259.945 29.6808H248.93ZM304.484 28.4716C304.337 26.8592 303.685 25.606 302.527 24.7119C301.384 23.8031 299.749 23.3487 297.624 23.3487C296.217 23.3487 295.044 23.532 294.106 23.8984C293.168 24.2648 292.464 24.7705 291.995 25.4154C291.526 26.0457 291.285 26.7713 291.27 27.5921C291.241 28.2663 291.372 28.86 291.666 29.373C291.973 29.886 292.413 30.3404 292.985 30.7361C293.571 31.1172 294.275 31.4544 295.095 31.7475C295.916 32.0407 296.84 32.2972 297.866 32.517L301.735 33.3965C303.963 33.8802 305.927 34.5251 307.628 35.3313C309.343 36.1375 310.779 37.0975 311.937 38.2115C313.11 39.3255 313.996 40.608 314.597 42.0591C315.198 43.5102 315.506 45.1372 315.521 46.9401C315.506 49.7837 314.788 52.2242 313.366 54.2616C311.944 56.299 309.9 57.86 307.232 58.9447C304.579 60.0293 301.376 60.5716 297.624 60.5716C293.857 60.5716 290.574 60.0073 287.774 58.8787C284.974 57.7501 282.798 56.0351 281.244 53.7339C279.69 51.4326 278.892 48.5231 278.848 45.0053H289.269C289.357 46.4564 289.745 47.6656 290.434 48.633C291.123 49.6004 292.069 50.3333 293.271 50.8317C294.487 51.33 295.894 51.5792 297.492 51.5792C298.958 51.5792 300.204 51.3813 301.23 50.9856C302.27 50.5898 303.069 50.0402 303.626 49.3366C304.183 48.633 304.469 47.8269 304.484 46.9181C304.469 46.068 304.205 45.3424 303.692 44.7415C303.179 44.1258 302.388 43.5982 301.318 43.1584C300.262 42.7041 298.914 42.2863 297.272 41.9052L292.567 40.8059C288.668 39.9118 285.597 38.468 283.355 36.4746C281.112 34.4665 279.998 31.7549 280.013 28.3396C279.998 25.5547 280.746 23.1142 282.255 21.0182C283.765 18.9221 285.854 17.2878 288.522 16.1152C291.189 14.9426 294.231 14.3563 297.646 14.3563C301.134 14.3563 304.161 14.9499 306.726 16.1372C309.306 17.3098 311.307 18.9588 312.729 21.0841C314.15 23.2095 314.876 25.672 314.905 28.4716H304.484ZM363.517 37.486C363.517 42.4402 362.564 46.6396 360.659 50.0841C358.753 53.5287 356.174 56.1451 352.92 57.9333C349.68 59.7215 346.045 60.6156 342.014 60.6156C337.969 60.6156 334.326 59.7142 331.087 57.9113C327.848 56.1084 325.275 53.492 323.37 50.0622C321.479 46.6176 320.534 42.4256 320.534 37.486C320.534 32.5317 321.479 28.3323 323.37 24.8878C325.275 21.4432 327.848 18.8269 331.087 17.0386C334.326 15.2504 337.969 14.3563 342.014 14.3563C346.045 14.3563 349.68 15.2504 352.92 17.0386C356.174 18.8269 358.753 21.4432 360.659 24.8878C362.564 28.3323 363.517 32.5317 363.517 37.486ZM352.392 37.486C352.392 34.5544 351.974 32.0773 351.139 30.0546C350.318 28.0318 349.131 26.5001 347.577 25.4594C346.038 24.4187 344.184 23.8984 342.014 23.8984C339.86 23.8984 338.006 24.4187 336.452 25.4594C334.898 26.5001 333.704 28.0318 332.868 30.0546C332.047 32.0773 331.637 34.5544 331.637 37.486C331.637 40.4175 332.047 42.8946 332.868 44.9174C333.704 46.9401 334.898 48.4718 336.452 49.5125C338.006 50.5532 339.86 51.0735 342.014 51.0735C344.184 51.0735 346.038 50.5532 347.577 49.5125C349.131 48.4718 350.318 46.9401 351.139 44.9174C351.974 42.8946 352.392 40.4175 352.392 37.486ZM412.371 37.486C412.371 42.4402 411.418 46.6396 409.513 50.0841C407.607 53.5287 405.027 56.1451 401.773 57.9333C398.534 59.7215 394.899 60.6156 390.868 60.6156C386.823 60.6156 383.18 59.7142 379.941 57.9113C376.702 56.1084 374.129 53.492 372.224 50.0622C370.333 46.6176 369.387 42.4256 369.387 37.486C369.387 32.5317 370.333 28.3323 372.224 24.8878C374.129 21.4432 376.702 18.8269 379.941 17.0386C383.18 15.2504 386.823 14.3563 390.868 14.3563C394.899 14.3563 398.534 15.2504 401.773 17.0386C405.027 18.8269 407.607 21.4432 409.513 24.8878C411.418 28.3323 412.371 32.5317 412.371 37.486ZM401.246 37.486C401.246 34.5544 400.828 32.0773 399.992 30.0546C399.172 28.0318 397.984 26.5001 396.431 25.4594C394.892 24.4187 393.037 23.8984 390.868 23.8984C388.713 23.8984 386.859 24.4187 385.306 25.4594C383.752 26.5001 382.557 28.0318 381.722 30.0546C380.901 32.0773 380.491 34.5544 380.491 37.486C380.491 40.4175 380.901 42.8946 381.722 44.9174C382.557 46.9401 383.752 48.4718 385.306 49.5125C386.859 50.5532 388.713 51.0735 390.868 51.0735C393.037 51.0735 394.892 50.5532 396.431 49.5125C397.984 48.4718 399.172 46.9401 399.992 44.9174C400.828 42.8946 401.246 40.4175 401.246 37.486ZM457.047 14.9719V60H447.813L429.894 34.0121H429.608V60H418.725V14.9719H428.091L445.812 40.9158H446.186V14.9719H457.047Z" fill="#090909"/>
</svg>
