<svg width="282" height="398" viewBox="0 0 282 398" fill="none" xmlns="http://www.w3.org/2000/svg">
<path d="M163 314H34V398H163V314Z" fill="#090909"/>
<path d="M186.117 202.902C189.575 202.992 191.887 199.371 190.352 196.272L166.208 147.551C165.696 146.323 165.108 145.135 164.446 143.995L164.442 143.988V143.989C159.464 135.425 150.417 129.478 139.842 128.884L71.4483 125.038L71.4262 125.008L70.9174 125.018L70.8077 125.014C70.7336 125.014 70.6616 125.023 70.5868 125.024L59.2553 125.24C39.4542 125.617 21.6062 138.438 16.1335 157.472C15.9126 158.239 15.7117 159.016 15.53 159.801L1.34749 207.921C0.374103 211.223 2.74557 214.566 6.18377 214.74L40.2544 216.457L29.2878 307.482C28.8581 311.049 31.6429 314.19 35.2364 314.19H164.304C167.223 314.19 169.578 311.802 169.535 308.883L169.487 202.432L186.117 202.902Z" fill="#535AB4"/>
<path d="M164.303 314.545H35.235C33.4201 314.545 31.6885 313.766 30.485 312.409C29.2821 311.051 28.7163 309.24 28.933 307.438L39.8533 216.792L6.16387 215.094C4.41591 215.006 2.83185 214.136 1.81927 212.708C0.805979 211.28 0.508831 209.498 1.00479 207.818L15.1866 159.699C15.3633 158.931 15.5678 158.141 15.7894 157.372C21.1787 138.626 39.0495 125.266 59.2469 124.882L70.666 124.662C70.7123 124.659 70.7586 124.656 70.8056 124.656L70.9289 124.66L71.4177 124.65C71.469 124.644 71.5332 124.663 71.5845 124.688L139.86 128.526C150.221 129.108 159.525 134.821 164.749 143.808C165.415 144.954 166.014 146.164 166.536 147.412L190.67 196.113C191.448 197.681 191.349 199.498 190.407 200.973C189.465 202.448 187.842 203.315 186.108 203.256H186.106L169.842 202.795L169.89 308.879C169.911 310.381 169.341 311.803 168.282 312.877C167.225 313.953 165.811 314.545 164.303 314.545ZM70.7935 125.368L70.7173 125.373C70.6745 125.376 70.6325 125.379 70.589 125.38L59.2611 125.596C39.373 125.974 21.7779 139.122 16.4742 157.569C16.2562 158.327 16.0552 159.105 15.8756 159.881L1.68815 208.021C1.25562 209.49 1.515 211.048 2.40074 212.297C3.28576 213.546 4.67173 214.306 6.20021 214.384L40.2708 216.101C40.3699 216.106 40.4618 216.152 40.5252 216.227C40.5886 216.303 40.6179 216.401 40.6057 216.499L29.6391 307.524C29.446 309.124 29.9491 310.732 31.018 311.936C32.0861 313.142 33.6232 313.833 35.2343 313.833H164.302C165.618 313.833 166.852 313.316 167.775 312.38C168.699 311.442 169.197 310.202 169.177 308.887L169.13 202.431C169.13 202.335 169.169 202.242 169.237 202.176C169.306 202.108 169.393 202.07 169.496 202.075L186.125 202.546C187.626 202.608 188.999 201.854 189.806 200.592C190.613 199.329 190.697 197.774 190.031 196.43L165.887 147.709C165.368 146.468 164.782 145.286 164.136 144.173C159.03 135.388 149.94 129.808 139.819 129.238L71.4256 125.393C71.3842 125.391 71.3443 125.381 71.3066 125.366L70.9225 125.373L70.7935 125.368Z" fill="#090909"/>
<path d="M206.613 158.817C210.794 151.154 212.219 141.892 208.461 133.767L203.649 135.52C203.649 135.52 199.043 122.252 198.299 112.563C196.45 109.267 183.071 116.22 183.071 116.22C183.071 116.22 184.399 112.603 185.063 110.795C185.767 108.878 186.482 106.835 186.061 104.837C185.639 102.839 183.589 101.042 181.648 101.677C179.739 102.302 176.121 110.218 174.981 112.081C168.118 123.295 168.202 137.965 169.408 150.643C170.05 157.4 166.993 226.98 168.159 230.07C175.204 248.722 201.454 249.101 209.028 230.657C209.991 227.028 210.543 223.318 210.684 219.597C210.874 214.566 202.536 169.563 202.407 168.036C202.226 165.894 203.241 164.01 204.416 162.217C205.174 161.061 205.999 159.942 206.613 158.817Z" fill="white"/>
<path d="M188.739 244.633C188.624 244.633 188.509 244.632 188.393 244.631C179.019 244.497 171.138 238.966 167.826 230.196C167.206 228.553 167.649 211.678 168.394 186.122C168.881 169.446 169.34 153.696 169.053 150.677C167.919 138.753 167.533 123.568 174.678 111.895C174.952 111.447 175.387 110.612 175.893 109.645C178.036 105.54 180.08 101.815 181.539 101.339C182.383 101.06 183.321 101.181 184.177 101.676C185.289 102.317 186.144 103.5 186.41 104.763C186.866 106.921 186.053 109.137 185.399 110.918L183.719 115.492C186.856 113.931 196.862 109.27 198.611 112.389C198.636 112.434 198.652 112.484 198.656 112.536C199.322 121.209 203.151 132.92 203.87 135.061L208.34 133.432C208.512 133.368 208.708 133.449 208.785 133.617C212.279 141.172 211.602 150.419 206.927 158.988C206.491 159.789 205.941 160.598 205.409 161.379C205.177 161.721 204.943 162.065 204.715 162.413C203.426 164.38 202.602 166.084 202.764 168.006C202.797 168.395 203.421 171.929 204.285 176.821C206.696 190.47 211.182 215.877 211.042 219.61C210.9 223.367 210.339 227.115 209.375 230.748C205.842 239.353 197.962 244.633 188.739 244.633ZM182.464 101.902C182.24 101.902 182.004 101.935 181.759 102.015C180.457 102.441 177.898 107.341 176.523 109.974C175.991 110.993 175.571 111.799 175.285 112.266C168.251 123.76 168.639 138.795 169.762 150.609C170.053 153.671 169.593 169.443 169.106 186.141C168.529 205.907 167.875 228.31 168.492 229.944C171.699 238.433 179.328 243.789 188.403 243.917C197.482 244.015 205.252 238.913 208.698 230.521C209.635 226.982 210.188 223.287 210.327 219.582C210.466 215.924 205.988 190.567 203.581 176.943C202.682 171.85 202.088 168.486 202.052 168.064C201.862 165.814 202.932 163.83 204.117 162.021C204.347 161.67 204.583 161.323 204.817 160.977C205.363 160.174 205.879 159.416 206.299 158.646C210.803 150.39 211.515 141.506 208.272 134.214L203.77 135.855C203.682 135.886 203.582 135.883 203.495 135.842C203.409 135.8 203.343 135.727 203.311 135.637C203.266 135.503 198.709 122.291 197.95 112.674C196.597 110.621 188.239 113.935 183.234 116.535C183.105 116.602 182.945 116.584 182.835 116.487C182.724 116.389 182.685 116.234 182.735 116.096L184.728 110.671C185.35 108.976 186.125 106.868 185.711 104.909C185.489 103.855 184.746 102.827 183.819 102.292C183.481 102.096 183.008 101.902 182.464 101.902Z" fill="#090909"/>
<path d="M180.416 123.655L192.87 136.066L202.176 117.988L200.19 109.776L183.279 116.057L180.416 123.655Z" fill="#090909"/>
<path d="M200.175 142.395C196.843 142.97 193.676 140.736 193.101 137.404L187.476 104.824C186.901 101.492 189.136 98.3244 192.468 97.7494C195.8 97.1743 198.968 99.409 199.543 102.741L205.167 135.321C205.742 138.653 203.507 141.82 200.175 142.395Z" fill="#8E89D0"/>
<path d="M199.12 142.843C197.796 142.843 196.504 142.436 195.399 141.656C193.986 140.658 193.044 139.17 192.749 137.465L187.125 104.885C186.831 103.18 187.218 101.462 188.216 100.048C189.213 98.6347 190.701 97.6934 192.407 97.3991C194.112 97.1041 195.83 97.4917 197.244 98.4893C198.658 99.487 199.599 100.976 199.894 102.681L205.518 135.261C206.125 138.781 203.755 142.139 200.236 142.746C199.864 142.81 199.49 142.843 199.12 142.843ZM193.522 98.0155C193.192 98.0155 192.86 98.044 192.529 98.101C191.011 98.3632 189.687 99.2005 188.799 100.459C187.911 101.717 187.567 103.247 187.829 104.764L193.453 137.344C193.715 138.861 194.553 140.186 195.811 141.074C197.07 141.962 198.597 142.307 200.117 142.044C203.249 141.504 205.358 138.515 204.817 135.382L199.193 102.802C198.932 101.284 198.094 99.9594 196.836 99.0715C195.85 98.3775 194.701 98.0155 193.522 98.0155Z" fill="#090909"/>
<path d="M199.215 102.872L187.927 104.821C185.563 105.229 183.316 103.643 182.907 101.279L182.473 98.7629C182.064 96.3992 183.65 94.1518 186.014 93.7435L197.302 91.7946C199.667 91.3862 201.913 92.9717 202.322 95.3361L202.756 97.8522C203.165 100.216 201.579 102.463 199.215 102.872Z" fill="#FFF9F3"/>
<path d="M187.185 105.239C184.942 105.239 182.951 103.623 182.556 101.339L182.122 98.8226C181.681 96.2687 183.401 93.8324 185.954 93.3913L197.243 91.4431C199.796 91.002 202.232 92.7207 202.674 95.2746L203.108 97.7907C203.548 100.345 201.829 102.781 199.276 103.221L187.987 105.17C187.718 105.217 187.45 105.239 187.185 105.239ZM198.044 92.0865C197.82 92.0865 197.592 92.1058 197.364 92.145L186.075 94.0932C183.909 94.4673 182.45 96.5345 182.825 98.7007L183.259 101.217C183.633 103.383 185.699 104.84 187.866 104.468L199.155 102.519C201.321 102.145 202.78 100.078 202.405 97.9119L201.971 95.3958C201.636 93.4583 199.947 92.0865 198.044 92.0865Z" fill="#090909"/>
<path d="M168.7 87.8111L165.411 88.3791C163.805 88.6562 162.277 87.5788 162 85.972L161.896 85.3663C161.618 83.7594 162.696 82.2323 164.303 81.9551L167.591 81.3872L168.7 87.8111Z" fill="white"/>
<path d="M164.902 88.7787C164.225 88.7787 163.566 88.5706 163.001 88.1723C162.279 87.6628 161.798 86.9025 161.649 86.0317L161.544 85.4267C161.234 83.6289 162.444 81.913 164.241 81.603L167.53 81.0351C167.622 81.0187 167.719 81.0408 167.796 81.0949C167.872 81.1498 167.925 81.2325 167.942 81.3258L169.051 87.7504C169.067 87.8431 169.045 87.9393 168.991 88.0162C168.936 88.0932 168.854 88.1459 168.76 88.1623L165.472 88.7295C165.282 88.7623 165.091 88.7787 164.902 88.7787ZM167.3 81.7983L164.362 82.3056C162.952 82.5493 162.003 83.8947 162.246 85.3056L162.351 85.9106C162.469 86.5946 162.845 87.1903 163.412 87.5901C163.979 87.9906 164.668 88.1452 165.351 88.0269L168.288 87.5203L167.3 81.7983Z" fill="#090909"/>
<path d="M202.441 96.0278L185.192 99.0057C176.764 100.461 168.753 94.8079 167.298 86.3809L166.749 83.2035C165.294 74.7758 170.946 66.765 179.374 65.3099L196.624 62.332L202.441 96.0278Z" fill="#8E89D0"/>
<path d="M182.55 99.5893C174.988 99.5893 168.277 94.1417 166.947 86.4415L166.399 83.2641C164.914 74.6569 170.707 66.4451 179.314 64.9593L196.564 61.9815C196.755 61.9494 196.942 62.0777 196.976 62.2722L202.792 95.9673C202.808 96.0599 202.787 96.1561 202.732 96.2331C202.678 96.31 202.595 96.3628 202.502 96.3792L185.253 99.357C184.345 99.5138 183.442 99.5893 182.55 99.5893ZM196.334 62.7446L179.435 65.662C171.215 67.0807 165.682 74.9234 167.101 83.1437L167.649 86.3211C169.067 94.5407 176.906 100.074 185.13 98.6551L202.028 95.7378L196.334 62.7446Z" fill="#090909"/>
<path d="M196.624 62.3327L202.441 96.0278C215.795 93.7226 229.556 95.7007 241.859 101.695L269.091 114.963L253.069 22.1475L231.861 43.7771C222.279 53.5495 209.978 60.0275 196.624 62.3327Z" fill="white" stroke="#090909" stroke-miterlimit="10" stroke-linecap="round" stroke-linejoin="round"/>
<path d="M270.136 115.014C276.385 113.935 277.848 92.1832 273.402 66.4293C268.957 40.6754 260.286 20.6723 254.036 21.7512C247.787 22.83 246.324 44.5823 250.77 70.3362C255.215 96.0901 263.886 116.093 270.136 115.014Z" fill="#FFF9F3" stroke="#090909" stroke-miterlimit="10" stroke-linecap="round" stroke-linejoin="round"/>
<path d="M268.555 104.97C273.578 104.103 274.753 86.621 271.181 65.9229C267.608 45.2248 260.639 29.1485 255.617 30.0155C250.594 30.8826 249.418 48.3646 252.991 69.0627C256.564 89.7609 263.532 105.837 268.555 104.97Z" fill="white"/>
<mask id="mask0_634_6658" style="mask-type:luminance" maskUnits="userSpaceOnUse" x="250" y="29" width="24" height="77">
<path d="M268.555 104.971C273.578 104.104 274.753 86.6215 271.181 65.9234C267.608 45.2253 260.639 29.149 255.617 30.016C250.594 30.8831 249.418 48.3651 252.991 69.0632C256.564 89.7614 263.532 105.838 268.555 104.971Z" fill="white"/>
</mask>
<g mask="url(#mask0_634_6658)">
<path d="M242.713 62.5299L254.789 60.4456C259.721 59.5941 264.41 62.9019 265.261 67.8344C266.113 72.7661 262.805 77.4549 257.872 78.3065L245.796 80.3915L242.713 62.5299Z" fill="#8E89D0" stroke="#090909" stroke-miterlimit="10" stroke-linecap="round" stroke-linejoin="round"/>
</g>
<path d="M268.555 104.97C273.578 104.103 274.753 86.621 271.181 65.9229C267.608 45.2248 260.639 29.1485 255.617 30.0155C250.594 30.8826 249.418 48.3646 252.991 69.0627C256.564 89.7609 263.532 105.837 268.555 104.97Z" stroke="#090909" stroke-width="0.999974" stroke-miterlimit="10" stroke-linecap="round" stroke-linejoin="round"/>
<path d="M205.836 95.8918C205.666 95.8918 205.515 95.7685 205.485 95.5939L199.839 61.6708C199.807 61.477 199.938 61.2931 200.132 61.261C200.323 61.2275 200.509 61.3601 200.541 61.5539L206.188 95.477C206.22 95.6708 206.089 95.8547 205.895 95.8868C205.876 95.8903 205.856 95.8918 205.836 95.8918Z" fill="#090909"/>
<path d="M212.678 115.715L212.721 115.853C213.407 118.014 212.201 120.344 210.039 121.03L197.738 124.937C195.576 125.623 193.246 124.417 192.56 122.255L192.516 122.118C191.83 119.956 193.036 117.626 195.198 116.94L207.499 113.033C209.661 112.347 211.991 113.554 212.678 115.715Z" fill="white"/>
<path d="M196.493 125.488C195.785 125.488 195.081 125.318 194.431 124.982C193.366 124.43 192.58 123.5 192.22 122.364L192.176 122.227C191.428 119.872 192.735 117.349 195.09 116.601L207.392 112.695C209.747 111.946 212.269 113.254 213.017 115.608L213.061 115.746C213.808 118.1 212.501 120.624 210.147 121.372L197.845 125.278C197.402 125.418 196.947 125.488 196.493 125.488ZM208.745 113.196C208.368 113.196 207.985 113.253 207.607 113.373L195.305 117.279C193.325 117.908 192.226 120.03 192.855 122.01L192.899 122.148C193.202 123.103 193.863 123.884 194.759 124.348C195.656 124.813 196.675 124.901 197.629 124.598L209.931 120.692C211.911 120.063 213.01 117.941 212.382 115.961L212.338 115.824C211.829 114.221 210.342 113.196 208.745 113.196Z" fill="#090909"/>
<path d="M210.249 107.407L210.292 107.545C210.978 109.706 209.772 112.036 207.61 112.723L195.309 116.63C193.147 117.317 190.817 116.11 190.13 113.948L190.086 113.81C189.4 111.649 190.606 109.319 192.768 108.632L205.07 104.725C207.232 104.039 209.562 105.246 210.249 107.407Z" fill="white"/>
<path d="M194.065 117.18C193.357 117.181 192.654 117.01 192.004 116.673C190.939 116.122 190.153 115.192 189.792 114.056L189.749 113.918C189.387 112.782 189.493 111.57 190.045 110.504C190.596 109.439 191.526 108.654 192.662 108.293L204.964 104.386C207.318 103.637 209.842 104.946 210.589 107.299L210.633 107.437C210.994 108.573 210.889 109.785 210.337 110.851C209.786 111.916 208.856 112.701 207.719 113.063L195.418 116.97C194.974 117.111 194.519 117.18 194.065 117.18ZM206.316 104.888C205.939 104.888 205.556 104.945 205.178 105.065L192.877 108.972C191.922 109.275 191.141 109.935 190.676 110.832C190.212 111.728 190.123 112.747 190.426 113.702L190.47 113.84C190.773 114.795 191.434 115.576 192.33 116.04C193.228 116.505 194.247 116.593 195.2 116.291L207.502 112.384C208.457 112.081 209.238 111.419 209.702 110.524C210.167 109.627 210.255 108.608 209.952 107.653L209.909 107.516C209.4 105.913 207.914 104.888 206.316 104.888Z" fill="#090909"/>
<path d="M212.721 124.235L212.733 124.272C213.412 126.407 212.219 128.708 210.085 129.386L201.693 132.051C199.559 132.729 197.257 131.537 196.58 129.402L196.568 129.365C195.89 127.231 197.082 124.93 199.216 124.252L207.607 121.587C209.741 120.909 212.043 122.1 212.721 124.235Z" fill="white"/>
<path d="M200.463 132.598C198.585 132.598 196.837 131.393 196.24 129.51C195.489 127.145 196.781 124.651 199.108 123.912L207.498 121.247C208.621 120.89 209.821 120.995 210.872 121.54C211.926 122.085 212.702 123.005 213.059 124.128L213.071 124.163C213.428 125.288 213.324 126.486 212.779 127.539C212.233 128.592 211.314 129.368 210.191 129.725L201.8 132.39C201.357 132.531 200.906 132.598 200.463 132.598ZM208.834 121.752C208.459 121.752 208.081 121.81 207.714 121.926L199.324 124.591C197.372 125.211 196.287 127.304 196.907 129.257C197.539 131.246 199.633 132.33 201.585 131.711L209.976 129.046C210.917 128.747 211.688 128.095 212.147 127.211C212.605 126.327 212.692 125.321 212.392 124.38L212.38 124.343C212.081 123.401 211.43 122.63 210.545 122.172C210.007 121.894 209.422 121.752 208.834 121.752Z" fill="#090909"/>
<path d="M215.013 132.113L215.057 132.251C215.743 134.412 214.536 136.742 212.374 137.428L208.22 138.748C206.059 139.434 203.729 138.228 203.042 136.066L202.998 135.928C202.312 133.767 203.518 131.437 205.68 130.751L209.834 129.431C211.997 128.745 214.326 129.952 215.013 132.113Z" fill="white"/>
<path d="M206.977 139.298C206.269 139.298 205.565 139.128 204.915 138.792C203.849 138.24 203.063 137.31 202.704 136.174L202.66 136.036C202.299 134.9 202.404 133.688 202.957 132.622C203.508 131.557 204.437 130.772 205.574 130.41L209.727 129.091C212.083 128.342 214.606 129.65 215.354 132.004L215.355 132.006L215.398 132.143C215.759 133.278 215.653 134.491 215.102 135.556C214.55 136.621 213.621 137.407 212.484 137.768L208.33 139.087C207.885 139.229 207.431 139.298 206.977 139.298ZM211.081 129.594C210.704 129.594 210.321 129.651 209.943 129.771L205.789 131.091C204.834 131.394 204.053 132.055 203.589 132.951C203.124 133.847 203.036 134.867 203.338 135.821L203.382 135.959C203.685 136.914 204.346 137.695 205.242 138.16C206.14 138.624 207.159 138.713 208.112 138.41L212.266 137.09C213.221 136.787 214.002 136.126 214.467 135.23C214.931 134.334 215.019 133.315 214.716 132.36L214.673 132.222C214.165 130.619 212.678 129.594 211.081 129.594Z" fill="#090909"/>
<path d="M182.883 116.92C182.883 116.92 184.398 112.602 185.063 110.795C185.767 108.878 186.482 106.835 186.061 104.837C185.64 102.839 183.59 101.042 181.649 101.677C179.739 102.302 176.121 110.218 174.981 112.081" fill="white"/>
<path d="M183.219 117.037L182.547 116.802C182.547 116.802 184.064 112.481 184.729 110.671C185.351 108.976 186.126 106.868 185.713 104.909C185.49 103.855 184.748 102.827 183.821 102.292C183.342 102.015 182.596 101.743 181.76 102.015C180.457 102.441 177.898 107.341 176.524 109.974C175.992 110.993 175.571 111.799 175.285 112.266C175.181 112.434 174.96 112.485 174.795 112.384C174.627 112.281 174.574 112.062 174.677 111.893C174.951 111.446 175.387 110.611 175.892 109.644C178.035 105.539 180.08 101.814 181.538 101.337C182.383 101.059 183.32 101.18 184.176 101.674C185.288 102.316 186.143 103.498 186.41 104.762C186.865 106.92 186.052 109.136 185.398 110.916C184.734 112.724 183.219 117.037 183.219 117.037Z" fill="#090909"/>
<path d="M179.512 128.803C179.51 128.803 179.509 128.803 179.507 128.803C179.311 128.801 179.153 128.639 179.155 128.443C179.199 124.523 182.42 117.092 182.556 116.777C182.636 116.597 182.846 116.516 183.025 116.592C183.206 116.671 183.288 116.881 183.209 117.061C183.176 117.137 179.91 124.675 179.868 128.451C179.866 128.646 179.706 128.803 179.512 128.803Z" fill="#090909"/>
<path d="M154.898 35.7099C155.064 35.4825 155.211 35.2438 155.313 34.978C157.235 32.804 158.513 30.027 158.802 26.9145C159.526 19.101 153.78 12.179 145.966 11.4543C145.307 11.393 144.658 11.3938 144.014 11.423C137.124 5.47293 132.319 -0.964526 120.238 0.590325C115.582 1.1896 111.253 3.58957 108.605 7.46673C108.236 8.00615 107.913 8.58619 107.618 9.18262C107.381 9.6629 101.219 10.3541 100.399 10.5814C94.6425 12.1747 87.2786 14.5462 84.4055 20.2483C83.135 22.7701 82.7338 25.6126 82.6283 28.4536C78.2866 31.9004 76.518 37.9994 78.2709 43.5205L82.7972 57.7792C83.745 57.5412 84.7312 57.4008 85.7502 57.4008H91.5221C91.8755 58.0029 92.2289 58.6086 92.5767 59.2229C94.3681 62.3889 95.5282 65.7558 95.3907 69.4377C102.856 58.9984 138.592 61.7205 146.523 61.7205C154.454 61.7205 160.883 55.2909 160.883 47.3598C160.883 42.557 158.517 38.3172 154.898 35.7099Z" fill="#090909"/>
<path d="M95.39 69.7934C95.3515 69.7934 95.313 69.7869 95.2753 69.7741C95.1263 69.7235 95.028 69.581 95.0337 69.4235C95.1556 66.1827 94.2492 62.9027 92.2653 59.3968C91.9532 58.8446 91.6354 58.2987 91.3176 57.7557H85.7502C84.8203 57.7557 83.8569 57.8797 82.8835 58.1234C82.6996 58.169 82.5144 58.065 82.4567 57.8854L77.9304 43.626C76.1432 37.9952 77.8897 31.8492 82.2778 28.2756C82.3676 26.0787 82.6655 22.907 84.087 20.0859C86.8454 14.6104 93.5116 12.1157 100.304 10.2359C100.594 10.1554 101.426 10.0328 102.48 9.87745C104.02 9.65084 106.858 9.23185 107.326 8.96748C107.651 8.31476 107.973 7.7568 108.311 7.2637C110.929 3.43215 115.26 0.870426 120.194 0.234804C130.737 -1.12124 135.944 3.62241 141.451 8.64682C142.319 9.43849 143.216 10.2565 144.141 11.0596C144.837 11.034 145.434 11.0454 145.998 11.0981C149.872 11.4572 153.375 13.3035 155.86 16.2971C158.344 19.2906 159.516 23.0723 159.157 26.9466C158.872 30.0114 157.65 32.8525 155.621 35.1662C155.558 35.3187 155.481 35.4691 155.384 35.6258C159.057 38.4042 161.24 42.7645 161.24 47.3585C161.24 55.4733 154.638 62.0754 146.523 62.0754C145.473 62.0754 143.968 62.0291 142.062 61.9699C130.089 61.598 102.053 60.7329 95.68 69.6437C95.6116 69.7399 95.5026 69.7934 95.39 69.7934ZM85.7502 57.0439H91.5221C91.6489 57.0439 91.7658 57.1109 91.8299 57.2199C92.1841 57.8234 92.5383 58.4305 92.8867 59.0462C94.7294 62.3027 95.6722 65.3818 95.7527 68.4231C103.327 60.0609 129.369 60.8654 142.085 61.2581C143.984 61.3172 145.484 61.3628 146.523 61.3628C154.246 61.3628 160.528 55.0807 160.528 47.3585C160.528 42.8778 158.345 38.6315 154.691 35.9985C154.614 35.9429 154.562 35.8588 154.547 35.7648C154.532 35.6714 154.556 35.5752 154.612 35.499C154.785 35.2624 154.903 35.0558 154.982 34.8498C154.997 34.8099 155.019 34.7736 155.047 34.7415C157 32.5332 158.177 29.8155 158.448 26.881C158.79 23.197 157.677 19.5999 155.313 16.7531C152.95 13.9064 149.619 12.1506 145.935 11.8093C145.363 11.7558 144.759 11.7473 144.032 11.7786C143.938 11.7864 143.853 11.7522 143.783 11.6924C142.812 10.8537 141.876 10 140.972 9.17484C135.356 4.0521 130.509 -0.373028 120.285 0.943821C115.554 1.55236 111.405 4.00364 108.901 7.66773C108.573 8.14659 108.258 8.69385 107.939 9.34016C107.754 9.71355 106.992 9.93374 102.585 10.5836C101.638 10.7233 100.743 10.8551 100.496 10.9242C93.8608 12.7605 87.3585 15.1798 84.7241 20.408C83.6631 22.5144 83.1101 25.0747 82.9854 28.4665C82.9811 28.5706 82.9327 28.6675 82.8507 28.7323C78.5995 32.1078 76.8964 38.0073 78.6116 43.4122L83.0381 57.356C83.9552 57.1486 84.8673 57.0439 85.7502 57.0439Z" fill="#090909"/>
<path d="M126.695 37.1273C125.21 36.3356 123.723 35.4456 122.058 35.2019C117.947 34.6012 114.182 38.0529 110.03 37.9404C107.042 37.8591 104.226 35.7043 103.365 32.8433C105.81 45.4424 102.857 58.9978 95.391 69.4378C95.5285 65.7552 94.3684 62.389 92.577 59.223C92.2293 58.6087 91.8758 58.0038 91.5224 57.4009H85.7505C84.7308 57.4009 83.7453 57.5413 82.7975 57.7793C77.4917 59.1111 73.5276 63.921 73.5276 69.6238V70.8167C73.5276 77.5392 79.028 83.0403 85.7505 83.0403H89.012L85.7462 123.846C84.7913 135.777 93.6886 146.223 105.619 147.178L107.727 147.346C119.658 148.301 130.104 139.404 131.058 127.473L132.289 112.102C143.073 111.923 151.763 103.14 151.763 92.3138V44.5524C151.763 42.4745 151.425 40.48 150.828 38.5995C149.865 39.1831 148.847 39.6676 147.791 40.0303C140.884 42.4025 133.14 40.5634 126.695 37.1273Z" fill="white"/>
<path d="M109.493 147.772C108.897 147.772 108.299 147.749 107.699 147.7L105.591 147.531C99.7262 147.062 94.3946 144.337 90.5795 139.858C86.7643 135.378 84.9216 129.681 85.3912 123.816L88.6256 83.395H85.7503C78.8141 83.395 73.1711 77.752 73.1711 70.8158V69.6229C73.1711 63.8553 77.0939 58.8423 82.7105 57.4328C83.7401 57.1741 84.7634 57.0437 85.751 57.0437H91.5229C91.6498 57.0437 91.7666 57.1107 91.8308 57.2197C92.1849 57.8233 92.5391 58.4304 92.8875 59.0461C94.7053 62.2584 95.6466 65.2975 95.7493 68.2982C102.643 58.1154 105.358 44.9755 103.015 32.9093C102.979 32.7233 103.095 32.5409 103.28 32.4953C103.467 32.4497 103.652 32.5573 103.707 32.7383C104.528 35.4675 107.192 37.5048 110.04 37.5817C111.938 37.6337 113.78 36.9012 115.578 36.1936C117.673 35.3684 119.839 34.5162 122.111 34.8475C123.645 35.0713 125.02 35.8145 126.349 36.5335L126.865 36.8107C131.137 39.0895 139.523 42.4935 147.678 39.6924C148.689 39.3454 149.687 38.8751 150.644 38.2943C150.74 38.2373 150.853 38.228 150.955 38.2651C151.057 38.3036 151.136 38.3869 151.169 38.491C151.802 40.4776 152.121 42.5163 152.121 44.5515V92.3122C152.121 103.131 143.404 112.096 132.622 112.449L131.417 127.499C130.948 133.365 128.223 138.695 123.743 142.511C119.72 145.937 114.717 147.772 109.493 147.772ZM85.7503 57.7563C84.8204 57.7563 83.857 57.8803 82.8836 58.124C77.5849 59.4544 73.883 64.1824 73.883 69.6229V70.8158C73.883 77.3594 79.2067 82.6824 85.7496 82.6824H89.0111C89.1109 82.6824 89.2049 82.7237 89.2726 82.7971C89.3403 82.8698 89.3745 82.9681 89.366 83.0672L86.1002 123.873C85.6463 129.548 87.4292 135.061 91.121 139.395C94.8136 143.729 99.972 146.366 105.648 146.82L107.756 146.989C113.429 147.447 118.943 145.661 123.278 141.969C127.612 138.277 130.249 133.118 130.703 127.442L131.934 112.072C131.948 111.89 132.099 111.748 132.283 111.744C142.827 111.569 151.406 102.852 151.406 92.3122V44.5522C151.406 42.7365 151.141 40.9166 150.619 39.1359C149.739 39.6382 148.828 40.0515 147.907 40.3679C139.497 43.2546 130.902 39.7736 126.527 37.4413L126.008 37.1613C124.733 36.4722 123.415 35.7597 122.006 35.5537C119.921 35.2509 117.938 36.0311 115.837 36.8577C113.973 37.5917 112.036 38.3477 110.019 38.2957C107.686 38.2323 105.465 36.9789 104.104 35.1055C105.781 47.0754 102.704 59.8228 95.6801 69.6436C95.5889 69.7718 95.425 69.8239 95.2761 69.7733C95.1272 69.7227 95.0288 69.5802 95.0345 69.4227C95.1564 66.1819 94.25 62.9019 92.2662 59.396C91.9541 58.8437 91.6362 58.2979 91.3184 57.7549H85.7503V57.7563Z" fill="#090909"/>
<path d="M91.9125 83.069L88.0632 93.5981L85.6504 83.0312L91.9125 83.069Z" fill="#090909"/>
<path d="M88.0632 93.9545C88.0554 93.9545 88.0482 93.9538 88.0411 93.9538C87.8829 93.9438 87.7511 93.8312 87.7162 93.6773L85.3034 83.1097C85.2791 83.0035 85.3048 82.8924 85.3732 82.8076C85.4416 82.7228 85.5706 82.68 85.6532 82.6743L91.9154 82.7121C92.0315 82.7128 92.1391 82.7698 92.2061 82.8653C92.2724 82.9608 92.2874 83.0819 92.2482 83.1909L88.3988 93.72C88.3461 93.8618 88.2121 93.9545 88.0632 93.9545ZM86.0979 83.3905L88.1423 92.3447L91.4038 83.4225L86.0979 83.3905Z" fill="#090909"/>
<path d="M84.0515 66.292L88.5344 71.2801L84.3401 74.0149" fill="white"/>
<path d="M84.3402 74.371C84.2241 74.371 84.11 74.314 84.0416 74.2093C83.9347 74.0447 83.9804 73.8238 84.1457 73.7162L87.9915 71.2086L83.7865 66.5298C83.6547 66.3837 83.6668 66.1586 83.8136 66.0267C83.959 65.8956 84.1849 65.907 84.3167 66.0538L88.7995 71.0426C88.8694 71.1195 88.9014 71.2236 88.8879 71.3269C88.8736 71.4302 88.8159 71.5221 88.729 71.5792L84.5347 74.314C84.4749 74.3525 84.4072 74.371 84.3402 74.371Z" fill="#090909"/>
<path d="M132.189 76.2916H128.763C128.566 76.2916 128.407 76.132 128.407 75.9353C128.407 75.7387 128.566 75.5791 128.763 75.5791H132.189C133.318 75.5791 134.381 75.0831 135.106 74.2187C135.833 73.3544 136.136 72.2207 135.941 71.109L133.824 59.085C133.79 58.8918 133.92 58.7066 134.113 58.6724C134.301 58.6367 134.492 58.7671 134.526 58.9617L136.642 70.9858C136.874 72.3055 136.514 73.6508 135.652 74.6769C134.791 75.703 133.529 76.2916 132.189 76.2916Z" fill="#090909"/>
<path d="M143.398 65.3993C143.643 66.7525 142.744 68.0486 141.392 68.2931C140.038 68.5382 138.743 67.6403 138.498 66.2871C138.253 64.934 139.151 63.6385 140.504 63.3926C141.857 63.1482 143.152 64.0461 143.398 65.3993Z" fill="#090909"/>
<path d="M130.023 99.041C129.912 99.0709 129.79 99.0631 129.676 99.0125C129.561 98.9605 126.819 97.7569 124.784 99.911C124.588 100.119 124.26 100.128 124.051 99.9317C123.843 99.7357 123.833 99.4072 124.03 99.1992C126.585 96.4985 130.072 98.0541 130.108 98.0697C130.366 98.1887 130.48 98.4951 130.361 98.7552C130.295 98.902 130.168 99.0025 130.023 99.041Z" fill="#090909"/>
<path d="M110.067 56.1843C111.307 56.3254 112.687 55.7589 114.051 55.2871C115.415 54.7834 116.797 54.3116 118.013 53.9439C119.23 53.5748 120.643 53.1986 122.057 52.8608C123.454 52.4953 124.923 52.1981 125.862 51.3972C126.772 50.639 126.814 49.2445 125.105 48.063C123.484 46.9001 119.946 46.1732 115.913 47.3846C111.892 48.6138 109.402 51.1677 108.745 53.0204C108.029 54.938 108.874 56.0631 110.067 56.1843Z" fill="#090909"/>
<path d="M148.601 54.1498C147.676 54.3251 146.654 53.9161 145.641 53.5854C144.629 53.2284 143.604 52.8992 142.701 52.6484C141.798 52.3968 140.749 52.1489 139.698 51.9322C138.661 51.6921 137.57 51.5125 136.877 50.8869C136.204 50.2969 136.182 49.1361 137.46 48.0708C138.674 47.0261 141.312 46.2565 144.305 47.0803C147.291 47.9197 149.128 49.9349 149.605 51.4498C150.126 53.0161 149.489 53.9937 148.601 54.1498Z" fill="#090909"/>
<path d="M121.722 66.2621C121.61 67.7628 120.301 68.8873 118.801 68.7747C117.3 68.6621 116.175 67.3538 116.288 65.8538C116.401 64.3531 117.708 63.2287 119.209 63.3413C120.71 63.4539 121.835 64.7614 121.722 66.2621Z" fill="#090909"/>
<path d="M116.194 68.9146C116.194 68.9146 118.627 67.1659 120.987 69.2502L116.194 68.9146Z" fill="white"/>
<path d="M120.987 69.6066C120.903 69.6066 120.819 69.5766 120.751 69.5168C118.642 67.6541 116.492 69.1398 116.401 69.2039C116.241 69.318 116.019 69.2802 115.905 69.1213C115.791 68.961 115.827 68.7393 115.986 68.6253C116.012 68.6061 118.681 66.737 121.223 68.9838C121.37 69.1142 121.385 69.3393 121.254 69.4868C121.184 69.5659 121.085 69.6066 120.987 69.6066Z" fill="#090909"/>
<path d="M139.01 68.739C139.01 68.739 141.214 67.7521 143.247 68.7825L139.01 68.739Z" fill="white"/>
<path d="M143.247 69.1388C143.192 69.1388 143.137 69.1267 143.085 69.1004C141.227 68.1583 139.176 69.0547 139.155 69.0647C138.975 69.1438 138.764 69.0647 138.685 68.8852C138.604 68.7049 138.685 68.4947 138.864 68.4141C138.96 68.3707 141.245 67.3688 143.408 68.4655C143.583 68.5538 143.653 68.769 143.564 68.9443C143.502 69.0676 143.376 69.1388 143.247 69.1388Z" fill="#090909"/>
<path d="M115.461 76.8445C116.405 76.2174 117.659 76.3713 118.495 77.1366C120.018 78.5304 123.33 81.0038 128.077 81.4869C129.242 81.6059 129.844 82.9613 129.344 84.0201C128.244 86.3489 125.298 89.9396 119.166 87.0643C111.695 83.5605 113.002 78.4798 115.461 76.8445Z" fill="#FFF9F3"/>
<path d="M123.353 88.4805C122.121 88.4805 120.682 88.1691 119.014 87.3867C114.199 85.1286 113.299 82.3559 113.19 80.9037C113.062 79.1799 113.877 77.4697 115.263 76.5469H115.264C116.325 75.8401 117.754 75.9747 118.735 76.8733C120.251 78.2614 123.485 80.6607 128.113 81.1324C128.733 81.1958 129.271 81.5557 129.589 82.12C129.945 82.7514 129.974 83.5188 129.665 84.1723C129.1 85.3708 127.25 88.4805 123.353 88.4805ZM115.66 77.1412C114.765 77.7348 113.77 79.0638 113.902 80.8509C114.068 83.0899 115.992 85.182 119.317 86.7418C125.489 89.6363 128.16 85.6958 129.022 83.8687C129.229 83.4298 129.209 82.8946 128.97 82.4706C128.764 82.1051 128.434 81.882 128.041 81.8421C123.21 81.3497 119.835 78.8472 118.255 77.3999C117.515 76.7222 116.448 76.6161 115.66 77.1412Z" fill="#090909"/>
<path d="M132.161 112.216C132.161 112.216 109.891 113.653 104.394 104.631C104.394 104.631 109.345 119.508 131.164 124.681L132.161 112.216Z" fill="#090909"/>
<path d="M131.164 125.037C131.137 125.037 131.109 125.034 131.082 125.027C109.321 119.868 104.106 104.894 104.056 104.743C103.999 104.572 104.079 104.384 104.245 104.308C104.406 104.234 104.605 104.291 104.699 104.446C110.021 113.18 131.918 111.876 132.139 111.86C132.243 111.855 132.343 111.891 132.417 111.965C132.489 112.039 132.526 112.141 132.518 112.244L131.52 124.709C131.512 124.813 131.459 124.907 131.375 124.969C131.312 125.014 131.239 125.037 131.164 125.037ZM105.907 106.99C108.356 111.369 115.145 120.39 130.842 124.237L131.774 112.594C128.905 112.736 112.779 113.236 105.907 106.99Z" fill="#090909"/>
<path d="M6.90967 266.23L8.89207 214.918L62.761 216.648C62.7418 216.959 67.8888 178.532 67.8652 178.843L62.761 216.648L55.5889 216.426L54.8706 233.498C54.8706 233.498 103.708 208.524 107.888 203.489C107.888 203.489 122.023 189.394 127.666 185.568C128.271 185.157 128.898 184.753 129.606 184.569C130.314 184.385 131.125 184.454 131.689 184.919C132.423 185.524 132.546 186.594 132.504 187.545C132.374 190.495 131.206 193.264 130.041 195.997C130.384 195.887 166.077 184.062 168.043 183.567C171.424 182.715 171.261 187.383 168.865 189.916C165.807 193.149 151.593 200.636 150.82 200.816C154.251 200.689 157.532 199.995 158.353 205.583C158.92 209.44 155.507 210.512 152.043 210.912C154.228 210.992 156.103 211.722 156.304 214.319C157.165 218.709 153.517 220.49 149.88 220.94C149.771 220.953 149.754 221.097 149.855 221.137C152.84 222.306 150.775 227.793 146.382 229.388L121.83 239.741C119.311 240.878 53.573 290.884 53.573 290.884C45.9591 296.216 37.1188 297.404 29.1764 295.379C15.9901 292.016 6.9624 279.837 6.90967 266.23Z" fill="white"/>
<path d="M36.6037 296.679C34.1097 296.679 31.5921 296.364 29.0867 295.724C15.874 292.355 6.60762 280.227 6.55347 266.232C6.55347 266.227 6.55347 266.221 6.55347 266.216L8.53515 214.903C8.54299 214.708 8.6905 214.562 8.90285 214.561L62.4511 216.281L67.3102 180.259C67.3637 179.866 67.4057 179.56 67.4413 179.319L67.5126 178.795L67.5354 178.799C67.6181 178.457 67.7029 178.468 67.9031 178.486C68.0948 178.506 68.2359 178.678 68.2209 178.87L66.1509 194.204C66.0561 194.907 65.9606 195.613 65.8665 196.317L63.3618 214.909C63.292 215.422 63.2393 215.811 63.1944 216.106L63.1146 216.696C63.1039 216.776 63.0675 216.847 63.0134 216.9C62.945 217.027 62.863 217.019 62.7269 217.004C62.7226 217.004 62.7184 217.004 62.7141 217.003L55.9303 216.793L55.2526 232.903C60.6241 230.144 103.764 207.9 107.614 203.261C107.778 203.096 121.86 189.073 127.466 185.273C128.117 184.832 128.764 184.42 129.516 184.224C130.416 183.992 131.312 184.148 131.916 184.645C132.612 185.22 132.92 186.174 132.86 187.56C132.737 190.337 131.73 192.919 130.676 195.413C130.887 195.343 131.141 195.259 131.434 195.162C160.177 185.656 167.159 183.422 167.954 183.222C169.568 182.811 170.305 183.594 170.599 184.095C171.482 185.603 170.807 188.381 169.123 190.161C166.637 192.79 156.693 198.322 152.61 200.378C155.361 200.286 157.988 200.652 158.705 205.532C158.9 206.86 158.657 207.98 157.98 208.86C157.115 209.985 155.642 210.579 154.192 210.916C155.714 211.449 156.525 212.566 156.659 214.291C156.974 215.89 156.718 217.3 155.891 218.441C154.668 220.128 152.494 220.866 150.658 221.184C151.291 221.677 151.626 222.443 151.614 223.401C151.586 225.607 149.667 228.574 146.503 229.722L121.967 240.07C120.011 240.952 76.5132 273.88 53.7869 291.168C48.59 294.808 42.6713 296.679 36.6037 296.679ZM7.26605 266.236C7.32234 279.904 16.3664 291.745 29.2634 295.034C37.6555 297.175 46.2178 295.598 53.3672 290.594C56.0415 288.56 119.155 240.557 121.682 239.417L146.243 229.06C149.095 228.024 150.877 225.314 150.901 223.393C150.909 222.729 150.712 221.857 149.724 221.47C149.528 221.392 149.409 221.193 149.434 220.985C149.46 220.777 149.625 220.614 149.833 220.586C152.401 220.269 154.346 219.359 155.314 218.023C156.02 217.048 156.236 215.826 155.954 214.388C155.792 212.338 154.546 211.36 152.028 211.268C151.842 211.261 151.693 211.112 151.685 210.926C151.678 210.74 151.816 210.58 152 210.558C154.828 210.231 156.548 209.554 157.415 208.426C157.977 207.695 158.168 206.782 157.999 205.635C157.296 200.844 154.835 200.968 151.709 201.132C151.419 201.147 151.126 201.162 150.831 201.174C150.637 201.169 150.49 201.046 150.465 200.864C150.44 200.683 150.558 200.512 150.736 200.47C151.67 200.217 165.638 192.808 168.604 189.672C170.172 188.015 170.626 185.551 169.983 184.456C169.641 183.872 169.015 183.691 168.128 183.913C167.344 184.111 160.38 186.341 131.656 195.839C130.73 196.146 130.188 196.324 130.148 196.337C130.016 196.381 129.87 196.342 129.776 196.238C129.682 196.135 129.656 195.987 129.711 195.858C130.845 193.198 132.018 190.446 132.147 187.529C132.197 186.381 131.973 185.617 131.461 185.195C131.034 184.843 130.373 184.739 129.695 184.914C129.052 185.081 128.462 185.458 127.865 185.863C122.314 189.626 108.28 203.601 108.139 203.742C103.982 208.75 57.0284 232.795 55.0317 233.816C54.9199 233.872 54.7845 233.868 54.6776 233.799C54.5707 233.731 54.5087 233.61 54.5137 233.484L55.2177 216.763L9.23348 215.286L7.26605 266.236Z" fill="#090909"/>
<path d="M54.9699 224.688L33.792 244.65L54.8708 233.873L54.9699 224.688Z" fill="#090909"/>
<path d="M129.731 196.453L116.451 202.644C116.451 202.644 128.902 192.759 131.406 191.969L129.731 196.453Z" fill="#090909"/>
<path d="M143.417 203.1C143.417 203.1 151.492 200.423 152.893 200.362L143.417 203.1Z" fill="white"/>
<path d="M143.417 203.456C143.268 203.456 143.129 203.361 143.079 203.212C143.017 203.025 143.119 202.823 143.305 202.761C143.636 202.652 151.443 200.069 152.877 200.006C153.068 199.997 153.239 200.15 153.249 200.346C153.257 200.542 153.105 200.709 152.908 200.718C151.799 200.766 145.762 202.697 143.529 203.438C143.492 203.451 143.454 203.456 143.417 203.456Z" fill="#090909"/>
<path d="M145.265 213.498C145.113 213.498 144.973 213.401 144.924 213.248C144.866 213.06 144.971 212.86 145.158 212.801L152.657 210.461C152.849 210.402 153.045 210.507 153.104 210.694C153.163 210.882 153.057 211.082 152.87 211.141L145.371 213.482C145.336 213.493 145.3 213.498 145.265 213.498Z" fill="#090909"/>
<path d="M145.299 222.522C145.144 222.522 145.002 222.42 144.957 222.265C144.903 222.075 145.012 221.878 145.201 221.824L149.268 220.653C149.461 220.597 149.655 220.708 149.709 220.897C149.764 221.086 149.655 221.283 149.466 221.338L145.398 222.509C145.365 222.518 145.332 222.522 145.299 222.522Z" fill="#090909"/>
</svg>
