<svg width="758" height="398" viewBox="0 0 758 398" fill="none" xmlns="http://www.w3.org/2000/svg">
<path d="M340.511 201.286H329.517C329.371 200.157 329.07 199.138 328.616 198.23C328.162 197.321 327.561 196.544 326.813 195.899C326.065 195.254 325.179 194.763 324.153 194.426C323.141 194.074 322.02 193.898 320.789 193.898C318.605 193.898 316.721 194.433 315.138 195.503C313.57 196.573 312.361 198.12 311.511 200.143C310.675 202.165 310.257 204.613 310.257 207.486C310.257 210.476 310.682 212.983 311.532 215.005C312.397 217.013 313.607 218.53 315.16 219.556C316.729 220.568 318.583 221.074 320.723 221.074C321.925 221.074 323.017 220.92 323.999 220.612C324.995 220.304 325.868 219.857 326.615 219.271C327.377 218.67 328 217.944 328.484 217.094C328.982 216.229 329.327 215.254 329.517 214.17L340.511 214.236C340.32 216.229 339.741 218.193 338.774 220.128C337.821 222.063 336.509 223.829 334.838 225.427C333.167 227.01 331.13 228.27 328.726 229.208C326.337 230.147 323.596 230.616 320.503 230.616C316.428 230.616 312.778 229.722 309.554 227.933C306.344 226.13 303.808 223.507 301.946 220.062C300.085 216.618 299.154 212.426 299.154 207.486C299.154 202.532 300.1 198.332 301.99 194.888C303.881 191.443 306.439 188.827 309.664 187.039C312.888 185.25 316.501 184.356 320.503 184.356C323.229 184.356 325.75 184.737 328.066 185.5C330.382 186.247 332.42 187.346 334.178 188.798C335.937 190.234 337.366 192 338.466 194.096C339.565 196.192 340.247 198.589 340.511 201.286ZM389.238 207.486C389.238 212.44 388.285 216.64 386.38 220.084C384.474 223.529 381.894 226.145 378.64 227.933C375.401 229.722 371.766 230.616 367.735 230.616C363.69 230.616 360.047 229.714 356.808 227.911C353.569 226.108 350.996 223.492 349.091 220.062C347.2 216.618 346.254 212.426 346.254 207.486C346.254 202.532 347.2 198.332 349.091 194.888C350.996 191.443 353.569 188.827 356.808 187.039C360.047 185.25 363.69 184.356 367.735 184.356C371.766 184.356 375.401 185.25 378.64 187.039C381.894 188.827 384.474 191.443 386.38 194.888C388.285 198.332 389.238 202.532 389.238 207.486ZM378.113 207.486C378.113 204.554 377.695 202.077 376.859 200.055C376.039 198.032 374.851 196.5 373.298 195.459C371.759 194.419 369.904 193.898 367.735 193.898C365.58 193.898 363.726 194.419 362.173 195.459C360.619 196.5 359.424 198.032 358.589 200.055C357.768 202.077 357.358 204.554 357.358 207.486C357.358 210.417 357.768 212.895 358.589 214.917C359.424 216.94 360.619 218.472 362.173 219.513C363.726 220.553 365.58 221.074 367.735 221.074C369.904 221.074 371.759 220.553 373.298 219.513C374.851 218.472 376.039 216.94 376.859 214.917C377.695 212.895 378.113 210.417 378.113 207.486ZM395.592 184.972H409.07L420.502 212.851H421.03L432.463 184.972H445.941V230H435.343V202.341H434.969L424.152 229.714H417.38L406.563 202.187H406.189V230H395.592V184.972ZM463.612 184.972V230H452.729V184.972H463.612ZM508.767 184.972V230H499.532L481.614 204.012H481.328V230H470.444V184.972H479.811L497.532 210.916H497.905V184.972H508.767ZM545.16 199.681C544.91 198.757 544.544 197.944 544.06 197.24C543.577 196.522 542.983 195.914 542.279 195.415C541.576 194.917 540.77 194.543 539.861 194.294C538.952 194.03 537.955 193.898 536.871 193.898C534.687 193.898 532.796 194.426 531.198 195.481C529.615 196.537 528.391 198.076 527.527 200.099C526.662 202.107 526.229 204.547 526.229 207.42C526.229 210.308 526.647 212.77 527.483 214.807C528.318 216.845 529.527 218.399 531.11 219.469C532.693 220.539 534.613 221.074 536.871 221.074C538.864 221.074 540.55 220.751 541.928 220.106C543.32 219.447 544.375 218.516 545.094 217.314C545.812 216.112 546.171 214.697 546.171 213.07L548.194 213.312H537.245V205.375H556.658V211.334C556.658 215.364 555.801 218.816 554.086 221.689C552.386 224.562 550.041 226.768 547.05 228.307C544.075 229.846 540.652 230.616 536.783 230.616C532.488 230.616 528.714 229.685 525.46 227.823C522.206 225.962 519.67 223.309 517.853 219.864C516.035 216.405 515.126 212.301 515.126 207.552C515.126 203.858 515.676 200.582 516.775 197.724C517.875 194.851 519.406 192.418 521.37 190.425C523.349 188.431 525.636 186.921 528.23 185.895C530.839 184.869 533.646 184.356 536.651 184.356C539.26 184.356 541.686 184.73 543.928 185.478C546.186 186.225 548.179 187.28 549.909 188.644C551.653 190.007 553.067 191.626 554.152 193.503C555.237 195.379 555.911 197.438 556.175 199.681H545.16ZM600.714 198.472C600.567 196.859 599.915 195.606 598.757 194.712C597.614 193.803 595.979 193.349 593.854 193.349C592.447 193.349 591.274 193.532 590.336 193.898C589.398 194.265 588.694 194.771 588.225 195.415C587.756 196.046 587.515 196.771 587.5 197.592C587.471 198.266 587.602 198.86 587.896 199.373C588.203 199.886 588.643 200.34 589.215 200.736C589.801 201.117 590.505 201.454 591.325 201.748C592.146 202.041 593.07 202.297 594.096 202.517L597.965 203.396C600.193 203.88 602.157 204.525 603.858 205.331C605.573 206.137 607.009 207.098 608.167 208.212C609.34 209.325 610.226 210.608 610.827 212.059C611.428 213.51 611.736 215.137 611.751 216.94C611.736 219.784 611.018 222.224 609.596 224.262C608.174 226.299 606.13 227.86 603.462 228.945C600.809 230.029 597.606 230.572 593.854 230.572C590.087 230.572 586.804 230.007 584.004 228.879C581.204 227.75 579.028 226.035 577.474 223.734C575.92 221.433 575.122 218.523 575.078 215.005H585.499C585.587 216.456 585.975 217.666 586.664 218.633C587.353 219.6 588.299 220.333 589.501 220.832C590.717 221.33 592.124 221.579 593.722 221.579C595.188 221.579 596.434 221.381 597.46 220.986C598.5 220.59 599.299 220.04 599.856 219.337C600.413 218.633 600.699 217.827 600.714 216.918C600.699 216.068 600.435 215.342 599.922 214.741C599.409 214.126 598.618 213.598 597.548 213.158C596.492 212.704 595.144 212.286 593.502 211.905L588.797 210.806C584.898 209.912 581.827 208.468 579.585 206.475C577.342 204.467 576.228 201.755 576.243 198.34C576.228 195.555 576.976 193.114 578.485 191.018C579.995 188.922 582.084 187.288 584.752 186.115C587.419 184.943 590.461 184.356 593.876 184.356C597.364 184.356 600.391 184.95 602.956 186.137C605.536 187.31 607.537 188.959 608.959 191.084C610.38 193.209 611.106 195.672 611.135 198.472H600.714ZM659.747 207.486C659.747 212.44 658.794 216.64 656.889 220.084C654.983 223.529 652.404 226.145 649.15 227.933C645.91 229.722 642.275 230.616 638.244 230.616C634.199 230.616 630.556 229.714 627.317 227.911C624.078 226.108 621.505 223.492 619.6 220.062C617.709 216.618 616.764 212.426 616.764 207.486C616.764 202.532 617.709 198.332 619.6 194.888C621.505 191.443 624.078 188.827 627.317 187.039C630.556 185.25 634.199 184.356 638.244 184.356C642.275 184.356 645.91 185.25 649.15 187.039C652.404 188.827 654.983 191.443 656.889 194.888C658.794 198.332 659.747 202.532 659.747 207.486ZM648.622 207.486C648.622 204.554 648.204 202.077 647.369 200.055C646.548 198.032 645.361 196.5 643.807 195.459C642.268 194.419 640.414 193.898 638.244 193.898C636.09 193.898 634.236 194.419 632.682 195.459C631.128 196.5 629.934 198.032 629.098 200.055C628.277 202.077 627.867 204.554 627.867 207.486C627.867 210.417 628.277 212.895 629.098 214.917C629.934 216.94 631.128 218.472 632.682 219.513C634.236 220.553 636.09 221.074 638.244 221.074C640.414 221.074 642.268 220.553 643.807 219.513C645.361 218.472 646.548 216.94 647.369 214.917C648.204 212.895 648.622 210.417 648.622 207.486ZM708.601 207.486C708.601 212.44 707.648 216.64 705.743 220.084C703.837 223.529 701.257 226.145 698.003 227.933C694.764 229.722 691.129 230.616 687.098 230.616C683.053 230.616 679.41 229.714 676.171 227.911C672.932 226.108 670.359 223.492 668.454 220.062C666.563 216.618 665.617 212.426 665.617 207.486C665.617 202.532 666.563 198.332 668.454 194.888C670.359 191.443 672.932 188.827 676.171 187.039C679.41 185.25 683.053 184.356 687.098 184.356C691.129 184.356 694.764 185.25 698.003 187.039C701.257 188.827 703.837 191.443 705.743 194.888C707.648 198.332 708.601 202.532 708.601 207.486ZM697.476 207.486C697.476 204.554 697.058 202.077 696.222 200.055C695.402 198.032 694.214 196.5 692.661 195.459C691.122 194.419 689.267 193.898 687.098 193.898C684.943 193.898 683.089 194.419 681.536 195.459C679.982 196.5 678.787 198.032 677.952 200.055C677.131 202.077 676.721 204.554 676.721 207.486C676.721 210.417 677.131 212.895 677.952 214.917C678.787 216.94 679.982 218.472 681.536 219.513C683.089 220.553 684.943 221.074 687.098 221.074C689.267 221.074 691.122 220.553 692.661 219.513C694.214 218.472 695.402 216.94 696.222 214.917C697.058 212.895 697.476 210.417 697.476 207.486ZM753.277 184.972V230H744.043L726.124 204.012H725.838V230H714.955V184.972H724.321L742.042 210.916H742.416V184.972H753.277Z" fill="#090909"/>
<path d="M162.23 314H33.2305V398H162.23V314Z" fill="#090909"/>
<path d="M185.347 202.902C188.805 202.992 191.117 199.371 189.582 196.272L165.438 147.551C164.926 146.323 164.338 145.135 163.676 143.995L163.672 143.988V143.989C158.694 135.425 149.647 129.478 139.072 128.884L70.6783 125.038L70.6562 125.008L70.1474 125.018L70.0377 125.014C69.9636 125.014 69.8916 125.023 69.8168 125.024L58.4853 125.24C38.6841 125.617 20.8361 138.438 15.3635 157.472C15.1426 158.239 14.9417 159.016 14.76 159.801L0.577468 207.921C-0.395917 211.223 1.97555 214.566 5.41375 214.74L39.4844 216.457L28.5178 307.482C28.0881 311.049 30.8728 314.19 34.4664 314.19H163.534C166.453 314.19 168.808 311.802 168.765 308.883L168.717 202.432L185.347 202.902Z" fill="#535AB4"/>
<path d="M163.533 314.545H34.4652C32.6503 314.545 30.9187 313.766 29.7152 312.409C28.5123 311.051 27.9466 309.24 28.1632 307.438L39.0835 216.792L5.3941 215.094C3.64614 215.006 2.06207 214.136 1.04949 212.708C0.0362031 211.28 -0.260944 209.498 0.235012 207.818L14.4168 159.699C14.5935 158.931 14.798 158.141 15.0196 157.372C20.4089 138.626 38.2797 125.266 58.4771 124.882L69.8962 124.662C69.9425 124.659 69.9888 124.656 70.0359 124.656L70.1591 124.66L70.648 124.65C70.6993 124.644 70.7634 124.663 70.8147 124.688L139.09 128.526C149.451 129.108 158.756 134.821 163.98 143.808C164.645 144.954 165.244 146.164 165.766 147.412L189.9 196.113C190.678 197.681 190.579 199.498 189.637 200.973C188.695 202.448 187.072 203.315 185.338 203.256H185.336L169.072 202.795L169.12 308.879C169.142 310.381 168.571 311.803 167.513 312.877C166.455 313.953 165.041 314.545 163.533 314.545ZM70.0237 125.368L69.9475 125.373C69.9047 125.376 69.8627 125.379 69.8192 125.38L58.4913 125.596C38.6032 125.974 21.0082 139.122 15.7044 157.569C15.4864 158.327 15.2854 159.105 15.1059 159.881L0.918377 208.021C0.48584 209.49 0.745222 211.048 1.63096 212.297C2.51599 213.546 3.90195 214.306 5.43044 214.384L39.5011 216.101C39.6001 216.106 39.692 216.152 39.7554 216.227C39.8189 216.303 39.8481 216.401 39.836 216.499L28.8694 307.524C28.6762 309.124 29.1793 310.732 30.2482 311.936C31.3164 313.142 32.8534 313.833 34.4645 313.833H163.532C164.848 313.833 166.082 313.316 167.005 312.38C167.929 311.442 168.427 310.202 168.408 308.887L168.36 202.431C168.36 202.335 168.399 202.242 168.467 202.176C168.537 202.108 168.624 202.07 168.726 202.075L185.356 202.546C186.856 202.608 188.229 201.854 189.036 200.592C189.843 199.329 189.927 197.774 189.261 196.43L165.118 147.709C164.598 146.468 164.012 145.286 163.366 144.173C158.26 135.388 149.17 129.808 139.049 129.238L70.6558 125.393C70.6145 125.391 70.5746 125.381 70.5368 125.366L70.1527 125.373L70.0237 125.368Z" fill="#090909"/>
<path d="M205.843 158.817C210.024 151.154 211.449 141.892 207.691 133.767L202.879 135.52C202.879 135.52 198.273 122.252 197.529 112.563C195.68 109.267 182.301 116.22 182.301 116.22C182.301 116.22 183.629 112.603 184.293 110.795C184.997 108.878 185.712 106.835 185.291 104.837C184.869 102.839 182.819 101.042 180.878 101.677C178.969 102.302 175.351 110.218 174.211 112.081C167.348 123.295 167.432 137.965 168.638 150.643C169.28 157.4 166.223 226.98 167.389 230.07C174.434 248.722 200.684 249.101 208.258 230.657C209.221 227.028 209.773 223.318 209.914 219.597C210.104 214.566 201.766 169.563 201.637 168.036C201.456 165.894 202.471 164.01 203.646 162.217C204.404 161.061 205.229 159.942 205.843 158.817Z" fill="white"/>
<path d="M187.969 244.633C187.854 244.633 187.739 244.632 187.623 244.631C178.249 244.497 170.368 238.966 167.056 230.196C166.436 228.553 166.879 211.678 167.624 186.122C168.111 169.446 168.57 153.696 168.283 150.677C167.149 138.753 166.763 123.568 173.908 111.895C174.182 111.447 174.617 110.612 175.123 109.645C177.266 105.54 179.31 101.815 180.769 101.339C181.613 101.06 182.551 101.181 183.407 101.676C184.519 102.317 185.374 103.5 185.64 104.763C186.096 106.921 185.283 109.137 184.629 110.918L182.949 115.492C186.086 113.931 196.092 109.27 197.841 112.389C197.866 112.434 197.882 112.484 197.886 112.536C198.552 121.209 202.381 132.92 203.1 135.061L207.57 133.432C207.742 133.368 207.938 133.449 208.015 133.617C211.509 141.172 210.832 150.419 206.157 158.988C205.721 159.789 205.171 160.598 204.639 161.379C204.407 161.721 204.173 162.065 203.945 162.413C202.656 164.38 201.832 166.084 201.994 168.006C202.027 168.395 202.651 171.929 203.515 176.821C205.926 190.47 210.412 215.877 210.272 219.61C210.13 223.367 209.569 227.115 208.605 230.748C205.072 239.353 197.192 244.633 187.969 244.633ZM181.694 101.902C181.47 101.902 181.234 101.935 180.989 102.015C179.687 102.441 177.128 107.341 175.753 109.974C175.221 110.993 174.8 111.799 174.515 112.266C167.481 123.76 167.868 138.795 168.992 150.609C169.283 153.671 168.823 169.443 168.336 186.141C167.759 205.907 167.105 228.31 167.722 229.944C170.929 238.433 178.558 243.789 187.633 243.917C196.712 244.015 204.482 238.913 207.928 230.521C208.865 226.982 209.418 223.287 209.557 219.582C209.696 215.924 205.218 190.567 202.811 176.943C201.912 171.85 201.318 168.486 201.282 168.064C201.092 165.814 202.162 163.83 203.347 162.021C203.577 161.67 203.812 161.323 204.047 160.977C204.593 160.174 205.109 159.416 205.529 158.646C210.033 150.39 210.745 141.506 207.502 134.214L203 135.855C202.912 135.886 202.812 135.883 202.725 135.842C202.639 135.8 202.573 135.727 202.541 135.637C202.496 135.503 197.939 122.291 197.18 112.674C195.827 110.621 187.469 113.935 182.464 116.535C182.335 116.602 182.175 116.584 182.065 116.487C181.954 116.389 181.915 116.234 181.965 116.096L183.958 110.671C184.58 108.976 185.355 106.868 184.941 104.909C184.719 103.855 183.976 102.827 183.049 102.292C182.711 102.096 182.238 101.902 181.694 101.902Z" fill="#090909"/>
<path d="M179.646 123.655L192.1 136.066L201.406 117.988L199.42 109.776L182.509 116.057L179.646 123.655Z" fill="#090909"/>
<path d="M199.405 142.395C196.073 142.97 192.906 140.736 192.331 137.404L186.706 104.824C186.131 101.492 188.366 98.3244 191.698 97.7494C195.03 97.1743 198.197 99.409 198.773 102.741L204.397 135.321C204.972 138.653 202.737 141.82 199.405 142.395Z" fill="#8E89D0"/>
<path d="M198.35 142.843C197.026 142.843 195.734 142.436 194.629 141.656C193.216 140.658 192.274 139.17 191.979 137.465L186.355 104.885C186.06 103.18 186.448 101.462 187.446 100.048C188.443 98.6347 189.931 97.6934 191.637 97.3991C193.342 97.1041 195.06 97.4917 196.474 98.4893C197.888 99.487 198.829 100.976 199.124 102.681L204.748 135.261C205.355 138.781 202.985 142.139 199.466 142.746C199.094 142.81 198.72 142.843 198.35 142.843ZM192.752 98.0155C192.422 98.0155 192.09 98.044 191.759 98.101C190.241 98.3632 188.917 99.2005 188.029 100.459C187.141 101.717 186.797 103.247 187.059 104.764L192.683 137.344C192.945 138.861 193.783 140.186 195.041 141.074C196.3 141.962 197.827 142.307 199.347 142.044C202.479 141.504 204.588 138.515 204.047 135.382L198.423 102.802C198.162 101.284 197.324 99.9594 196.066 99.0715C195.08 98.3775 193.931 98.0155 192.752 98.0155Z" fill="#090909"/>
<path d="M198.445 102.872L187.157 104.821C184.793 105.229 182.546 103.643 182.137 101.279L181.703 98.7629C181.294 96.3992 182.88 94.1518 185.244 93.7435L196.532 91.7946C198.897 91.3862 201.143 92.9717 201.552 95.3361L201.986 97.8522C202.395 100.216 200.809 102.463 198.445 102.872Z" fill="#FFF9F3"/>
<path d="M186.415 105.239C184.172 105.239 182.181 103.623 181.786 101.339L181.352 98.8226C180.911 96.2687 182.631 93.8324 185.184 93.3913L196.472 91.4431C199.026 91.002 201.462 92.7207 201.904 95.2746L202.338 97.7907C202.778 100.345 201.059 102.781 198.505 103.221L187.217 105.17C186.948 105.217 186.68 105.239 186.415 105.239ZM197.274 92.0865C197.05 92.0865 196.822 92.1058 196.594 92.145L185.305 94.0932C183.139 94.4673 181.68 96.5345 182.055 98.7007L182.489 101.217C182.863 103.383 184.929 104.84 187.096 104.468L198.385 102.519C200.551 102.145 202.01 100.078 201.635 97.9119L201.201 95.3958C200.866 93.4583 199.177 92.0865 197.274 92.0865Z" fill="#090909"/>
<path d="M167.93 87.8111L164.641 88.3791C163.035 88.6562 161.507 87.5788 161.23 85.972L161.126 85.3663C160.848 83.7594 161.926 82.2323 163.533 81.9551L166.821 81.3872L167.93 87.8111Z" fill="white"/>
<path d="M164.132 88.7787C163.455 88.7787 162.796 88.5706 162.231 88.1723C161.509 87.6628 161.028 86.9025 160.879 86.0317L160.774 85.4267C160.464 83.6289 161.674 81.913 163.471 81.603L166.76 81.0351C166.852 81.0187 166.949 81.0408 167.025 81.0949C167.102 81.1498 167.155 81.2325 167.172 81.3258L168.281 87.7504C168.297 87.8431 168.275 87.9393 168.22 88.0162C168.166 88.0932 168.084 88.1459 167.99 88.1623L164.702 88.7295C164.512 88.7623 164.321 88.7787 164.132 88.7787ZM166.53 81.7983L163.592 82.3056C162.182 82.5493 161.233 83.8947 161.476 85.3056L161.581 85.9106C161.699 86.5946 162.075 87.1903 162.642 87.5901C163.209 87.9906 163.898 88.1452 164.581 88.0269L167.518 87.5203L166.53 81.7983Z" fill="#090909"/>
<path d="M201.671 96.0278L184.422 99.0057C175.994 100.461 167.983 94.8079 166.528 86.3809L165.979 83.2035C164.524 74.7758 170.176 66.765 178.604 65.3099L195.854 62.332L201.671 96.0278Z" fill="#8E89D0"/>
<path d="M181.78 99.5893C174.218 99.5893 167.507 94.1417 166.177 86.4415L165.629 83.2641C164.144 74.6569 169.937 66.4451 178.544 64.9593L195.794 61.9815C195.985 61.9494 196.172 62.0777 196.206 62.2722L202.022 95.9673C202.038 96.0599 202.017 96.1561 201.962 96.2331C201.908 96.31 201.825 96.3628 201.732 96.3792L184.483 99.357C183.575 99.5138 182.672 99.5893 181.78 99.5893ZM195.564 62.7446L178.665 65.662C170.445 67.0807 164.912 74.9234 166.331 83.1437L166.879 86.3211C168.297 94.5407 176.136 100.074 184.36 98.6551L201.258 95.7378L195.564 62.7446Z" fill="#090909"/>
<path d="M195.854 62.3327L201.671 96.0278C215.025 93.7226 228.786 95.7007 241.089 101.695L268.321 114.963L252.299 22.1475L231.091 43.7771C221.509 53.5495 209.208 60.0275 195.854 62.3327Z" fill="white" stroke="#090909" stroke-miterlimit="10" stroke-linecap="round" stroke-linejoin="round"/>
<path d="M269.366 115.014C275.615 113.935 277.078 92.1832 272.632 66.4293C268.187 40.6754 259.516 20.6723 253.266 21.7512C247.017 22.83 245.554 44.5823 250 70.3362C254.445 96.0901 263.116 116.093 269.366 115.014Z" fill="#FFF9F3" stroke="#090909" stroke-miterlimit="10" stroke-linecap="round" stroke-linejoin="round"/>
<path d="M267.785 104.97C272.808 104.103 273.983 86.621 270.41 65.9229C266.838 45.2248 259.869 29.1485 254.847 30.0155C249.824 30.8826 248.648 48.3646 252.221 69.0627C255.794 89.7609 262.762 105.837 267.785 104.97Z" fill="white"/>
<mask id="mask0_1350_24979" style="mask-type:luminance" maskUnits="userSpaceOnUse" x="250" y="29" width="23" height="77">
<path d="M267.785 104.971C272.808 104.104 273.983 86.6215 270.41 65.9234C266.838 45.2253 259.869 29.149 254.847 30.016C249.824 30.8831 248.648 48.3651 252.221 69.0632C255.794 89.7614 262.762 105.838 267.785 104.971Z" fill="white"/>
</mask>
<g mask="url(#mask0_1350_24979)">
<path d="M241.943 62.5299L254.019 60.4456C258.951 59.5941 263.64 62.9019 264.491 67.8344C265.343 72.7661 262.035 77.4549 257.102 78.3065L245.026 80.3915L241.943 62.5299Z" fill="#8E89D0" stroke="#090909" stroke-miterlimit="10" stroke-linecap="round" stroke-linejoin="round"/>
</g>
<path d="M267.785 104.97C272.808 104.103 273.983 86.621 270.41 65.9229C266.838 45.2248 259.869 29.1485 254.847 30.0155C249.824 30.8826 248.648 48.3646 252.221 69.0627C255.794 89.7609 262.762 105.837 267.785 104.97Z" stroke="#090909" stroke-width="0.999974" stroke-miterlimit="10" stroke-linecap="round" stroke-linejoin="round"/>
<path d="M205.066 95.8918C204.896 95.8918 204.744 95.7685 204.715 95.5939L199.069 61.6708C199.037 61.477 199.168 61.2931 199.362 61.261C199.553 61.2275 199.739 61.3601 199.771 61.5539L205.418 95.477C205.45 95.6708 205.319 95.8547 205.125 95.8868C205.106 95.8903 205.086 95.8918 205.066 95.8918Z" fill="#090909"/>
<path d="M211.908 115.715L211.951 115.853C212.637 118.014 211.431 120.344 209.269 121.03L196.968 124.937C194.806 125.623 192.476 124.417 191.79 122.255L191.746 122.118C191.06 119.956 192.266 117.626 194.428 116.94L206.729 113.033C208.891 112.347 211.221 113.554 211.908 115.715Z" fill="white"/>
<path d="M195.723 125.488C195.015 125.488 194.311 125.318 193.661 124.982C192.596 124.43 191.81 123.5 191.45 122.364L191.406 122.227C190.658 119.872 191.965 117.349 194.32 116.601L206.622 112.695C208.977 111.946 211.499 113.254 212.247 115.608L212.291 115.746C213.038 118.1 211.731 120.624 209.377 121.372L197.075 125.278C196.632 125.418 196.177 125.488 195.723 125.488ZM207.975 113.196C207.598 113.196 207.215 113.253 206.837 113.373L194.535 117.279C192.555 117.908 191.456 120.03 192.085 122.01L192.129 122.148C192.432 123.103 193.092 123.884 193.989 124.348C194.886 124.813 195.905 124.901 196.859 124.598L209.161 120.692C211.141 120.063 212.24 117.941 211.612 115.961L211.568 115.824C211.059 114.221 209.572 113.196 207.975 113.196Z" fill="#090909"/>
<path d="M209.479 107.407L209.522 107.545C210.208 109.706 209.002 112.036 206.84 112.723L194.539 116.63C192.377 117.317 190.047 116.11 189.36 113.948L189.316 113.81C188.63 111.649 189.836 109.319 191.998 108.632L204.3 104.725C206.462 104.039 208.792 105.246 209.479 107.407Z" fill="white"/>
<path d="M193.295 117.18C192.587 117.181 191.884 117.01 191.234 116.673C190.169 116.122 189.383 115.192 189.022 114.056L188.978 113.918C188.617 112.782 188.723 111.57 189.275 110.504C189.826 109.439 190.756 108.654 191.892 108.293L204.194 104.386C206.548 103.637 209.072 104.946 209.819 107.299L209.863 107.437C210.224 108.573 210.119 109.785 209.567 110.851C209.016 111.916 208.086 112.701 206.949 113.063L194.648 116.97C194.204 117.111 193.748 117.18 193.295 117.18ZM205.546 104.888C205.169 104.888 204.786 104.945 204.408 105.065L192.107 108.972C191.152 109.275 190.371 109.935 189.906 110.832C189.442 111.728 189.353 112.747 189.656 113.702L189.7 113.84C190.003 114.795 190.664 115.576 191.56 116.04C192.458 116.505 193.477 116.593 194.43 116.291L206.732 112.384C207.687 112.081 208.468 111.419 208.932 110.524C209.397 109.627 209.485 108.608 209.182 107.653L209.139 107.516C208.63 105.913 207.144 104.888 205.546 104.888Z" fill="#090909"/>
<path d="M211.951 124.235L211.963 124.272C212.642 126.407 211.449 128.708 209.315 129.386L200.923 132.051C198.789 132.729 196.487 131.537 195.81 129.402L195.798 129.365C195.12 127.231 196.312 124.93 198.446 124.252L206.837 121.587C208.971 120.909 211.273 122.1 211.951 124.235Z" fill="white"/>
<path d="M199.693 132.598C197.815 132.598 196.067 131.393 195.47 129.51C194.719 127.145 196.011 124.651 198.338 123.912L206.728 121.247C207.851 120.89 209.051 120.995 210.102 121.54C211.156 122.085 211.932 123.005 212.289 124.128L212.301 124.163C212.658 125.288 212.554 126.486 212.009 127.539C211.463 128.592 210.544 129.368 209.421 129.725L201.03 132.39C200.587 132.531 200.136 132.598 199.693 132.598ZM208.064 121.752C207.689 121.752 207.311 121.81 206.944 121.926L198.554 124.591C196.602 125.211 195.517 127.304 196.137 129.257C196.769 131.246 198.863 132.33 200.815 131.711L209.206 129.046C210.147 128.747 210.918 128.095 211.377 127.211C211.835 126.327 211.922 125.321 211.622 124.38L211.61 124.343C211.311 123.401 210.66 122.63 209.775 122.172C209.237 121.894 208.652 121.752 208.064 121.752Z" fill="#090909"/>
<path d="M214.243 132.113L214.287 132.251C214.973 134.412 213.766 136.742 211.604 137.428L207.45 138.748C205.289 139.434 202.959 138.228 202.272 136.066L202.228 135.928C201.542 133.767 202.748 131.437 204.91 130.751L209.064 129.431C211.227 128.745 213.556 129.952 214.243 132.113Z" fill="white"/>
<path d="M206.207 139.298C205.499 139.298 204.795 139.128 204.145 138.792C203.079 138.24 202.293 137.31 201.934 136.174L201.89 136.036C201.529 134.9 201.634 133.688 202.187 132.622C202.738 131.557 203.667 130.772 204.804 130.41L208.957 129.091C211.313 128.342 213.836 129.65 214.584 132.004L214.585 132.006L214.628 132.143C214.989 133.278 214.883 134.491 214.332 135.556C213.78 136.621 212.851 137.407 211.714 137.768L207.56 139.087C207.115 139.229 206.661 139.298 206.207 139.298ZM210.311 129.594C209.934 129.594 209.551 129.651 209.173 129.771L205.019 131.091C204.064 131.394 203.282 132.055 202.819 132.951C202.354 133.847 202.266 134.867 202.568 135.821L202.612 135.959C202.915 136.914 203.576 137.695 204.472 138.16C205.37 138.624 206.389 138.713 207.342 138.41L211.496 137.09C212.451 136.787 213.232 136.126 213.697 135.23C214.161 134.334 214.249 133.315 213.946 132.36L213.903 132.222C213.395 130.619 211.908 129.594 210.311 129.594Z" fill="#090909"/>
<path d="M182.113 116.92C182.113 116.92 183.628 112.602 184.293 110.795C184.997 108.878 185.712 106.835 185.291 104.837C184.87 102.839 182.82 101.042 180.879 101.677C178.969 102.302 175.351 110.218 174.211 112.081" fill="white"/>
<path d="M182.449 117.037L181.777 116.802C181.777 116.802 183.294 112.481 183.959 110.671C184.581 108.976 185.356 106.868 184.943 104.909C184.72 103.855 183.978 102.827 183.051 102.292C182.572 102.015 181.826 101.743 180.99 102.015C179.687 102.441 177.128 107.341 175.754 109.974C175.222 110.993 174.801 111.799 174.515 112.266C174.411 112.434 174.19 112.485 174.025 112.384C173.857 112.281 173.804 112.062 173.907 111.893C174.181 111.446 174.617 110.611 175.122 109.644C177.265 105.539 179.31 101.814 180.768 101.337C181.613 101.059 182.55 101.18 183.406 101.674C184.518 102.316 185.373 103.498 185.64 104.762C186.095 106.92 185.282 109.136 184.628 110.916C183.964 112.724 182.449 117.037 182.449 117.037Z" fill="#090909"/>
<path d="M178.742 128.803C178.74 128.803 178.739 128.803 178.737 128.803C178.541 128.801 178.383 128.639 178.385 128.443C178.429 124.523 181.65 117.092 181.786 116.777C181.866 116.597 182.076 116.516 182.255 116.592C182.436 116.671 182.518 116.881 182.439 117.061C182.406 117.137 179.14 124.675 179.098 128.451C179.096 128.646 178.936 128.803 178.742 128.803Z" fill="#090909"/>
<path d="M154.128 35.7099C154.294 35.4825 154.442 35.2438 154.543 34.978C156.465 32.804 157.744 30.027 158.032 26.9145C158.757 19.101 153.01 12.179 145.197 11.4543C144.537 11.393 143.888 11.3938 143.245 11.423C136.354 5.47293 131.549 -0.964526 119.469 0.590325C114.812 1.1896 110.484 3.58957 107.835 7.46673C107.467 8.00615 107.143 8.58619 106.848 9.18262C106.611 9.6629 100.449 10.3541 99.6299 10.5814C93.8729 12.1747 86.5091 14.5462 83.636 20.2483C82.3655 22.7701 81.9643 25.6126 81.8588 28.4536C77.5171 31.9004 75.7484 37.9994 77.5014 43.5205L82.0277 57.7792C82.9754 57.5412 83.9616 57.4008 84.9806 57.4008H90.7525C91.106 58.0029 91.4594 58.6086 91.8072 59.2229C93.5986 62.3889 94.7587 65.7558 94.6211 69.4377C102.087 58.9984 137.822 61.7205 145.753 61.7205C153.684 61.7205 160.114 55.2909 160.114 47.3598C160.113 42.557 157.747 38.3172 154.128 35.7099Z" fill="#090909"/>
<path d="M94.6205 69.7934C94.582 69.7934 94.5435 69.7869 94.5057 69.7741C94.3568 69.7235 94.2585 69.581 94.2642 69.4235C94.386 66.1827 93.4796 62.9027 91.4958 59.3968C91.1837 58.8446 90.8659 58.2987 90.5481 57.7557H84.9807C84.0508 57.7557 83.0873 57.8797 82.114 58.1234C81.9301 58.169 81.7448 58.065 81.6871 57.8854L77.1608 43.626C75.3737 37.9952 77.1202 31.8492 81.5083 28.2756C81.5981 26.0787 81.8959 22.907 83.3175 20.0859C86.0759 14.6104 92.7421 12.1157 99.5344 10.2359C99.8244 10.1554 100.657 10.0328 101.711 9.87745C103.251 9.65084 106.088 9.23185 106.557 8.96748C106.882 8.31476 107.204 7.7568 107.541 7.2637C110.16 3.43215 114.49 0.870426 119.424 0.234804C129.967 -1.12124 135.174 3.62241 140.681 8.64682C141.55 9.43849 142.446 10.2565 143.372 11.0596C144.068 11.034 144.664 11.0454 145.229 11.0981C149.103 11.4572 152.605 13.3035 155.09 16.2971C157.575 19.2906 158.746 23.0723 158.387 26.9466C158.103 30.0114 156.881 32.8525 154.851 35.1662C154.789 35.3187 154.712 35.4691 154.615 35.6258C158.287 38.4042 160.47 42.7645 160.47 47.3585C160.47 55.4733 153.868 62.0754 145.753 62.0754C144.703 62.0754 143.199 62.0291 141.292 61.9699C129.32 61.598 101.284 60.7329 94.9105 69.6437C94.8421 69.7399 94.7331 69.7934 94.6205 69.7934ZM84.9807 57.0439H90.7526C90.8794 57.0439 90.9963 57.1109 91.0604 57.2199C91.4146 57.8234 91.7687 58.4305 92.1172 59.0462C93.9599 62.3027 94.9026 65.3818 94.9832 68.4231C102.557 60.0609 128.599 60.8654 141.315 61.2581C143.215 61.3172 144.715 61.3628 145.754 61.3628C153.476 61.3628 159.758 55.0807 159.758 47.3585C159.758 42.8778 157.576 38.6315 153.921 35.9985C153.844 35.9429 153.792 35.8588 153.777 35.7648C153.763 35.6714 153.786 35.5752 153.842 35.499C154.015 35.2624 154.133 35.0558 154.212 34.8498C154.227 34.8099 154.25 34.7736 154.278 34.7415C156.231 32.5332 157.407 29.8155 157.679 26.881C158.02 23.197 156.907 19.5999 154.544 16.7531C152.181 13.9064 148.849 12.1506 145.165 11.8093C144.594 11.7558 143.989 11.7473 143.263 11.7786C143.169 11.7864 143.084 11.7522 143.013 11.6924C142.043 10.8537 141.106 10 140.202 9.17484C134.586 4.0521 129.739 -0.373028 119.516 0.943821C114.784 1.55236 110.635 4.00364 108.131 7.66773C107.803 8.14659 107.489 8.69385 107.169 9.34016C106.984 9.71355 106.222 9.93374 101.815 10.5836C100.868 10.7233 99.9734 10.8551 99.7261 10.9242C93.0913 12.7605 86.589 15.1798 83.9546 20.408C82.8935 22.5144 82.3406 25.0747 82.2159 28.4665C82.2116 28.5706 82.1631 28.6675 82.0812 28.7323C77.8299 32.1078 76.1269 38.0073 77.842 43.4122L82.2686 57.356C83.1857 57.1486 84.0978 57.0439 84.9807 57.0439Z" fill="#090909"/>
<path d="M125.926 37.1273C124.441 36.3356 122.953 35.4456 121.288 35.2019C117.177 34.6012 113.412 38.0529 109.26 37.9404C106.273 37.8591 103.456 35.7043 102.595 32.8433C105.041 45.4424 102.087 58.9978 94.6212 69.4378C94.7587 65.7552 93.5987 62.389 91.8072 59.223C91.4595 58.6087 91.106 58.0038 90.7526 57.4009H84.9807C83.961 57.4009 82.9755 57.5413 82.0278 57.7793C76.7219 59.1111 72.7578 63.921 72.7578 69.6238V70.8167C72.7578 77.5392 78.2582 83.0403 84.9807 83.0403H88.2422L84.9764 123.846C84.0216 135.777 92.9189 146.223 104.85 147.178L106.957 147.346C118.888 148.301 129.334 139.404 130.289 127.473L131.519 112.102C142.303 111.923 150.993 103.14 150.993 92.3138V44.5524C150.993 42.4745 150.655 40.48 150.058 38.5995C149.095 39.1831 148.077 39.6676 147.022 40.0303C140.114 42.4025 132.37 40.5634 125.926 37.1273Z" fill="white"/>
<path d="M108.723 147.772C108.127 147.772 107.529 147.749 106.929 147.7L104.821 147.531C98.9564 147.062 93.6249 144.337 89.8097 139.858C85.9945 135.378 84.1518 129.681 84.6214 123.816L87.8558 83.395H84.9806C78.0443 83.395 72.4014 77.752 72.4014 70.8158V69.6229C72.4014 63.8553 76.3241 58.8423 81.9407 57.4328C82.9704 57.1741 83.9936 57.0437 84.9813 57.0437H90.7532C90.88 57.0437 90.9969 57.1107 91.061 57.2197C91.4151 57.8233 91.7693 58.4304 92.1178 59.0461C93.9355 62.2584 94.8769 65.2975 94.9795 68.2982C101.874 58.1154 104.588 44.9755 102.246 32.9093C102.209 32.7233 102.325 32.5409 102.51 32.4953C102.697 32.4497 102.883 32.5573 102.937 32.7383C103.758 35.4675 106.422 37.5048 109.27 37.5817C111.168 37.6337 113.01 36.9012 114.808 36.1936C116.903 35.3684 119.069 34.5162 121.341 34.8475C122.876 35.0713 124.25 35.8145 125.579 36.5335L126.095 36.8107C130.368 39.0895 138.753 42.4935 146.908 39.6924C147.919 39.3454 148.917 38.8751 149.875 38.2943C149.97 38.2373 150.083 38.228 150.185 38.2651C150.287 38.3036 150.366 38.3869 150.4 38.491C151.032 40.4776 151.352 42.5163 151.352 44.5515V92.3122C151.352 103.131 142.634 112.096 131.852 112.449L130.647 127.499C130.178 133.365 127.453 138.695 122.973 142.511C118.95 145.937 113.947 147.772 108.723 147.772ZM84.9806 57.7563C84.0506 57.7563 83.0872 57.8803 82.1138 58.124C76.8151 59.4544 73.1132 64.1824 73.1132 69.6229V70.8158C73.1132 77.3594 78.4369 82.6824 84.9798 82.6824H88.2413C88.3411 82.6824 88.4351 82.7237 88.5028 82.7971C88.5705 82.8698 88.6047 82.9681 88.5962 83.0672L85.3304 123.873C84.8765 129.548 86.6594 135.061 90.3513 139.395C94.0439 143.729 99.2022 146.366 104.878 146.82L106.986 146.989C112.659 147.447 118.173 145.661 122.508 141.969C126.842 138.277 129.479 133.118 129.934 127.442L131.164 112.072C131.179 111.89 131.33 111.748 131.513 111.744C142.058 111.569 150.636 102.852 150.636 92.3122V44.5522C150.636 42.7365 150.371 40.9166 149.849 39.1359C148.969 39.6382 148.058 40.0515 147.137 40.3679C138.728 43.2546 130.133 39.7736 125.757 37.4413L125.238 37.1613C123.964 36.4722 122.645 35.7597 121.237 35.5537C119.151 35.2509 117.168 36.0311 115.067 36.8577C113.203 37.5917 111.266 38.3477 109.25 38.2957C106.917 38.2323 104.696 36.9789 103.334 35.1055C105.011 47.0754 101.934 59.8228 94.9104 69.6436C94.8192 69.7718 94.6553 69.8239 94.5063 69.7733C94.3574 69.7227 94.2591 69.5802 94.2648 69.4227C94.3866 66.1819 93.4802 62.9019 91.4964 59.396C91.1843 58.8437 90.8665 58.2979 90.5487 57.7549H84.9806V57.7563Z" fill="#090909"/>
<path d="M91.143 83.069L87.2937 93.5981L84.8809 83.0312L91.143 83.069Z" fill="#090909"/>
<path d="M87.2937 93.9545C87.2858 93.9545 87.2787 93.9538 87.2716 93.9538C87.1134 93.9438 86.9815 93.8312 86.9466 93.6773L84.5338 83.1097C84.5096 83.0035 84.5353 82.8924 84.6037 82.8076C84.6721 82.7228 84.801 82.68 84.8837 82.6743L91.1459 82.7121C91.262 82.7128 91.3696 82.7698 91.4366 82.8653C91.5029 82.9608 91.5178 83.0819 91.4786 83.1909L87.6293 93.72C87.5765 93.8618 87.4426 93.9545 87.2937 93.9545ZM85.3284 83.3905L87.3728 92.3447L90.6342 83.4225L85.3284 83.3905Z" fill="#090909"/>
<path d="M83.2817 66.292L87.7646 71.2801L83.5703 74.0149" fill="white"/>
<path d="M83.5704 74.371C83.4543 74.371 83.3403 74.314 83.2719 74.2093C83.165 74.0447 83.2106 73.8238 83.3759 73.7162L87.2217 71.2086L83.0167 66.5298C82.8849 66.3837 82.897 66.1586 83.0438 66.0267C83.1892 65.8956 83.4151 65.907 83.5469 66.0538L88.0298 71.0426C88.0996 71.1195 88.1317 71.2236 88.1181 71.3269C88.1039 71.4302 88.0461 71.5221 87.9592 71.5792L83.765 74.314C83.7051 74.3525 83.6374 74.371 83.5704 74.371Z" fill="#090909"/>
<path d="M131.419 76.2916H127.993C127.796 76.2916 127.637 76.132 127.637 75.9353C127.637 75.7387 127.796 75.5791 127.993 75.5791H131.419C132.548 75.5791 133.611 75.0831 134.336 74.2187C135.063 73.3544 135.366 72.2207 135.171 71.109L133.054 59.085C133.02 58.8918 133.15 58.7066 133.343 58.6724C133.531 58.6367 133.722 58.7671 133.756 58.9617L135.872 70.9858C136.104 72.3055 135.744 73.6508 134.882 74.6769C134.021 75.703 132.759 76.2916 131.419 76.2916Z" fill="#090909"/>
<path d="M142.628 65.3993C142.873 66.7525 141.974 68.0486 140.622 68.2931C139.268 68.5382 137.973 67.6403 137.728 66.2871C137.483 64.934 138.381 63.6385 139.734 63.3926C141.087 63.1482 142.382 64.0461 142.628 65.3993Z" fill="#090909"/>
<path d="M129.253 99.041C129.142 99.0709 129.02 99.0631 128.906 99.0125C128.791 98.9605 126.049 97.7569 124.014 99.911C123.818 100.119 123.49 100.128 123.281 99.9317C123.073 99.7357 123.063 99.4072 123.26 99.1992C125.815 96.4985 129.302 98.0541 129.338 98.0697C129.596 98.1887 129.71 98.4951 129.591 98.7552C129.525 98.902 129.398 99.0025 129.253 99.041Z" fill="#090909"/>
<path d="M109.297 56.1843C110.537 56.3254 111.917 55.7589 113.281 55.2871C114.645 54.7834 116.027 54.3116 117.243 53.9439C118.46 53.5748 119.873 53.1986 121.287 52.8608C122.684 52.4953 124.153 52.1981 125.092 51.3972C126.002 50.639 126.044 49.2445 124.335 48.063C122.714 46.9001 119.176 46.1732 115.143 47.3846C111.121 48.6138 108.632 51.1677 107.975 53.0204C107.259 54.938 108.104 56.0631 109.297 56.1843Z" fill="#090909"/>
<path d="M147.831 54.1498C146.906 54.3251 145.884 53.9161 144.871 53.5854C143.859 53.2284 142.834 52.8992 141.931 52.6484C141.028 52.3968 139.979 52.1489 138.928 51.9322C137.891 51.6921 136.8 51.5125 136.107 50.8869C135.434 50.2969 135.412 49.1361 136.69 48.0708C137.904 47.0261 140.542 46.2565 143.535 47.0803C146.521 47.9197 148.358 49.9349 148.835 51.4498C149.356 53.0161 148.719 53.9937 147.831 54.1498Z" fill="#090909"/>
<path d="M120.952 66.2621C120.84 67.7628 119.531 68.8873 118.031 68.7747C116.53 68.6621 115.405 67.3538 115.518 65.8538C115.631 64.3531 116.938 63.2287 118.439 63.3413C119.94 63.4539 121.065 64.7614 120.952 66.2621Z" fill="#090909"/>
<path d="M115.424 68.9146C115.424 68.9146 117.857 67.1659 120.217 69.2502L115.424 68.9146Z" fill="white"/>
<path d="M120.217 69.6066C120.133 69.6066 120.049 69.5766 119.981 69.5168C117.872 67.6541 115.722 69.1398 115.631 69.2039C115.471 69.318 115.249 69.2802 115.135 69.1213C115.021 68.961 115.057 68.7393 115.216 68.6253C115.242 68.6061 117.911 66.737 120.453 68.9838C120.6 69.1142 120.615 69.3393 120.484 69.4868C120.414 69.5659 120.315 69.6066 120.217 69.6066Z" fill="#090909"/>
<path d="M138.24 68.739C138.24 68.739 140.444 67.7521 142.477 68.7825L138.24 68.739Z" fill="white"/>
<path d="M142.476 69.1388C142.422 69.1388 142.367 69.1267 142.315 69.1004C140.457 68.1583 138.406 69.0547 138.385 69.0647C138.205 69.1438 137.994 69.0647 137.915 68.8852C137.834 68.7049 137.915 68.4947 138.094 68.4141C138.19 68.3707 140.475 67.3688 142.638 68.4655C142.813 68.5538 142.883 68.769 142.794 68.9443C142.732 69.0676 142.606 69.1388 142.476 69.1388Z" fill="#090909"/>
<path d="M114.691 76.8445C115.635 76.2174 116.889 76.3713 117.725 77.1366C119.248 78.5304 122.56 81.0038 127.307 81.4869C128.472 81.6059 129.074 82.9613 128.574 84.0201C127.474 86.3489 124.528 89.9396 118.396 87.0643C110.925 83.5605 112.232 78.4798 114.691 76.8445Z" fill="#FFF9F3"/>
<path d="M122.583 88.4805C121.35 88.4805 119.912 88.1691 118.244 87.3867C113.429 85.1286 112.529 82.3559 112.42 80.9037C112.292 79.1799 113.107 77.4697 114.493 76.5469H114.494C115.555 75.8401 116.984 75.9747 117.965 76.8733C119.481 78.2614 122.715 80.6607 127.343 81.1324C127.963 81.1958 128.501 81.5557 128.819 82.12C129.175 82.7514 129.204 83.5188 128.895 84.1723C128.33 85.3708 126.48 88.4805 122.583 88.4805ZM114.89 77.1412C113.995 77.7348 113 79.0638 113.132 80.8509C113.298 83.0899 115.222 85.182 118.547 86.7418C124.719 89.6363 127.39 85.6958 128.252 83.8687C128.459 83.4298 128.439 82.8946 128.2 82.4706C127.994 82.1051 127.664 81.882 127.271 81.8421C122.44 81.3497 119.065 78.8472 117.485 77.3999C116.745 76.7222 115.678 76.6161 114.89 77.1412Z" fill="#090909"/>
<path d="M131.391 112.216C131.391 112.216 109.121 113.653 103.624 104.631C103.624 104.631 108.575 119.508 130.394 124.681L131.391 112.216Z" fill="#090909"/>
<path d="M130.394 125.037C130.367 125.037 130.339 125.034 130.312 125.027C108.551 119.868 103.336 104.894 103.286 104.743C103.229 104.572 103.309 104.384 103.475 104.308C103.636 104.234 103.834 104.291 103.929 104.446C109.251 113.18 131.148 111.876 131.369 111.86C131.473 111.855 131.573 111.891 131.647 111.965C131.719 112.039 131.756 112.141 131.748 112.244L130.75 124.709C130.742 124.813 130.689 124.907 130.605 124.969C130.542 125.014 130.469 125.037 130.394 125.037ZM105.137 106.99C107.586 111.369 114.375 120.39 130.072 124.237L131.004 112.594C128.135 112.736 112.009 113.236 105.137 106.99Z" fill="#090909"/>
<path d="M6.14014 266.23L8.12253 214.918L61.9915 216.648C61.9723 216.959 67.1192 178.532 67.0957 178.843L61.9915 216.648L54.8194 216.426L54.1011 233.498C54.1011 233.498 102.939 208.524 107.119 203.489C107.119 203.489 121.253 189.394 126.896 185.568C127.501 185.157 128.129 184.753 128.837 184.569C129.544 184.385 130.356 184.454 130.919 184.919C131.653 185.524 131.777 186.594 131.735 187.545C131.604 190.495 130.436 193.264 129.271 195.997C129.614 195.887 165.308 184.062 167.273 183.567C170.654 182.715 170.492 187.383 168.095 189.916C165.037 193.149 150.823 200.636 150.05 200.816C153.481 200.689 156.763 199.995 157.583 205.583C158.15 209.44 154.737 210.512 151.274 210.912C153.458 210.992 155.334 211.722 155.535 214.319C156.396 218.709 152.748 220.49 149.11 220.94C149.001 220.953 148.984 221.097 149.086 221.137C152.07 222.306 150.006 227.793 145.613 229.388L121.061 239.741C118.541 240.878 52.8035 290.884 52.8035 290.884C45.1896 296.216 36.3493 297.404 28.4069 295.379C15.2206 292.016 6.19287 279.837 6.14014 266.23Z" fill="white"/>
<path d="M35.8339 296.679C33.3399 296.679 30.8223 296.364 28.3169 295.724C15.1042 292.355 5.83785 280.227 5.78369 266.232C5.78369 266.227 5.78369 266.221 5.78369 266.216L7.76538 214.903C7.77322 214.708 7.92072 214.562 8.13307 214.561L61.6814 216.281L66.5405 180.259C66.5939 179.866 66.6359 179.56 66.6716 179.319L66.7428 178.795L66.7656 178.799C66.8483 178.457 66.9331 178.468 67.1333 178.486C67.325 178.506 67.4661 178.678 67.4511 178.87L65.3811 194.204C65.2863 194.907 65.1908 195.613 65.0968 196.317L62.592 214.909C62.5222 215.422 62.4695 215.811 62.4246 216.106L62.3448 216.696C62.3341 216.776 62.2977 216.847 62.2436 216.9C62.1752 217.027 62.0932 217.019 61.9571 217.004C61.9529 217.004 61.9486 217.004 61.9443 217.003L55.1605 216.793L54.4829 232.903C59.8543 230.144 102.994 207.9 106.844 203.261C107.009 203.096 121.09 189.073 126.696 185.273C127.347 184.832 127.994 184.42 128.746 184.224C129.646 183.992 130.542 184.148 131.146 184.645C131.842 185.22 132.151 186.174 132.09 187.56C131.967 190.337 130.961 192.919 129.906 195.413C130.118 195.343 130.371 195.259 130.664 195.162C159.408 185.656 166.389 183.422 167.185 183.222C168.798 182.811 169.535 183.594 169.83 184.095C170.713 185.603 170.037 188.381 168.353 190.161C165.867 192.79 155.924 198.322 151.84 200.378C154.591 200.286 157.218 200.652 157.935 205.532C158.13 206.86 157.887 207.98 157.211 208.86C156.346 209.985 154.873 210.579 153.422 210.916C154.944 211.449 155.755 212.566 155.889 214.291C156.204 215.89 155.949 217.3 155.121 218.441C153.899 220.128 151.724 220.866 149.888 221.184C150.522 221.677 150.856 222.443 150.844 223.401C150.816 225.607 148.897 228.574 145.733 229.722L121.198 240.07C119.241 240.952 75.7434 273.88 53.0171 291.168C47.8203 294.808 41.9016 296.679 35.8339 296.679ZM6.49627 266.236C6.55257 279.904 15.5966 291.745 28.4936 295.034C36.8857 297.175 45.4481 295.598 52.5974 290.594C55.2717 288.56 118.385 240.557 120.912 239.417L145.473 229.06C148.325 228.024 150.108 225.314 150.131 223.393C150.14 222.729 149.942 221.857 148.955 221.47C148.758 221.392 148.639 221.193 148.665 220.985C148.69 220.777 148.855 220.614 149.064 220.586C151.631 220.269 153.576 219.359 154.544 218.023C155.25 217.048 155.466 215.826 155.184 214.388C155.022 212.338 153.777 211.36 151.258 211.268C151.072 211.261 150.923 211.112 150.916 210.926C150.909 210.74 151.046 210.58 151.231 210.558C154.058 210.231 155.778 209.554 156.646 208.426C157.207 207.695 157.398 206.782 157.229 205.635C156.526 200.844 154.065 200.968 150.939 201.132C150.649 201.147 150.356 201.162 150.061 201.174C149.868 201.169 149.72 201.046 149.695 200.864C149.67 200.683 149.788 200.512 149.967 200.47C150.9 200.217 164.868 192.808 167.835 189.672C169.402 188.015 169.856 185.551 169.213 184.456C168.871 183.872 168.246 183.691 167.358 183.913C166.574 184.111 159.611 186.341 130.886 195.839C129.96 196.146 129.419 196.324 129.378 196.337C129.246 196.381 129.1 196.342 129.006 196.238C128.912 196.135 128.886 195.987 128.941 195.858C130.076 193.198 131.248 190.446 131.377 187.529C131.427 186.381 131.204 185.617 130.691 185.195C130.264 184.843 129.603 184.739 128.925 184.914C128.283 185.081 127.692 185.458 127.095 185.863C121.545 189.626 107.51 203.601 107.369 203.742C103.213 208.75 56.2586 232.795 54.262 233.816C54.1501 233.872 54.0147 233.868 53.9078 233.799C53.8009 233.731 53.7389 233.61 53.7439 233.484L54.448 216.763L8.46371 215.286L6.49627 266.236Z" fill="#090909"/>
<path d="M54.1999 224.688L33.022 244.65L54.1008 233.873L54.1999 224.688Z" fill="#090909"/>
<path d="M128.961 196.453L115.681 202.644C115.681 202.644 128.132 192.759 130.636 191.969L128.961 196.453Z" fill="#090909"/>
<path d="M142.648 203.1C142.648 203.1 150.723 200.423 152.124 200.362L142.648 203.1Z" fill="white"/>
<path d="M142.648 203.456C142.498 203.456 142.359 203.361 142.309 203.212C142.247 203.025 142.349 202.823 142.535 202.761C142.866 202.652 150.673 200.069 152.108 200.006C152.298 199.997 152.47 200.15 152.479 200.346C152.488 200.542 152.335 200.709 152.139 200.718C151.03 200.766 144.993 202.697 142.76 203.438C142.722 203.451 142.684 203.456 142.648 203.456Z" fill="#090909"/>
<path d="M144.495 213.498C144.344 213.498 144.203 213.401 144.155 213.248C144.096 213.06 144.201 212.86 144.389 212.801L151.888 210.461C152.079 210.402 152.275 210.507 152.335 210.694C152.393 210.882 152.288 211.082 152.101 211.141L144.602 213.482C144.567 213.493 144.53 213.498 144.495 213.498Z" fill="#090909"/>
<path d="M144.53 222.522C144.374 222.522 144.233 222.42 144.188 222.265C144.134 222.075 144.243 221.878 144.431 221.824L148.499 220.653C148.691 220.597 148.885 220.708 148.94 220.897C148.994 221.086 148.885 221.283 148.696 221.338L144.629 222.509C144.595 222.518 144.563 222.522 144.53 222.522Z" fill="#090909"/>
</svg>
