<svg width="42" height="42" viewBox="0 0 42 42" fill="none" xmlns="http://www.w3.org/2000/svg">
<path d="M22.75 5.25152C22.5829 5.25 22.3952 5.25 22.1808 5.25H14.3503C12.3902 5.25 11.4093 5.25 10.6606 5.63148C10.0021 5.96703 9.46703 6.50208 9.13148 7.16064C8.75 7.90934 8.75 8.89016 8.75 10.8503V31.1503C8.75 33.1105 8.75 34.0901 9.13148 34.8388C9.46703 35.4974 10.0021 36.0333 10.6606 36.3689C11.4086 36.75 12.3883 36.75 14.3446 36.75H27.6554C29.6118 36.75 30.59 36.75 31.3379 36.3689C31.9965 36.0333 32.5333 35.4974 32.8689 34.8388C33.25 34.0908 33.25 33.1126 33.25 31.1563V16.3199C33.25 16.1052 33.25 15.9173 33.2484 15.75M22.75 5.25152C23.2499 5.25607 23.5661 5.27423 23.868 5.34671C24.2251 5.43244 24.5662 5.57421 24.8794 5.76611C25.2325 5.98249 25.5357 6.28568 26.1406 6.89062L31.6102 12.3602C32.2156 12.9656 32.5165 13.2674 32.733 13.6206C32.9249 13.9337 33.0669 14.2752 33.1526 14.6323C33.225 14.9341 33.2436 15.2504 33.2484 15.75M22.75 5.25152V10.15C22.75 12.1102 22.75 13.0896 23.1315 13.8383C23.467 14.4969 24.0021 15.0333 24.6606 15.3689C25.4086 15.75 26.3882 15.75 28.3446 15.75H33.2484M33.2484 15.75H33.2503" stroke="#544A90" stroke-width="3" stroke-linecap="round" stroke-linejoin="round"/>
<path d="M16.9021 27.0876C16.5208 27.0876 16.1686 27.02 15.8453 26.8849C15.522 26.745 15.2421 26.5495 15.0057 26.2986C14.7692 26.0477 14.5834 25.7533 14.4483 25.4156C14.3181 25.0778 14.2529 24.7086 14.2529 24.3081C14.2529 23.9028 14.3181 23.5312 14.4483 23.1935C14.5786 22.8557 14.762 22.5613 14.9984 22.3104C15.2349 22.0595 15.5147 21.8665 15.8381 21.7314C16.1614 21.5914 16.5136 21.5215 16.8948 21.5215C17.2664 21.5215 17.5993 21.5866 17.8937 21.7169C18.1928 21.8472 18.4438 22.0161 18.6464 22.2236C18.8539 22.431 19.0011 22.653 19.088 22.8895L18.451 23.2007C18.3255 22.887 18.1301 22.6385 17.8647 22.4552C17.5993 22.2718 17.276 22.1801 16.8948 22.1801C16.5184 22.1801 16.1831 22.2694 15.8887 22.4479C15.5992 22.6265 15.3724 22.875 15.2083 23.1935C15.0443 23.5119 14.9622 23.8835 14.9622 24.3081C14.9622 24.7279 15.0443 25.0971 15.2083 25.4156C15.3772 25.734 15.6064 25.9825 15.896 26.1611C16.1903 26.3396 16.5257 26.4289 16.9021 26.4289C17.2302 26.4289 17.5269 26.3589 17.7923 26.219C18.0577 26.079 18.2676 25.886 18.4221 25.6399C18.5765 25.3938 18.6537 25.1091 18.6537 24.7858V24.4529L18.9794 24.7569H16.8948V24.1417H19.3702V24.6194C19.3702 24.9957 19.3051 25.3359 19.1748 25.6399C19.0445 25.9439 18.866 26.2045 18.6392 26.4217C18.4124 26.634 18.1494 26.798 17.8502 26.9138C17.5511 27.0297 17.235 27.0876 16.9021 27.0876ZM22.1814 27.0876C21.8388 27.0876 21.5251 27.0248 21.2404 26.8994C20.9557 26.7691 20.7145 26.593 20.5166 26.371C20.3188 26.149 20.1764 25.9005 20.0896 25.6255L20.7048 25.3721C20.8351 25.7196 21.0281 25.9874 21.2839 26.1756C21.5444 26.3589 21.8484 26.4506 22.1959 26.4506C22.4082 26.4506 22.594 26.4168 22.7532 26.3493C22.9124 26.2817 23.0355 26.1876 23.1223 26.067C23.214 25.9415 23.2599 25.7968 23.2599 25.6327C23.2599 25.4059 23.1947 25.2274 23.0644 25.0971C22.939 24.962 22.7532 24.8606 22.5071 24.7931L21.5155 24.4891C21.1246 24.3684 20.8255 24.1778 20.618 23.9173C20.4105 23.6567 20.3067 23.3575 20.3067 23.0197C20.3067 22.7254 20.3767 22.4672 20.5166 22.2453C20.6614 22.0185 20.8592 21.8424 21.1102 21.7169C21.3659 21.5866 21.6554 21.5215 21.9787 21.5215C22.302 21.5215 22.594 21.5794 22.8545 21.6952C23.1199 21.811 23.3443 21.9678 23.5277 22.1657C23.711 22.3587 23.8462 22.5806 23.933 22.8316L23.325 23.0849C23.2092 22.7809 23.0355 22.5517 22.8039 22.3973C22.5723 22.238 22.2996 22.1584 21.986 22.1584C21.7929 22.1584 21.6216 22.1922 21.4721 22.2597C21.3273 22.3225 21.2139 22.4166 21.1319 22.542C21.0547 22.6627 21.0161 22.8074 21.0161 22.9763C21.0161 23.1742 21.0788 23.3503 21.2043 23.5047C21.3297 23.6591 21.5203 23.7773 21.7761 23.8594L22.6808 24.1272C23.1055 24.2575 23.4263 24.4432 23.6435 24.6845C23.8606 24.9258 23.9692 25.225 23.9692 25.582C23.9692 25.8764 23.892 26.137 23.7376 26.3637C23.588 26.5905 23.3781 26.7691 23.1079 26.8994C22.8425 27.0248 22.5336 27.0876 22.1814 27.0876ZM25.9487 27.0007V22.2597H24.4866V21.6083H28.1057V22.2597H26.6653V27.0007H25.9487Z" fill="#544A90"/>
</svg>
