<svg width="945" height="945" viewBox="0 0 945 945" fill="none" xmlns="http://www.w3.org/2000/svg">
<g clip-path="url(#clip0_620_4424)">
<path d="M850.255 707.949C850.178 707.949 850.103 707.958 850.026 707.959L850.693 696.415H791.966L794.797 745.39C795.327 754.57 802.926 761.742 812.121 761.742H830.539C839.734 761.742 847.333 754.569 847.864 745.39L848.517 734.089C849.088 734.143 849.667 734.177 850.255 734.177C858.829 734.177 865.805 728.294 865.805 721.063C865.805 713.832 858.829 707.949 850.255 707.949ZM850.255 728.743C849.771 728.743 849.297 728.709 848.83 728.658L849.712 713.403C849.893 713.395 850.072 713.382 850.256 713.382C855.834 713.382 860.373 716.828 860.373 721.063C860.372 725.298 855.834 728.743 850.255 728.743Z" fill="#8E89D0"/>
<path d="M827.275 691.975C821.515 691.227 816.084 687.887 812.38 683.125C810.534 680.735 809.06 677.978 808.24 674.985C808.006 674.245 807.869 673.486 807.703 672.73C807.6 671.968 807.452 671.206 807.412 670.437C807.249 668.901 807.313 667.359 807.436 665.83C807.739 662.774 808.575 659.776 809.938 657.021C810.615 655.643 811.42 654.325 812.356 653.103C813.269 651.879 814.369 650.716 815.408 649.769C816.444 648.805 817.439 647.975 818.291 647.14C818.724 646.73 819.124 646.321 819.473 645.902C819.828 645.475 820.132 645.054 820.352 644.656C820.848 643.827 821.146 642.799 821.173 641.834C821.205 640.859 820.982 639.974 820.354 639.244L821.834 637.088C822.63 637.486 823.328 638.129 823.855 638.869C824.371 639.62 824.715 640.46 824.923 641.308C825.322 643.016 825.204 644.746 824.69 646.411C823.518 649.746 821.293 651.927 819.634 653.876C818.794 654.859 818.103 655.726 817.487 656.724C817.158 657.2 816.894 657.721 816.599 658.218C816.351 658.744 816.067 659.249 815.853 659.791C814.911 661.914 814.336 664.195 814.076 666.5C813.582 671.14 814.588 675.775 817.058 679.854C819.551 683.909 823.318 687.308 827.968 689.455L827.275 691.975Z" fill="#E5ECFF"/>
<path d="M829.035 678.231C831.399 676.137 833.312 673.879 834.767 671.402C836.231 668.942 837.233 666.298 837.691 663.611C838.144 660.922 838.074 658.115 837.561 655.311C837.036 652.499 836.051 649.732 834.608 646.902L836.513 645.11C839.565 647.057 841.865 650.164 843.208 653.63C844.565 657.104 844.957 661.011 844.261 664.78C843.57 668.55 841.824 672.049 839.367 674.837C836.903 677.608 833.706 679.73 830.205 680.57L829.035 678.231Z" fill="#E5ECFF"/>
<path d="M365.452 773.4C290.456 758.878 237.485 715.181 212.897 647.491C173.784 539.818 215.692 381.093 327.814 346.22C372.219 332.409 426.748 357.141 472.366 356.804C536.44 356.331 594.059 317.012 657.709 322.024C740.574 328.551 801.147 404.892 816.685 482.348C822.018 508.935 822.637 536.451 818.367 563.212C813.727 592.294 804.278 620.788 789.935 645.986C777.577 667.697 749.006 696.442 724.703 702.229C724.701 702.23 365.452 773.4 365.452 773.4Z" stroke="#535AB4" stroke-width="3.8197" stroke-miterlimit="10"/>
<path d="M566.196 761.378C640.314 743.078 696.946 687.808 716.473 624.569C747.533 523.975 693.459 382.445 578.358 358.335C554.977 353.438 530.338 354.677 506.618 357.418C467.872 361.895 428.125 367.525 389.078 366.278C351.104 365.066 314.28 353.903 276.01 354.765C149.528 357.613 73.7795 478.4 102.808 589.007C109.668 615.145 121.307 640.422 137.604 662.368C151.646 681.277 182.483 705.484 207.298 709.098C207.3 709.098 566.196 761.378 566.196 761.378Z" stroke="#535AB4" stroke-width="3.75" stroke-miterlimit="10"/>
<mask id="mask0_620_4424" style="mask-type:luminance" maskUnits="userSpaceOnUse" x="136" y="305" width="632" height="472">
<path d="M752.202 640.698C732.322 698.225 708.579 755.031 625.997 776.967L269.059 773.175C188.628 735.186 144.673 660.177 137.361 579.249C134.94 552.506 136.523 525.101 142.134 498.192C143.598 491.105 145.347 484.052 147.378 477.059C165.818 413.485 204.846 353.548 262.905 319.741C300.209 298.017 348.026 305.188 387.645 316.339C423.366 326.391 458.26 340.472 495.138 344.712C524.516 348.079 554.402 345.09 583.874 346.248C594.423 346.661 604.9 347.606 615.295 349.555C659.817 357.919 699.282 385.217 726.368 421.718C735.7 434.263 743.555 447.894 749.662 462.211C773.512 518.214 772.083 583.171 752.202 640.698Z" fill="white"/>
</mask>
<g mask="url(#mask0_620_4424)">
<path d="M752.202 640.698C732.322 698.225 708.579 755.031 625.997 776.967L269.059 773.175C188.628 735.186 144.673 660.177 137.361 579.249C134.94 552.506 136.523 525.101 142.134 498.192C143.598 491.105 145.347 484.052 147.378 477.059C165.818 413.485 204.846 353.548 262.905 319.741C300.209 298.017 348.026 305.188 387.645 316.339C423.366 326.391 458.26 340.472 495.138 344.712C524.516 348.079 554.402 345.09 583.874 346.248C594.423 346.661 604.9 347.606 615.295 349.555C659.817 357.919 699.282 385.217 726.368 421.718C735.7 434.263 743.555 447.894 749.662 462.211C773.512 518.214 772.083 583.171 752.202 640.698Z" fill="white"/>
<path d="M73.2172 727.808C71.5909 708.045 82.6559 686.736 102.095 672.196C119.799 658.954 141.643 652.203 162.611 646.882C279.119 617.309 402.184 620.838 521.194 624.249C627.552 627.299 737.535 630.451 842.823 610.059C857.811 607.156 873.567 603.625 886.975 595.307C901.378 586.372 910.497 572.374 910.773 558.777C911.289 533.281 883.669 515.808 867.16 507.662C804.462 476.723 727.318 465.086 624.387 471.028C546.927 475.502 469.227 487.976 393.446 508.102C376.416 512.625 359.117 517.626 342.388 522.462C282.493 539.777 220.565 557.679 157.401 557.679C157.083 557.679 156.769 557.679 156.452 557.678C139.306 557.629 117.292 554.158 109.79 537.891C104.495 526.41 108.948 513.331 113.616 504.38C129.218 474.465 158.734 457.03 180.748 447.672C205.478 437.16 232.35 431.446 258.337 425.92C261.422 425.264 264.506 424.608 267.585 423.945C325.643 411.44 383.671 395.796 440.055 377.45C466.814 368.742 480.548 357.421 482.039 342.84C483.362 329.906 473.869 318.579 463.874 313.091C451.899 306.516 437.749 305.662 426.761 305.654C426.71 305.654 426.656 305.654 426.606 305.654C393.443 305.654 360.534 313.792 331.42 329.194C320.605 334.915 310.169 341.722 300.077 348.303C286.717 357.017 272.901 366.028 258.009 372.654C229.211 385.468 195.118 390.191 156.676 386.685C126.997 383.979 104.373 376.691 87.5127 364.406C77.3407 356.994 68.8494 347.432 60.6383 338.185C50.6596 326.948 40.3407 315.329 27.0823 307.781L27.9588 306.242C41.4719 313.934 51.8891 325.665 61.9628 337.009C70.1115 346.186 78.5385 355.674 88.5565 362.974C105.151 375.065 127.485 382.243 156.837 384.92C194.969 388.397 228.768 383.725 257.289 371.036C272.052 364.467 285.807 355.496 299.109 346.82C309.235 340.216 319.704 333.387 330.592 327.627C359.958 312.092 393.157 303.882 426.606 303.882C426.659 303.882 426.709 303.882 426.762 303.882C437.962 303.891 452.399 304.769 464.727 311.539C475.235 317.307 485.207 329.279 483.802 343.02C482.231 358.374 468.101 370.188 440.603 379.135C384.162 397.5 326.075 413.159 267.958 425.678C264.877 426.341 261.792 426.997 258.706 427.653C232.8 433.162 206.014 438.858 181.441 449.303C159.694 458.547 130.547 475.749 115.188 505.199C110.703 513.798 106.406 526.321 111.399 537.148C118.51 552.568 139.827 555.859 156.457 555.907C156.769 555.908 157.088 555.908 157.401 555.908C220.318 555.908 282.117 538.042 341.896 520.761C358.634 515.921 375.943 510.919 392.992 506.391C468.888 486.233 546.707 473.741 624.286 469.26C727.538 463.294 804.96 474.993 867.945 506.072C884.832 514.406 913.081 532.337 912.545 558.814C912.257 573.005 902.817 587.565 887.909 596.814C874.245 605.29 858.311 608.864 843.16 611.799C737.681 632.227 627.598 629.073 521.144 626.02C402.256 622.614 279.317 619.089 163.047 648.599C142.257 653.876 120.611 660.559 103.156 673.615C84.2014 687.793 73.4067 708.503 74.9834 727.663L73.2172 727.808Z" fill="#8E89D0"/>
</g>
<path d="M588.265 728.499C612.363 734.677 645.474 740.217 634.921 760.821L574.883 760.762L588.265 728.499Z" fill="#E28B6D"/>
<path d="M338.998 776.97H280.925C261.095 776.97 245.019 760.894 245.019 741.064V622.457C245.019 602.626 261.095 586.55 280.925 586.55H338.998C358.828 586.55 374.904 602.626 374.904 622.457V741.064C374.904 760.894 358.828 776.97 338.998 776.97Z" fill="#102048"/>
<path opacity="0.8" d="M273.941 604.107C271.759 604.677 270.288 606.669 269.303 608.702C268.296 610.772 267.672 613.038 267.169 615.31C266.182 619.875 265.716 624.563 265.459 629.253C264.982 638.642 265.176 648.077 265.75 657.482C266.286 666.892 267.148 676.287 268.285 685.649C268.833 690.332 269.464 695.007 270.187 699.667C270.879 704.331 271.656 708.985 272.605 713.604L271.929 713.758C270.799 709.16 269.832 704.524 268.965 699.87C268.138 695.21 267.402 690.534 266.749 685.846C265.482 676.465 264.551 667.038 263.997 657.582C263.515 648.127 263.278 638.634 263.965 629.157C264.327 624.425 264.868 619.684 266.002 615.036C266.603 612.725 267.322 610.419 268.461 608.273C269.032 607.205 269.706 606.172 270.579 605.291C271.443 604.413 272.546 603.703 273.785 603.432L273.941 604.107Z" fill="white"/>
<path d="M296.159 616.656C296.159 616.656 299.834 691.184 322.968 773.17H386.182L296.159 616.656Z" fill="#1F3C88"/>
<path d="M325.157 578.607C309.273 569.966 304.916 548.554 316.516 534.65C317.633 533.312 318.873 531.958 320.245 530.591C337.968 512.936 326.926 495.274 324.449 454.656C321.973 414.078 367.179 402.998 367.266 402.976C369.398 402.455 373.524 396.371 375.267 394.859C395.671 377.162 424.939 378.47 447.304 391.938C457.945 398.345 468.653 408.213 474.412 419.533C483.546 437.486 485.198 461.141 500.581 475.122C522.507 495.052 546.831 511.971 545.848 544.117C545.499 555.535 542.642 567.601 535.683 576.753C529.618 584.73 520.379 590.081 512.042 595.242C498.489 603.629 484.181 611.046 469.05 616.027C454.4 620.849 439.587 625.185 424.733 629.32C423.329 629.711 421.925 630.099 420.519 630.483L325.157 578.607Z" fill="#6F3428"/>
<path d="M428.53 561.057C481.622 542.828 510.46 602.254 550.112 718.204L588.264 728.498L583.83 769.791L569.91 772.692L456.247 773.171L428.53 561.057Z" fill="#708CD5"/>
<path d="M880.892 759.487H73.5583V787.313H880.892V759.487Z" fill="#E5ECFF"/>
<path d="M353.734 552.418L472.466 582.134L522.35 731.61L355.704 736.688L344.68 626.169L353.734 552.418Z" fill="#708CD5"/>
<path opacity="0.3" d="M357.921 616.656C387.092 646.023 380.641 689.057 405.561 693.327C422.059 696.154 468.944 702.854 491.312 712.174C495.835 714.058 508.324 723.346 506.389 731.585C505.142 736.896 488.5 732.642 488.5 732.642L363.911 720.137L337.527 659.091L357.921 616.656Z" fill="#1F3C88"/>
<path d="M460.404 724.303C461.252 722.967 479.115 719.425 481.135 719.701C487.778 720.608 491.407 725.814 493.008 729.795L466.576 743.735L460.404 724.303Z" fill="#102048"/>
<path d="M480.18 616.524L483.247 623.512C484.254 625.848 485.198 628.211 486.178 630.56C488.06 635.287 489.877 640.043 491.581 644.838C495.034 654.413 498.091 664.126 500.958 673.891C503.775 683.671 506.309 693.533 508.548 703.461C509.628 708.435 510.672 713.415 511.599 718.42C512.509 723.428 513.285 728.461 513.946 733.507L513.29 733.601C512.459 728.594 511.506 723.61 510.436 718.649C509.415 713.678 508.277 708.732 507.105 703.795C504.753 693.921 502.167 684.104 499.343 674.356C496.57 664.593 493.486 654.922 490.229 645.31C488.621 640.497 486.875 635.732 485.109 630.974C484.208 628.602 483.341 626.216 482.41 623.855L479.572 616.788L480.18 616.524Z" fill="#102048"/>
<path d="M575.085 749.527C575.085 749.527 570.089 755.433 554.319 749.68C546.889 750.542 533.068 749.881 506.786 745.593C506.786 745.593 516.33 752.267 537.911 753.413C537.911 753.413 536.99 759.768 525.615 759.485C511.924 759.142 510.341 758.315 497.867 758.835C495.316 758.941 489.764 758.823 483.751 758.634C473.262 758.291 461.343 757.736 461.343 757.736L450.948 739.155L471.691 729.221C478.058 726.728 481.235 725.866 484.33 725.429C497.725 723.527 506.183 722.015 515.787 723.669C526.454 725.5 559.044 736.308 575.085 749.527Z" fill="#F9B384"/>
<path d="M484.33 758.315L483.751 758.634C473.262 758.292 461.343 757.736 461.343 757.736L450.948 739.155L471.691 729.221C478.058 726.729 481.235 725.866 484.33 725.429C476.706 728.536 470.462 736.688 484.33 758.315Z" fill="#E28B6D"/>
<path d="M402.674 560.855C375.687 555.326 309.919 550.724 291.542 584.773C276.412 612.804 314.336 706.675 330.765 739.689C337.527 753.277 357.161 760.001 364.795 760.053L473.228 759.429C465.933 757.737 456.583 718.593 481.135 719.701L391.332 707.19C387.833 706.703 384.706 704.748 382.759 701.8C381.461 699.837 379.951 697.355 379.182 694.536L353.693 601.169L402.674 560.855Z" fill="#708CD5"/>
<path d="M642.599 760.053L536.806 759.987V750.007H643.213L642.599 760.053Z" fill="white"/>
<path d="M731.982 760.053L604.365 760.014L650.914 623.898L778.532 623.937L731.982 760.053Z" fill="#102048"/>
<path d="M701.727 699.241C697.817 705.49 690.505 708.053 684.93 705.312C684.599 705.159 684.28 704.982 683.961 704.781C678.279 701.237 677.039 692.992 681.173 686.389C685.308 679.774 693.258 677.293 698.94 680.849C700.652 681.924 701.952 683.412 702.838 685.16C704.869 689.212 704.609 694.634 701.727 699.241Z" fill="white"/>
<path d="M701.727 699.241C697.817 705.49 688.206 710.029 681.467 702.601C696.081 703.927 701.002 694.354 700.726 682.257C705.728 687.783 704.609 694.634 701.727 699.241Z" fill="#708CD5"/>
<path d="M515.843 723.327C521.269 724.127 526.518 725.642 531.722 727.256C536.924 728.887 542.036 730.793 547.064 732.904C552.112 734.965 557.037 737.338 561.822 739.972C566.579 742.647 571.212 745.62 575.306 749.262L574.866 749.797C572.698 748.187 570.463 746.675 568.146 745.292C565.851 743.876 563.486 742.573 561.087 741.335C556.298 738.843 551.398 736.551 546.384 734.523C541.435 732.342 536.347 730.489 531.249 728.676C528.697 727.778 526.126 726.932 523.54 726.141C520.96 725.334 518.354 724.594 515.726 724.009L515.843 723.327Z" fill="#6F3428"/>
<path d="M513.738 748.514L519.447 750.147C521.349 750.656 523.262 751.095 525.183 751.486C527.104 751.881 529.04 752.185 530.984 752.461C532.93 752.716 534.885 752.91 536.846 753.106L537.497 753.171L537.55 753.734C537.621 754.502 537.541 755.151 537.336 755.843C537.127 756.515 536.744 757.172 536.192 757.643C535.638 758.105 534.987 758.405 534.335 758.544C534.011 758.626 533.683 758.639 533.361 758.683L532.404 758.659V757.966L533.261 757.838C533.53 757.756 533.812 757.714 534.064 757.611C534.581 757.427 535.019 757.132 535.353 756.773C535.689 756.414 535.915 755.97 536.024 755.476C536.134 754.998 536.142 754.416 536.063 753.982L536.767 754.611C532.759 754.536 528.744 754.059 524.823 753.151C522.861 752.702 520.932 752.12 519.042 751.448C517.143 750.798 515.307 749.995 513.498 749.163L513.738 748.514Z" fill="#6F3428"/>
<path d="M508.905 734.759C513.494 735.345 518.11 735.796 522.725 736.267C527.337 736.776 531.96 737.224 536.574 737.953C541.167 738.688 545.733 739.522 550.3 740.351C554.867 741.187 559.431 742.025 563.981 742.945L565.059 743.163L564.598 744.163C564.298 744.815 564.008 745.799 563.424 746.616C563.175 747.056 562.778 747.384 562.444 747.758C562.05 748.045 561.664 748.37 561.247 748.603C559.573 749.581 557.782 749.913 556.032 750.255C552.51 750.829 549.002 750.805 545.518 750.691C543.776 750.626 542.036 750.552 540.304 750.396C538.57 750.27 536.836 750.142 535.113 749.922C531.659 749.562 528.223 749.074 524.792 748.574L524.878 747.887C528.328 748.171 531.766 748.555 535.216 748.759C536.94 748.893 538.661 748.998 540.385 749.074C542.107 749.184 543.829 749.214 545.549 749.233C548.981 749.249 552.436 749.188 555.759 748.636C557.386 748.309 559.063 747.957 560.391 747.15C560.728 746.96 561.001 746.709 561.31 746.495C561.537 746.213 561.837 745.992 562.006 745.663C562.436 745.062 562.632 744.351 563.033 743.425L563.65 744.643C554.539 742.927 545.439 741.092 536.316 739.51C531.78 738.683 527.174 738.127 522.578 737.511C517.982 736.872 513.374 736.287 508.796 735.443L508.905 734.759Z" fill="#6F3428"/>
<path d="M73.5583 759.487H880.892" stroke="#102048" stroke-width="5" stroke-miterlimit="10"/>
<path d="M389.396 596.23C393.316 598.899 397.683 600.845 402.246 601.919C406.806 602.971 411.559 603.251 416.154 602.453C420.75 601.723 425.184 599.95 428.913 597.163C432.673 594.417 435.655 590.656 437.755 586.413L438.391 586.687C437.9 587.79 437.393 588.895 436.873 589.997C436.281 591.056 435.585 592.062 434.935 593.1C434.216 594.086 433.359 594.969 432.571 595.911C431.725 596.795 430.758 597.562 429.851 598.394C425.984 601.449 421.285 603.401 416.439 604.185C411.585 604.931 406.585 604.671 401.876 603.369C397.166 602.09 392.723 599.853 388.979 596.784L389.396 596.23Z" fill="#102048"/>
<path d="M358.24 616.566L364.161 636.69L369.988 656.839L375.754 677.007L378.62 687.095L380.053 692.139C380.546 693.824 380.949 695.541 381.614 697.007C382.914 700.054 385.542 702.311 388.515 703.862C391.523 705.402 394.86 706.357 398.228 707.101C401.614 707.828 405.04 708.321 408.516 708.768L418.909 710.174L439.685 713.05L460.447 716.038L460.361 716.695L439.529 714.225L418.712 711.642L408.307 710.32C404.848 709.892 401.344 709.405 397.89 708.68C394.44 707.933 390.984 706.974 387.75 705.34C384.566 703.709 381.531 701.168 380.082 697.698C379.868 697.285 379.719 696.848 379.577 696.409C379.433 695.974 379.268 695.527 379.163 695.113L378.457 692.588L377.046 687.538L374.223 677.438L368.61 657.227L363.059 637L357.602 616.745L358.24 616.566Z" fill="#102048"/>
<path d="M425.678 518.637L430.995 564.412C432.577 578.037 418.217 589.455 403.662 585.678C395.34 583.517 386.668 577.758 377.694 569.101C375.848 567.322 374.727 565.02 374.476 562.565L368.808 507.397L425.678 518.637Z" fill="#F9B384"/>
<path d="M426.401 524.864L429.296 549.788C417.535 551.633 400.955 545.021 384.131 522.693L426.401 524.864Z" fill="#3C1C16"/>
<path d="M455.41 485.683C454.731 493.983 453.419 502.656 451.09 510.447C447.155 523.541 440.291 534.102 428.531 536.059C393.907 541.815 368.815 507.394 368.815 507.394L364.789 460.557L385.686 424.406L432.477 423.049L455.297 450.04C455.297 450.04 456.948 466.878 455.41 485.683Z" fill="#F9B384"/>
<path d="M363.668 478.352C382.254 476.966 386.534 461.258 387.804 440.898C387.804 440.898 438.147 428.428 456.02 464.217L469.573 465.686L428.53 411.199L364.741 418.808L352.261 460.217L363.668 478.352Z" fill="#6F3428"/>
<path d="M373.5 472.25C371.312 469.839 368.048 468.613 364.816 469.005C352.469 470.5 350.324 486.851 353.147 493.808C357.373 504.221 368.812 507.392 368.812 507.392L378.641 496.996C379.427 486.17 378.197 477.424 373.5 472.25Z" fill="#F9B384"/>
<path opacity="0.15" d="M373.704 519.951C380.489 539.246 401.363 593.73 367.27 592.36C350.837 591.7 336.398 559.827 312.973 565.844C315.557 564.595 318.465 563.462 321.732 562.46L373.704 519.951Z" fill="#3C1C16"/>
<path d="M368.812 507.392C375.388 519.884 393.788 581.685 362.447 578.116C347.342 576.396 343.633 558.2 321.732 562.46L368.812 507.392Z" fill="#6F3428"/>
<path d="M369.888 483.572C369.935 482.122 369.479 480.791 368.762 479.667C368.029 478.552 367.013 477.628 365.86 477.114C364.711 476.593 363.462 476.496 362.283 476.922C361.09 477.345 360.026 478.283 358.981 479.371L358.222 478.919C358.818 477.432 359.843 475.954 361.474 475.108C361.883 474.905 362.296 474.695 362.76 474.628C363.213 474.519 363.67 474.425 364.138 474.46L364.836 474.483L365.51 474.626C365.971 474.701 366.39 474.874 366.8 475.069C368.438 475.839 369.725 477.172 370.46 478.749C371.215 480.311 371.366 482.189 370.754 483.758L369.888 483.572Z" fill="#3C1C16"/>
<path d="M436.133 476.593C436.244 479.776 438.099 482.295 440.275 482.219C442.451 482.143 444.125 479.5 444.013 476.317C443.902 473.134 442.047 470.616 439.871 470.692C437.695 470.768 436.021 473.41 436.133 476.593Z" fill="#3C1C16"/>
<path d="M401.804 477.796C401.916 480.979 403.77 483.498 405.946 483.422C408.123 483.346 409.796 480.704 409.685 477.52C409.573 474.337 407.719 471.819 405.543 471.895C403.366 471.971 401.693 474.613 401.804 477.796Z" fill="#3C1C16"/>
<path d="M435.697 509C434.2 510.887 432.391 512.653 430.039 513.819C427.669 514.962 424.763 515.11 422.268 514.373C419.749 513.654 417.601 512.29 415.678 510.775C413.73 509.271 412.07 507.491 410.56 505.611L411.274 504.873C413.234 506.227 415.073 507.677 417.021 508.895C418.946 510.127 420.929 511.262 422.992 511.858C425.054 512.472 427.142 512.439 429.168 511.751C431.181 511.002 433.077 509.666 434.979 508.264L435.697 509Z" fill="#3C1C16"/>
<path d="M447.755 466.761C446.221 465.701 444.794 464.698 443.34 464.051C441.878 463.426 440.478 463.098 439.03 463.264C437.586 463.4 436.099 463.911 434.565 464.579C433.023 465.251 431.513 466.153 429.777 466.92L429.305 466.424C430.248 464.759 431.487 463.272 433.067 462.086C434.637 460.911 436.583 460 438.764 459.835C440.944 459.624 443.194 460.41 444.798 461.678C446.435 462.933 447.589 464.559 448.293 466.337L447.755 466.761Z" fill="#3C1C16"/>
<path d="M413.361 467.966C411.71 466.793 410.084 465.895 408.401 465.36C406.716 464.847 405.018 464.646 403.31 464.843C401.606 465.03 399.901 465.513 398.192 466.217C396.48 466.926 394.801 467.844 392.932 468.735L392.459 468.239C393.525 466.428 394.998 464.863 396.779 463.629C398.559 462.401 400.713 461.575 402.984 461.371C405.25 461.148 407.623 461.648 409.564 462.789C411.518 463.903 413.071 465.59 413.9 467.542L413.361 467.966Z" fill="#3C1C16"/>
<path opacity="0.5" d="M380.114 499.812C380.358 506.761 386.188 512.196 393.137 511.953C400.086 511.71 405.521 505.879 405.278 498.931C405.035 491.982 399.204 486.546 392.255 486.79C385.307 487.033 379.871 492.864 380.114 499.812Z" fill="#FC8879"/>
<path opacity="0.5" d="M455.41 485.683C454.731 493.983 453.42 502.656 451.09 510.447C445.775 509.124 441.761 504.397 441.558 498.664C441.309 491.71 446.748 485.886 453.691 485.638C454.268 485.615 454.844 485.638 455.41 485.683Z" fill="#FC8879"/>
<path opacity="0.5" d="M421.924 474.105C421.98 473.511 422.801 473.437 422.977 474.008C425.792 483.19 434.935 489.904 433.473 492.599C432.443 494.497 428.574 496.646 425.863 497.972C424.431 498.672 422.716 497.825 422.414 496.253C421.105 489.436 421.181 481.935 421.924 474.105Z" fill="#FC8879"/>
<path d="M423.882 473.175C424.512 475.865 425.74 478.308 427.229 480.602C428.727 482.901 430.48 485.034 432.253 487.281C432.701 487.844 433.132 488.428 433.557 489.05C433.976 489.681 434.402 490.321 434.729 491.208C434.881 491.648 435.032 492.196 434.895 492.914C434.697 493.727 434.358 494.001 434.091 494.38C433.506 495.036 432.89 495.517 432.257 495.947C429.735 497.631 427.056 498.666 424.289 499.524L423.896 498.574C425.104 497.857 426.343 497.179 427.51 496.415C428.688 495.681 429.859 494.923 430.881 494.092C431.381 493.672 431.862 493.242 432.198 492.817C432.335 492.625 432.493 492.343 432.424 492.449C432.429 492.465 432.403 492.293 432.314 492.074C431.946 491.133 430.999 489.975 430.183 488.883C428.471 486.659 426.674 484.343 425.296 481.742C423.891 479.174 422.913 476.253 422.861 473.294L423.882 473.175Z" fill="#3C1C16"/>
<path d="M357.811 510.822C357.015 512.577 356.754 514.524 356.872 516.441C357.003 518.365 357.51 520.26 358.223 522.065C359.745 525.653 361.774 529.164 363.555 532.784C365.374 536.391 366.966 540.231 367.695 544.352C368.043 546.411 368.156 548.523 367.996 550.628C367.854 551.674 367.754 552.714 367.478 553.777C367.178 554.816 366.836 555.852 366.314 556.811C365.335 558.749 363.844 560.481 361.944 561.665C360.061 562.88 357.723 563.396 355.5 563.175C353.246 562.893 351.357 562.075 349.47 561.321C347.595 560.539 345.761 559.721 343.939 558.903C340.294 557.296 336.609 555.737 332.785 555.024C330.885 554.67 328.937 554.556 327.124 555.029C326.229 555.284 325.386 555.689 324.639 556.243C323.888 556.799 323.281 557.535 322.739 558.325L321.976 557.88C322.502 556.974 323.123 556.095 323.946 555.388C324.774 554.698 325.738 554.169 326.758 553.821C328.822 553.165 330.984 553.186 333.035 553.464C337.148 554.095 340.972 555.584 344.71 557.084L350.259 559.387C352.089 560.109 353.962 560.845 355.714 561.032C357.486 561.177 359.269 560.771 360.76 559.788C362.261 558.834 363.472 557.394 364.326 555.776C364.778 554.974 365.072 554.092 365.341 553.211C365.581 552.329 365.683 551.368 365.824 550.427C365.985 548.526 365.904 546.606 365.603 544.704C364.969 540.893 363.485 537.22 361.832 533.607C360.187 529.968 358.258 526.465 356.786 522.597C356.121 520.637 355.677 518.583 355.637 516.49C355.597 514.404 356.018 512.271 357.021 510.423L357.811 510.822Z" fill="#3C1C16"/>
<path d="M358.446 405.594C361.836 404.064 365.389 402.968 368.968 402.029C372.545 401.073 376.181 400.365 379.838 399.792C383.498 399.243 387.188 398.855 390.9 398.747C392.755 398.7 394.614 398.706 396.474 398.798C398.33 398.919 400.192 399.129 402.02 399.512L401.895 400.387C400.076 400.331 398.271 400.269 396.453 400.378C394.64 400.419 392.826 400.542 391.015 400.719C387.394 401.048 383.778 401.486 380.172 402.018C376.565 402.545 372.978 403.2 369.396 403.89C367.605 404.235 365.826 404.633 364.054 405.059C362.268 405.443 360.52 405.945 358.756 406.422L358.446 405.594Z" fill="#3C1C16"/>
<path d="M387.604 440.504C389.114 439.704 390.708 439.223 392.311 438.831C393.918 438.458 395.536 438.132 397.166 437.917C400.426 437.473 403.713 437.294 407 437.296C413.576 437.294 420.153 438.215 426.527 439.938C432.878 441.717 439.027 444.513 444.308 448.56C446.928 450.598 449.354 452.904 451.392 455.523C453.407 458.155 455.122 461.004 456.42 464.027L455.622 464.406C452.551 458.761 448.339 453.797 443.127 450.144C440.541 448.305 437.798 446.678 434.905 445.347C432.015 444.006 428.984 442.984 425.919 442.095C419.78 440.312 413.376 439.461 406.963 439.205C403.754 439.077 400.535 439.155 397.338 439.438C394.162 439.721 390.902 440.132 388.006 441.291L387.604 440.504Z" fill="#3C1C16"/>
<path d="M733.421 575.309H695.466C689.257 575.309 684.177 570.229 684.177 564.021V529.844C684.177 523.636 689.257 518.556 695.466 518.556H733.421C739.63 518.556 744.71 523.636 744.71 529.844V564.021C744.71 570.229 739.63 575.309 733.421 575.309Z" fill="white" stroke="#1F3C88" stroke-width="3.75" stroke-miterlimit="10"/>
<path d="M714.443 586.524L703.441 575.309H725.446L714.443 586.524Z" fill="#1F3C88"/>
<path d="M713.478 563.013C712.892 563.013 712.33 562.756 711.947 562.305L700.944 549.368C700.225 548.522 700.327 547.253 701.173 546.535C702.019 545.815 703.288 545.92 704.006 546.763L713.128 557.489L727.334 531.886C727.875 530.915 729.099 530.566 730.067 531.103C731.039 531.641 731.389 532.865 730.851 533.836L715.236 561.977C714.915 562.554 714.333 562.937 713.676 563.002C713.611 563.009 713.544 563.013 713.478 563.013Z" fill="#1F3C88"/>
<path d="M703.305 426.305H723.267L707.325 323.11H687.364L703.305 426.305Z" fill="#535AB4"/>
<path d="M723.284 426.305H743.245L727.304 323.11H707.343L723.284 426.305Z" fill="#AFAAF2"/>
<path d="M824.417 378.899H750.749V426.289H824.417V378.899Z" fill="#535AB4"/>
<path d="M803.159 394.296H772.007V402.594H803.159V394.296Z" fill="white"/>
<path d="M687.364 291.92H652.699V426.289H687.364V291.92Z" fill="#AFAAF2"/>
<path d="M841.496 426.289H634.032V441.21H841.496V426.289Z" fill="#535AB4"/>
<path d="M527.028 279.303C553.072 253.259 553.072 211.032 527.028 184.988C500.984 158.944 458.758 158.944 432.713 184.988C406.669 211.032 406.669 253.259 432.713 279.303C458.758 305.347 500.984 305.347 527.028 279.303Z" fill="white" stroke="#535AB4" stroke-width="5" stroke-miterlimit="10"/>
<path d="M506.251 245.991L477.75 232.441L508.888 205.015L510.449 206.788L482 231.846L507.266 243.857L506.251 245.991Z" fill="#8E89D0"/>
<path d="M267.926 356.153H164.031C155.977 356.153 149.448 349.624 149.448 341.57V283.159C149.448 275.105 155.977 268.577 164.031 268.577H267.926C275.98 268.577 282.508 275.106 282.508 283.159V341.57C282.508 349.624 275.98 356.153 267.926 356.153Z" fill="#AFAAF1"/>
<path d="M265.673 290.557H166.284V298.834H265.673V290.557Z" fill="#535AB4"/>
<path opacity="0.8" d="M265.673 308.226H166.284V316.504H265.673V308.226Z" fill="white"/>
<path opacity="0.8" d="M265.673 325.896H166.284V334.173H265.673V325.896Z" fill="white"/>
<path d="M183.078 444.775L164.187 430.001H201.968L183.078 444.775Z" fill="#535AB4"/>
<path d="M207.062 430.013H103.167C95.1133 430.013 88.5848 423.484 88.5848 415.431V357.02C88.5848 348.966 95.1133 342.438 103.167 342.438H207.062C215.116 342.438 221.645 348.967 221.645 357.02V415.431C221.645 423.484 215.116 430.013 207.062 430.013Z" fill="#535AB4"/>
<g opacity="0.8">
<path d="M129.611 392.413H116.731V408.334H129.611V392.413Z" fill="white"/>
<path d="M150.294 374.689H137.413V408.334H150.294V374.689Z" fill="white"/>
<path d="M171.896 382.329H159.015V408.334H171.896V382.329Z" fill="white"/>
<path d="M193.499 364.117H180.617V408.334H193.499V364.117Z" fill="white"/>
</g>
</g>
<defs>
<clipPath id="clip0_620_4424">
<rect width="945" height="945" rx="8" fill="white"/>
</clipPath>
</defs>
</svg>
