<svg width="646" height="646" viewBox="0 0 646 646" fill="none" xmlns="http://www.w3.org/2000/svg">
<path d="M557.719 152.186C563.676 149.687 567.911 143.545 567.946 136.308C567.984 126.828 560.81 119.108 551.92 119.068C543.033 119.027 535.794 126.679 535.754 136.16C535.724 143.464 539.989 149.679 546.011 152.186C521.241 155.917 522.365 182.839 522.365 182.839L580.938 183.109C580.938 183.109 582.273 155.894 557.719 152.186Z" fill="#EE7846"/>
<path d="M211.654 51.5766L173.377 38.0403L135.473 51.3944C130.634 53.6451 126.389 54.9926 126.389 59.4319V81.5342C126.389 96.8831 130.473 112.094 138.875 125.522C145.946 136.821 156.894 148.457 173.748 155.853C189.242 150.896 200.808 137.684 207.878 126.385C216.281 112.957 220.364 97.7462 220.364 82.3972V62.5198C220.365 56.1903 216.959 53.0985 211.654 51.5766Z" fill="#29415B"/>
<path d="M186.091 87.2577C186.091 81.4049 181.346 76.6594 175.493 76.6594C169.64 76.6594 164.895 81.4049 164.895 87.2577C164.895 92.1014 168.163 96.1415 172.601 97.4064V113.251H178.383V97.4064C182.822 96.1415 186.091 92.1014 186.091 87.2577Z" fill="#EBEBEB"/>
<path d="M537.137 256.453L543.665 259.987L540.73 264.897L534.142 261.005L534.262 268.251H528.633L528.692 260.944L522.105 264.897L519.229 259.987L525.757 256.453L519.229 252.86L522.105 247.949L528.692 251.903L528.633 244.595H534.262L534.142 251.903L540.73 247.949L543.665 252.86L537.137 256.453Z" fill="#E0E0E0"/>
<path d="M564.323 256.453L570.851 259.987L567.916 264.897L561.328 261.005L561.448 268.251H555.819L555.878 260.944L549.29 264.897L546.414 259.987L552.943 256.453L546.414 252.86L549.29 247.949L555.878 251.903L555.819 244.595H561.448L561.328 251.903L567.916 247.949L570.851 252.86L564.323 256.453Z" fill="#E0E0E0"/>
<path d="M591.51 256.453L598.038 259.987L595.103 264.897L588.515 261.005L588.635 268.251H583.006L583.065 260.944L576.478 264.897L573.602 259.987L580.13 256.453L573.602 252.86L576.478 247.949L583.065 251.903L583.006 244.595H588.635L588.515 251.903L595.103 247.949L598.038 252.86L591.51 256.453Z" fill="#E0E0E0"/>
<path d="M314.904 565.708V605.842H373.593H438.324V565.708H314.904Z" fill="#29415B"/>
<path d="M309.727 554.489V565.709H442.641V554.489H373.594H309.727Z" fill="#758EA9"/>
<path d="M376.183 605.842H438.324V565.709H442.641V554.489H373.594V564.671L376.183 605.842Z" fill="#758EA9"/>
<path d="M357.195 572.18H332.166V578.222H357.195V572.18Z" fill="#E0E0E0"/>
<path d="M361.084 585.775H328.945V598.532H361.084V585.775Z" fill="white"/>
<path d="M333.895 514.408V554.542H392.582H457.314V514.408H333.895Z" fill="#29415B"/>
<path d="M328.717 503.189V514.408H461.63V503.189H392.583H328.717Z" fill="#758EA9"/>
<path d="M395.172 554.542H457.314V514.408H461.629V503.189H392.582V513.371L395.172 554.542Z" fill="#758EA9"/>
<path d="M376.185 520.881H351.156V526.923H376.185V520.881Z" fill="#E0E0E0"/>
<path d="M380.074 534.475H347.936V547.232H380.074V534.475Z" fill="white"/>
<path d="M599.576 606.149C599.576 606.335 475.738 606.485 323.012 606.485C170.233 606.485 46.4219 606.334 46.4219 606.149C46.4219 605.965 170.233 605.813 323.012 605.813C475.738 605.813 599.576 605.963 599.576 606.149Z" fill="#263238"/>
<path d="M485.412 291.678H254.615C249.935 291.678 246.139 287.884 246.139 283.203V70.8638C246.139 66.1829 249.933 62.387 254.615 62.387H485.412C490.093 62.387 493.887 66.1816 493.887 70.8638V283.201C493.889 287.882 490.093 291.678 485.412 291.678Z" fill="white"/>
<path d="M485.413 291.678C485.413 291.678 485.618 291.656 486.023 291.63C486.426 291.603 487.029 291.519 487.797 291.297C488.555 291.059 489.485 290.669 490.431 289.958C491.369 289.252 492.343 288.227 492.998 286.814C493.731 285.417 493.879 283.652 493.806 281.723C493.8 279.792 493.795 277.679 493.79 275.393C493.781 270.816 493.771 265.537 493.759 259.595C493.733 235.815 493.697 201.42 493.652 158.921C493.639 137.668 493.626 114.39 493.611 89.4C493.599 83.1584 493.587 76.8095 493.576 70.3598C493.426 67.2306 491.267 64.2849 488.272 63.2047C486.79 62.5872 485.166 62.6866 483.503 62.6828C481.852 62.6841 480.193 62.6841 478.53 62.6854C465.219 62.6892 451.518 62.6944 437.469 62.6996C381.271 62.7073 319.489 62.7164 254.64 62.7267C252.687 62.7293 250.758 63.4425 249.292 64.7203C247.814 65.9825 246.826 67.7939 246.568 69.7125C246.435 70.6557 246.488 71.6738 246.477 72.6803V75.6958C246.477 77.7049 246.477 79.71 246.477 81.7114C246.477 89.7192 246.475 97.674 246.475 105.572C246.474 121.367 246.472 136.929 246.47 152.221C246.464 182.805 246.457 212.305 246.451 240.408C246.446 254.46 246.442 268.161 246.437 281.474C246.443 282.301 246.415 283.152 246.473 283.939C246.561 284.732 246.722 285.522 247.031 286.26C247.627 287.74 248.664 289.026 249.963 289.931C251.266 290.831 252.822 291.344 254.395 291.378C256.019 291.382 257.638 291.387 259.249 291.391C265.707 291.394 272.062 291.398 278.31 291.4C303.301 291.415 326.581 291.429 347.834 291.442C390.333 291.487 424.725 291.523 448.503 291.549C460.382 291.576 469.606 291.598 475.873 291.612C478.995 291.626 481.378 291.638 482.99 291.646C484.591 291.655 485.413 291.678 485.413 291.678C485.413 291.678 484.591 291.701 482.988 291.713C481.375 291.721 478.993 291.731 475.87 291.747C469.605 291.761 460.379 291.783 448.5 291.81C424.722 291.836 390.331 291.872 347.832 291.917C326.578 291.93 303.299 291.943 278.308 291.959C272.06 291.961 265.704 291.965 259.247 291.968C257.631 291.965 256.007 291.961 254.377 291.959C252.694 291.922 251.023 291.375 249.627 290.412C248.234 289.443 247.121 288.067 246.482 286.48C246.152 285.69 245.975 284.843 245.882 283.992C245.819 283.123 245.85 282.312 245.842 281.475C245.837 268.162 245.833 254.461 245.828 240.409C245.822 212.307 245.815 182.805 245.809 152.222C245.807 136.93 245.805 121.367 245.804 105.573C245.804 97.6766 245.802 89.7205 245.802 81.7126C245.802 79.71 245.802 77.7049 245.802 75.6971V72.6816C245.815 71.6803 245.756 70.6738 245.901 69.6195C246.18 67.542 247.251 65.5794 248.849 64.2138C250.434 62.8314 252.53 62.0562 254.637 62.0562C319.486 62.0652 381.27 62.0742 437.467 62.082C451.516 62.0872 465.216 62.091 478.528 62.0962C480.192 62.0962 481.849 62.0975 483.501 62.0975C485.117 62.1027 486.88 61.9967 488.474 62.6608C491.682 63.8223 493.989 66.9761 494.148 70.3275C494.154 76.7901 494.16 83.1493 494.166 89.4026C494.151 114.392 494.138 137.67 494.125 158.924C494.08 201.423 494.043 235.817 494.018 259.598C494.006 265.54 493.996 270.819 493.986 275.395C493.98 277.682 493.975 279.794 493.971 281.726C494.034 283.639 493.872 285.471 493.117 286.876C492.441 288.307 491.445 289.338 490.489 290.044C489.525 290.754 488.581 291.137 487.812 291.367C487.036 291.58 486.427 291.652 486.021 291.668C485.618 291.679 485.413 291.678 485.413 291.678Z" fill="#263238"/>
<path d="M264.835 78.2786C264.835 80.6442 262.918 82.5616 260.553 82.5616C258.187 82.5616 256.27 80.6442 256.27 78.2786C256.27 75.9129 258.187 73.9956 260.553 73.9956C262.918 73.9956 264.835 75.9129 264.835 78.2786Z" fill="#263238"/>
<path d="M273.064 82.5616C275.43 82.5616 277.347 80.644 277.347 78.2786C277.347 75.9132 275.43 73.9956 273.064 73.9956C270.699 73.9956 268.781 75.9132 268.781 78.2786C268.781 80.644 270.699 82.5616 273.064 82.5616Z" fill="#263238"/>
<path d="M285.572 82.5616C287.937 82.5616 289.855 80.644 289.855 78.2786C289.855 75.9132 287.937 73.9956 285.572 73.9956C283.207 73.9956 281.289 75.9132 281.289 78.2786C281.289 80.644 283.207 82.5616 285.572 82.5616Z" fill="#263238"/>
<path d="M493.889 90.4284C493.889 90.6145 438.423 90.7644 370.02 90.7644C301.593 90.7644 246.139 90.6132 246.139 90.4284C246.139 90.2437 301.591 90.0925 370.02 90.0925C438.423 90.0925 493.889 90.2437 493.889 90.4284Z" fill="#263238"/>
<path d="M405.011 176.804C405.011 176.804 405.11 176.667 405.307 176.406C405.358 176.34 405.413 176.268 405.474 176.186C405.531 176.102 405.581 176.002 405.642 175.897C405.762 175.686 405.912 175.446 406.019 175.144C406.077 174.995 406.148 174.841 406.208 174.672C406.256 174.5 406.305 174.319 406.358 174.128C406.418 173.94 406.451 173.737 406.483 173.524C406.51 173.31 406.568 173.091 406.576 172.857C406.677 171.927 406.615 170.841 406.429 169.642C406.058 167.238 405.038 164.407 403.478 161.331C401.92 158.247 399.775 154.93 397.139 151.473C394.502 148.014 391.332 144.443 387.688 140.857C384.04 137.274 379.909 133.676 375.28 130.265C372.963 128.562 370.52 126.911 367.945 125.356C365.373 123.797 362.66 122.344 359.798 121.084C356.936 119.84 353.917 118.756 350.732 118.241C349.145 117.997 347.508 117.878 345.897 118.123C345.094 118.247 344.305 118.465 343.561 118.798C342.83 119.155 342.157 119.63 341.601 120.231C341.068 120.851 340.668 121.573 340.396 122.34C340.149 123.116 340.019 123.925 339.988 124.738C339.927 126.366 340.23 127.979 340.654 129.528C341.526 132.634 342.948 135.512 344.508 138.214C346.086 140.915 347.839 143.446 349.68 145.824C351.519 148.207 353.437 150.447 355.393 152.554C359.309 156.766 363.355 160.461 367.329 163.678C371.307 166.892 375.217 169.635 378.953 171.861C382.688 174.086 386.227 175.839 389.467 177.036C392.701 178.237 395.63 178.927 398.06 179.022C399.272 179.07 400.358 179.008 401.27 178.803C401.501 178.769 401.713 178.686 401.921 178.635C402.129 178.579 402.328 178.524 402.507 178.441C402.69 178.367 402.864 178.297 403.029 178.23C403.19 178.151 403.336 178.065 403.476 177.99C403.765 177.849 403.986 177.673 404.182 177.53C404.279 177.458 404.373 177.396 404.451 177.33C404.524 177.26 404.59 177.195 404.65 177.139C404.886 176.918 405.011 176.804 405.011 176.804C405.011 176.804 404.896 176.925 404.662 177.158C404.604 177.216 404.538 177.281 404.466 177.353C404.39 177.42 404.296 177.483 404.2 177.557C404.005 177.703 403.784 177.883 403.496 178.027C403.355 178.105 403.209 178.193 403.049 178.273C402.882 178.341 402.708 178.414 402.524 178.489C402.343 178.573 402.144 178.629 401.935 178.688C401.726 178.741 401.513 178.826 401.28 178.861C400.363 179.074 399.272 179.142 398.055 179.1C395.613 179.016 392.674 178.334 389.429 177.14C386.177 175.95 382.627 174.202 378.882 171.981C375.135 169.759 371.216 167.018 367.228 163.806C363.244 160.591 359.188 156.895 355.263 152.68C353.303 150.57 351.379 148.327 349.534 145.941C347.687 143.557 345.928 141.021 344.344 138.313C342.776 135.602 341.348 132.714 340.468 129.583C340.042 128.021 339.733 126.39 339.795 124.734C339.826 123.907 339.959 123.08 340.212 122.283C340.491 121.493 340.904 120.749 341.455 120.107C342.03 119.486 342.725 118.995 343.477 118.628C344.241 118.284 345.047 118.062 345.865 117.935C347.503 117.687 349.157 117.809 350.758 118.055C353.967 118.573 356.998 119.664 359.869 120.913C362.738 122.178 365.458 123.637 368.036 125.2C370.616 126.761 373.063 128.416 375.381 130.124C380.015 133.544 384.147 137.152 387.795 140.744C391.44 144.341 394.609 147.923 397.244 151.392C399.877 154.859 402.018 158.187 403.571 161.282C405.126 164.371 406.138 167.213 406.5 169.631C406.681 170.835 406.737 171.927 406.63 172.862C406.622 173.097 406.562 173.318 406.533 173.533C406.5 173.747 406.465 173.951 406.403 174.141C406.349 174.332 406.297 174.513 406.248 174.686C406.187 174.854 406.115 175.009 406.054 175.158C405.943 175.462 405.79 175.701 405.666 175.911C405.603 176.016 405.551 176.115 405.493 176.199C405.43 176.279 405.373 176.352 405.321 176.416C405.12 176.675 405.011 176.804 405.011 176.804Z" fill="#FF725E"/>
<path d="M416.74 148.492C416.74 148.492 416.722 148.324 416.696 147.997C416.69 147.916 416.683 147.824 416.674 147.722C416.66 147.621 416.632 147.513 416.607 147.394C416.556 147.156 416.509 146.878 416.386 146.581C416.331 146.431 416.28 146.27 416.213 146.104C416.134 145.944 416.05 145.776 415.964 145.599C415.884 145.418 415.773 145.245 415.655 145.064C415.534 144.887 415.432 144.685 415.28 144.505C414.736 143.744 413.968 142.975 413.031 142.205C411.154 140.659 408.509 139.225 405.296 137.967C402.08 136.704 398.272 135.656 394.004 134.83C389.734 134.005 384.991 133.449 379.883 133.199C374.776 132.955 369.298 133.018 363.573 133.555C360.711 133.827 357.789 134.221 354.832 134.775C351.874 135.324 348.882 136.046 345.908 137.01C342.944 137.987 339.97 139.187 337.251 140.924C335.904 141.797 334.604 142.8 333.565 144.053C333.048 144.679 332.605 145.368 332.272 146.112C331.964 146.865 331.778 147.668 331.764 148.487C331.778 149.306 331.962 150.11 332.269 150.863C332.603 151.607 333.043 152.297 333.561 152.924C334.599 154.179 335.9 155.181 337.247 156.055C339.966 157.793 342.941 158.995 345.905 159.972C348.879 160.937 351.873 161.658 354.83 162.208C357.788 162.762 360.711 163.156 363.573 163.428C369.299 163.964 374.777 164.028 379.885 163.783C384.992 163.532 389.736 162.977 394.006 162.151C398.274 161.326 402.083 160.278 405.297 159.014C408.509 157.757 411.155 156.323 413.031 154.776C413.968 154.006 414.735 153.236 415.279 152.477C415.43 152.297 415.532 152.095 415.654 151.917C415.771 151.736 415.884 151.563 415.963 151.382C416.05 151.205 416.133 151.037 416.212 150.877C416.279 150.712 416.329 150.55 416.385 150.4C416.506 150.103 416.554 149.825 416.606 149.588C416.629 149.469 416.659 149.36 416.673 149.26C416.681 149.159 416.689 149.067 416.695 148.984C416.722 148.66 416.74 148.492 416.74 148.492C416.74 148.492 416.735 148.66 416.716 148.988C416.711 149.071 416.705 149.163 416.699 149.265C416.686 149.365 416.659 149.475 416.637 149.595C416.589 149.834 416.544 150.115 416.425 150.415C416.371 150.566 416.322 150.729 416.256 150.895C416.177 151.057 416.096 151.227 416.009 151.406C415.93 151.588 415.819 151.763 415.702 151.946C415.58 152.125 415.478 152.329 415.328 152.51C414.785 153.279 414.017 154.057 413.08 154.835C411.201 156.397 408.554 157.845 405.337 159.115C402.119 160.391 398.305 161.45 394.032 162.284C389.757 163.12 385.007 163.683 379.894 163.942C374.78 164.194 369.294 164.136 363.558 163.603C360.691 163.333 357.762 162.941 354.798 162.388C351.833 161.838 348.833 161.116 345.848 160.15C342.874 159.17 339.886 157.966 337.145 156.216C335.787 155.333 334.472 154.323 333.415 153.046C332.888 152.408 332.437 151.703 332.095 150.939C331.778 150.164 331.588 149.334 331.574 148.488C331.588 147.642 331.781 146.812 332.097 146.039C332.439 145.275 332.892 144.571 333.419 143.933C334.477 142.657 335.791 141.646 337.151 140.766C339.891 139.017 342.878 137.812 345.852 136.834C348.837 135.868 351.835 135.146 354.801 134.598C357.764 134.045 360.692 133.652 363.559 133.382C369.294 132.85 374.78 132.792 379.894 133.044C385.007 133.302 389.757 133.865 394.032 134.7C398.305 135.535 402.119 136.593 405.337 137.869C408.554 139.139 411.201 140.586 413.08 142.15C414.017 142.927 414.785 143.705 415.328 144.474C415.478 144.655 415.58 144.859 415.702 145.039C415.819 145.221 415.93 145.396 416.009 145.58C416.096 145.758 416.178 145.929 416.256 146.09C416.322 146.257 416.372 146.42 416.425 146.571C416.544 146.871 416.589 147.151 416.637 147.39C416.659 147.51 416.687 147.619 416.699 147.721C416.705 147.823 416.711 147.915 416.716 147.997C416.735 148.324 416.74 148.492 416.74 148.492Z" fill="#FF725E"/>
<path d="M401.2 113.252C401.2 113.252 401.057 113.162 400.783 112.983C400.714 112.938 400.637 112.887 400.553 112.832C400.465 112.781 400.362 112.737 400.253 112.684C400.035 112.58 399.785 112.447 399.475 112.36C399.323 112.312 399.164 112.253 398.992 112.205C398.818 112.17 398.633 112.133 398.439 112.093C398.248 112.045 398.041 112.027 397.827 112.01C397.612 111.997 397.389 111.954 397.155 111.963C396.22 111.927 395.141 112.063 393.959 112.332C391.586 112.868 388.832 114.08 385.869 115.849C382.9 117.615 379.739 119.984 376.473 122.851C373.204 125.719 369.859 129.129 366.532 133.011C363.209 136.898 359.904 141.266 356.82 146.12C355.281 148.548 353.802 151.099 352.428 153.777C351.05 156.451 349.788 159.257 348.728 162.199C347.684 165.14 346.811 168.226 346.518 171.438C346.383 173.039 346.378 174.68 346.732 176.269C346.91 177.061 347.183 177.834 347.568 178.552C347.974 179.257 348.496 179.896 349.133 180.408C349.789 180.898 350.536 181.246 351.32 181.465C352.112 181.658 352.927 181.733 353.74 181.707C355.368 181.655 356.957 181.242 358.474 180.712C361.513 179.628 364.285 178.012 366.873 176.269C369.458 174.509 371.861 172.587 374.108 170.585C376.359 168.587 378.461 166.518 380.429 164.423C384.362 160.226 387.769 155.935 390.704 151.748C393.636 147.558 396.102 143.469 398.066 139.588C400.028 135.709 401.534 132.057 402.505 128.741C403.479 125.433 403.966 122.464 403.894 120.032C403.859 118.82 403.722 117.741 403.453 116.846C403.404 116.617 403.307 116.412 403.242 116.208C403.172 116.004 403.102 115.81 403.009 115.635C402.922 115.458 402.841 115.289 402.762 115.129C402.673 114.975 402.576 114.836 402.492 114.7C402.332 114.422 402.141 114.214 401.984 114.028C401.906 113.936 401.837 113.847 401.766 113.775C401.691 113.706 401.623 113.644 401.562 113.59C401.322 113.368 401.2 113.252 401.2 113.252C401.2 113.252 401.329 113.359 401.577 113.575C401.639 113.629 401.709 113.69 401.785 113.757C401.858 113.829 401.928 113.917 402.008 114.009C402.167 114.193 402.362 114.4 402.526 114.678C402.612 114.814 402.711 114.952 402.802 115.107C402.882 115.268 402.966 115.438 403.054 115.615C403.15 115.789 403.221 115.984 403.293 116.188C403.362 116.394 403.46 116.599 403.512 116.829C403.787 117.73 403.93 118.812 403.972 120.029C404.055 122.471 403.577 125.451 402.611 128.771C401.649 132.097 400.149 135.758 398.19 139.648C396.231 143.539 393.767 147.638 390.837 151.839C387.903 156.035 384.496 160.335 380.56 164.541C378.59 166.642 376.487 168.716 374.232 170.72C371.982 172.728 369.573 174.657 366.98 176.423C364.383 178.173 361.602 179.797 358.538 180.89C357.009 181.424 355.404 181.844 353.748 181.897C352.921 181.923 352.086 181.846 351.273 181.649C350.467 181.424 349.696 181.066 349.018 180.558C348.357 180.029 347.82 179.368 347.403 178.644C347.007 177.906 346.729 177.116 346.547 176.309C346.187 174.691 346.195 173.034 346.33 171.42C346.626 168.182 347.505 165.084 348.554 162.134C349.618 159.184 350.886 156.371 352.268 153.691C353.647 151.009 355.131 148.455 356.674 146.025C359.767 141.165 363.082 136.794 366.414 132.907C369.752 129.023 373.107 125.615 376.386 122.748C379.664 119.882 382.837 117.517 385.818 115.756C388.792 113.991 391.559 112.785 393.944 112.258C395.133 111.995 396.218 111.863 397.159 111.905C397.394 111.898 397.617 111.942 397.835 111.956C398.05 111.975 398.257 111.995 398.45 112.044C398.643 112.085 398.828 112.124 399.004 112.161C399.176 112.21 399.336 112.272 399.488 112.321C399.798 112.411 400.048 112.547 400.266 112.656C400.375 112.712 400.478 112.757 400.566 112.808C400.65 112.867 400.726 112.918 400.795 112.965C401.065 113.152 401.2 113.252 401.2 113.252Z" fill="#FF725E"/>
<path d="M331.204 166.048C331.821 166.665 331.821 167.665 331.204 168.282C330.588 168.898 329.586 168.898 328.97 168.282C328.354 167.665 328.354 166.664 328.97 166.048C329.588 165.432 330.588 165.432 331.204 166.048Z" fill="#FF725E"/>
<path d="M420.336 117.097C420.336 117.969 419.629 118.677 418.756 118.677C417.884 118.677 417.176 117.97 417.176 117.097C417.176 116.225 417.883 115.517 418.756 115.517C419.628 115.517 420.336 116.225 420.336 117.097Z" fill="#FF725E"/>
<path d="M341.181 171.243C341.181 171.465 341.001 171.645 340.779 171.645C340.557 171.645 340.377 171.465 340.377 171.243C340.377 171.021 340.557 170.841 340.779 170.841C341.001 170.841 341.181 171.021 341.181 171.243Z" fill="#FF725E"/>
<path d="M349.749 126.977C349.749 127.199 349.569 127.378 349.347 127.378C349.125 127.378 348.945 127.199 348.945 126.977C348.945 126.754 349.125 126.575 349.347 126.575C349.569 126.575 349.749 126.754 349.749 126.977Z" fill="#FF725E"/>
<path d="M412.399 148.492C412.399 148.714 412.22 148.894 411.998 148.894C411.775 148.894 411.596 148.714 411.596 148.492C411.596 148.27 411.775 148.09 411.998 148.09C412.22 148.092 412.399 148.271 412.399 148.492Z" fill="#FF725E"/>
<path d="M417.979 129.776C417.979 129.999 417.8 130.178 417.578 130.178C417.355 130.178 417.176 129.999 417.176 129.776C417.176 129.554 417.355 129.375 417.578 129.375C417.8 129.375 417.979 129.554 417.979 129.776Z" fill="#FF725E"/>
<path d="M390.92 157.32H385.955V130.298C385.955 123.938 380.781 118.763 374.42 118.763C368.06 118.763 362.885 123.938 362.885 130.298V157.32H357.92V130.298C357.92 121.2 365.322 113.798 374.419 113.798C383.516 113.798 390.919 121.2 390.919 130.298V157.32H390.92Z" fill="#FF725E"/>
<g opacity="0.3">
<path d="M390.92 157.32H385.955V130.298C385.955 123.938 380.781 118.763 374.42 118.763C368.06 118.763 362.885 123.938 362.885 130.298V157.32H357.92V130.298C357.92 121.2 365.322 113.798 374.419 113.798C383.516 113.798 390.919 121.2 390.919 130.298V157.32H390.92Z" fill="black"/>
</g>
<path d="M393.747 173.831H355.095C353.488 173.831 352.186 172.528 352.186 170.921V148.209C352.186 146.602 353.488 145.3 355.095 145.3H393.747C395.354 145.3 396.656 146.602 396.656 148.209V170.921C396.656 172.527 395.354 173.831 393.747 173.831Z" fill="#EE7846"/>
<g opacity="0.3">
<path d="M378.137 155.847C378.137 153.794 376.473 152.13 374.42 152.13C372.367 152.13 370.703 153.794 370.703 155.847C370.703 157.546 371.849 158.964 373.406 159.407V164.964H375.434V159.407C376.991 158.964 378.137 157.546 378.137 155.847Z" fill="black"/>
</g>
<path d="M354.558 171.125C354.456 171.125 354.373 166.367 354.373 160.499C354.373 154.629 354.456 149.872 354.558 149.872C354.66 149.872 354.743 154.629 354.743 160.499C354.741 166.367 354.659 171.125 354.558 171.125Z" fill="#FAFAFA"/>
<path d="M371.51 160.613C371.499 160.631 371.336 160.554 371.075 160.366C370.813 160.178 370.464 159.857 370.116 159.389C369.423 158.479 368.79 156.828 369.2 155.045C369.632 153.266 370.939 152.075 371.967 151.572C372.486 151.31 372.942 151.18 373.261 151.129C373.58 151.078 373.759 151.083 373.761 151.103C373.777 151.173 373.056 151.24 372.092 151.801C371.142 152.337 369.957 153.486 369.56 155.129C369.178 156.775 369.722 158.335 370.331 159.239C370.942 160.175 371.556 160.557 371.51 160.613Z" fill="#FAFAFA"/>
<path d="M440.446 223.839H303.52C296.871 223.839 291.482 218.45 291.482 211.801V210.32C291.482 203.671 296.871 198.282 303.52 198.282H440.446C447.095 198.282 452.484 203.671 452.484 210.32V211.801C452.484 218.449 447.095 223.839 440.446 223.839Z" fill="#F5F5F5"/>
<path d="M441.632 258.883H304.706C298.057 258.883 292.668 253.494 292.668 246.846V245.364C292.668 238.715 298.057 233.326 304.706 233.326H441.632C448.28 233.326 453.669 238.715 453.669 245.364V246.846C453.669 253.494 448.279 258.883 441.632 258.883Z" fill="#F5F5F5"/>
<path d="M316.928 210.858V207.157H318.459V210.801C318.459 212.057 319.007 212.577 319.932 212.577C320.867 212.577 321.406 212.057 321.406 210.801V207.157H322.916V210.858C322.916 212.803 321.802 213.88 319.924 213.88C318.043 213.88 316.928 212.804 316.928 210.858Z" fill="#263238"/>
<path d="M323.832 213.295L324.323 212.237C324.776 212.53 325.465 212.728 326.088 212.728C326.767 212.728 327.023 212.548 327.023 212.265C327.023 211.434 323.955 212.285 323.955 210.254C323.955 209.29 324.824 208.61 326.306 208.61C327.004 208.61 327.779 208.77 328.261 209.055L327.77 210.102C327.269 209.819 326.769 209.725 326.306 209.725C325.645 209.725 325.362 209.933 325.362 210.198C325.362 211.066 328.432 210.226 328.432 212.228C328.432 213.172 327.553 213.843 326.034 213.843C325.172 213.843 324.304 213.606 323.832 213.295Z" fill="#263238"/>
<path d="M334.285 211.643H330.442C330.582 212.276 331.12 212.662 331.895 212.662C332.434 212.662 332.821 212.502 333.17 212.171L333.953 213.021C333.482 213.56 332.772 213.843 331.856 213.843C330.1 213.843 328.957 212.738 328.957 211.227C328.957 209.706 330.119 208.612 331.669 208.612C333.16 208.612 334.312 209.613 334.312 211.246C334.314 211.36 334.294 211.52 334.285 211.643ZM330.423 210.783H332.926C332.823 210.141 332.341 209.725 331.679 209.725C331.009 209.725 330.527 210.131 330.423 210.783Z" fill="#263238"/>
<path d="M338.452 208.612V209.972C338.328 209.963 338.235 209.953 338.121 209.953C337.309 209.953 336.77 210.396 336.77 211.369V213.767H335.297V208.687H336.704V209.357C337.062 208.866 337.666 208.612 338.452 208.612Z" fill="#263238"/>
<path d="M344.522 210.858V213.766H343.049V211.084C343.049 210.263 342.67 209.885 342.019 209.885C341.311 209.885 340.801 210.319 340.801 211.255V213.766H339.328V208.686H340.735V209.281C341.132 208.847 341.727 208.61 342.416 208.61C343.616 208.611 344.522 209.31 344.522 210.858Z" fill="#263238"/>
<path d="M350.35 210.869V213.768H348.972V213.135C348.699 213.597 348.17 213.843 347.423 213.843C346.233 213.843 345.525 213.181 345.525 212.304C345.525 211.407 346.157 210.783 347.706 210.783H348.877C348.877 210.15 348.498 209.782 347.706 209.782C347.168 209.782 346.611 209.962 346.242 210.255L345.714 209.225C346.271 208.829 347.091 208.612 347.904 208.612C349.452 208.612 350.35 209.329 350.35 210.869ZM348.877 212.162V211.643H347.867C347.178 211.643 346.961 211.897 346.961 212.237C346.961 212.605 347.272 212.851 347.792 212.851C348.281 212.851 348.706 212.625 348.877 212.162Z" fill="#263238"/>
<path d="M360.264 210.858V213.766H358.791V211.084C358.791 210.263 358.423 209.885 357.827 209.885C357.166 209.885 356.704 210.31 356.704 211.216V213.766H355.23V211.084C355.23 210.263 354.88 209.885 354.268 209.885C353.615 209.885 353.153 210.31 353.153 211.216V213.766H351.68V208.686H353.087V209.272C353.464 208.838 354.03 208.61 354.682 208.61C355.39 208.61 355.995 208.884 356.354 209.441C356.76 208.921 357.42 208.61 358.186 208.61C359.395 208.611 360.264 209.31 360.264 210.858Z" fill="#263238"/>
<path d="M366.593 211.643H362.749C362.89 212.276 363.427 212.662 364.202 212.662C364.741 212.662 365.129 212.502 365.478 212.171L366.26 213.021C365.789 213.56 365.08 213.843 364.164 213.843C362.408 213.843 361.266 212.738 361.266 211.227C361.266 209.706 362.426 208.612 363.976 208.612C365.467 208.612 366.62 209.613 366.62 211.246C366.62 211.36 366.602 211.52 366.593 211.643ZM362.731 210.783H365.232C365.129 210.141 364.647 209.725 363.985 209.725C363.316 209.725 362.834 210.131 362.731 210.783Z" fill="#263238"/>
<path d="M376.327 211.18C376.327 212.87 375.553 213.834 374.391 213.834C373.749 213.834 373.296 213.551 373.098 213.012C372.767 213.542 372.228 213.834 371.483 213.834C370.265 213.834 369.301 212.87 369.301 211.445C369.301 210.027 370.254 209.065 371.483 209.065C372.106 209.065 372.597 209.282 372.938 209.688V209.129H374.221V212.189C374.221 212.642 374.42 212.794 374.675 212.794C375.11 212.794 375.374 212.294 375.374 211.198C375.374 209.282 373.957 207.959 371.86 207.959C369.754 207.959 368.347 209.394 368.347 211.369C368.347 213.38 369.726 214.807 371.823 214.807C372.418 214.807 373.088 214.684 373.683 214.39L373.984 215.259C373.409 215.552 372.568 215.712 371.821 215.712C369.093 215.712 367.289 213.861 367.289 211.369C367.289 208.903 369.111 207.062 371.859 207.062C374.514 207.062 376.327 208.809 376.327 211.18ZM372.957 211.445C372.957 210.623 372.456 210.16 371.776 210.16C371.088 210.16 370.606 210.642 370.606 211.445C370.606 212.256 371.088 212.747 371.776 212.747C372.456 212.747 372.957 212.275 372.957 211.445Z" fill="#263238"/>
<path d="M385.959 210.858V213.766H384.486V211.084C384.486 210.263 384.118 209.885 383.522 209.885C382.861 209.885 382.4 210.31 382.4 211.216V213.766H380.925V211.084C380.925 210.263 380.575 209.885 379.963 209.885C379.31 209.885 378.848 210.31 378.848 211.216V213.766H377.375V208.686H378.782V209.272C379.159 208.838 379.725 208.61 380.378 208.61C381.086 208.61 381.69 208.884 382.049 209.441C382.455 208.921 383.115 208.61 383.881 208.61C385.091 208.611 385.959 209.31 385.959 210.858Z" fill="#263238"/>
<path d="M391.777 210.869V213.768H390.4V213.135C390.126 213.597 389.598 213.843 388.851 213.843C387.661 213.843 386.953 213.181 386.953 212.304C386.953 211.407 387.585 210.783 389.134 210.783H390.305C390.305 210.15 389.927 209.782 389.134 209.782C388.595 209.782 388.038 209.962 387.67 210.255L387.142 209.225C387.699 208.829 388.519 208.612 389.332 208.612C390.881 208.612 391.777 209.329 391.777 210.869ZM390.305 212.162V211.643H389.294C388.606 211.643 388.389 211.897 388.389 212.237C388.389 212.605 388.7 212.851 389.219 212.851C389.709 212.851 390.134 212.625 390.305 212.162Z" fill="#263238"/>
<path d="M392.932 207.157C392.932 206.694 393.3 206.335 393.848 206.335C394.395 206.335 394.764 206.675 394.764 207.128C394.764 207.619 394.395 207.978 393.848 207.978C393.3 207.978 392.932 207.619 392.932 207.157ZM393.11 208.686H394.583V213.767H393.11V208.686Z" fill="#263238"/>
<path d="M395.951 206.76H397.424V213.767H395.951V206.76Z" fill="#263238"/>
<path d="M398.436 212.918C398.436 212.37 398.841 212.011 399.352 212.011C399.863 212.011 400.268 212.37 400.268 212.918C400.268 213.455 399.862 213.843 399.352 213.843C398.843 213.843 398.436 213.455 398.436 212.918Z" fill="#263238"/>
<path d="M400.824 211.227C400.824 209.697 402.005 208.612 403.658 208.612C404.725 208.612 405.566 209.074 405.934 209.905L404.791 210.519C404.517 210.037 404.111 209.82 403.647 209.82C402.902 209.82 402.316 210.339 402.316 211.227C402.316 212.114 402.902 212.634 403.647 212.634C404.11 212.634 404.517 212.426 404.791 211.935L405.934 212.557C405.566 213.369 404.725 213.842 403.658 213.842C402.005 213.843 400.824 212.756 400.824 211.227Z" fill="#263238"/>
<path d="M406.34 211.227C406.34 209.697 407.519 208.612 409.134 208.612C410.749 208.612 411.92 209.697 411.92 211.227C411.92 212.756 410.749 213.843 409.134 213.843C407.519 213.843 406.34 212.756 406.34 211.227ZM410.429 211.227C410.429 210.348 409.872 209.82 409.136 209.82C408.399 209.82 407.832 210.348 407.832 211.227C407.832 212.105 408.399 212.634 409.136 212.634C409.872 212.634 410.429 212.105 410.429 211.227Z" fill="#263238"/>
<path d="M421.486 210.858V213.766H420.014V211.084C420.014 210.263 419.645 209.885 419.05 209.885C418.388 209.885 417.927 210.31 417.927 211.216V213.766H416.453V211.084C416.453 210.263 416.103 209.885 415.49 209.885C414.838 209.885 414.375 210.31 414.375 211.216V213.766H412.902V208.686H414.309V209.272C414.687 208.838 415.252 208.61 415.905 208.61C416.613 208.61 417.218 208.884 417.577 209.441C417.981 208.921 418.643 208.61 419.409 208.61C420.618 208.611 421.486 209.31 421.486 210.858Z" fill="#263238"/>
<path d="M336.659 246.242L339.051 247.537L337.976 249.337L335.562 247.91L335.606 250.565H333.543L333.566 247.888L331.153 249.337L330.1 247.537L332.491 246.242L330.1 244.926L331.153 243.126L333.566 244.574L333.543 241.897H335.606L335.562 244.574L337.976 243.126L339.051 244.926L336.659 246.242Z" fill="#263238"/>
<path d="M346.616 246.242L349.008 247.537L347.933 249.337L345.519 247.91L345.563 250.565H343.5L343.523 247.888L341.11 249.337L340.057 247.537L342.449 246.242L340.057 244.926L341.11 243.126L343.523 244.574L343.5 241.897H345.563L345.519 244.574L347.933 243.126L349.008 244.926L346.616 246.242Z" fill="#263238"/>
<path d="M356.573 246.242L358.965 247.537L357.89 249.337L355.476 247.91L355.52 250.565H353.457L353.48 247.888L351.067 249.337L350.014 247.537L352.406 246.242L350.014 244.926L351.067 243.126L353.48 244.574L353.457 241.897H355.52L355.476 244.574L357.89 243.126L358.965 244.926L356.573 246.242Z" fill="#263238"/>
<path d="M366.53 246.242L368.922 247.537L367.847 249.337L365.433 247.91L365.477 250.565H363.414L363.437 247.888L361.024 249.337L359.971 247.537L362.363 246.242L359.971 244.926L361.024 243.126L363.437 244.574L363.414 241.897H365.477L365.433 244.574L367.847 243.126L368.922 244.926L366.53 246.242Z" fill="#263238"/>
<path d="M376.487 246.242L378.879 247.537L377.804 249.337L375.39 247.91L375.434 250.565H373.371L373.394 247.888L370.981 249.337L369.928 247.537L372.321 246.242L369.928 244.926L370.981 243.126L373.394 244.574L373.371 241.897H375.434L375.39 244.574L377.804 243.126L378.879 244.926L376.487 246.242Z" fill="#263238"/>
<path d="M386.446 246.242L388.837 247.537L387.762 249.337L385.349 247.91L385.393 250.565H383.329L383.351 247.888L380.938 249.337L379.885 247.537L382.278 246.242L379.885 244.926L380.938 243.126L383.351 244.574L383.329 241.897H385.393L385.349 244.574L387.762 243.126L388.837 244.926L386.446 246.242Z" fill="#263238"/>
<path d="M396.401 246.242L398.793 247.537L397.718 249.337L395.304 247.91L395.348 250.565H393.285L393.308 247.888L390.895 249.337L389.842 247.537L392.235 246.242L389.842 244.926L390.895 243.126L393.308 244.574L393.285 241.897H395.348L395.304 244.574L397.718 243.126L398.793 244.926L396.401 246.242Z" fill="#263238"/>
<path d="M406.358 246.242L408.748 247.537L407.673 249.337L405.259 247.91L405.303 250.565H403.24L403.263 247.888L400.85 249.337L399.797 247.537L402.19 246.242L399.797 244.926L400.85 243.126L403.263 244.574L403.24 241.897H405.303L405.259 244.574L407.673 243.126L408.748 244.926L406.358 246.242Z" fill="#263238"/>
<path d="M515.243 433.621H322.701C318.151 433.621 314.461 429.931 314.461 425.381V325.716C314.461 321.166 318.15 317.476 322.701 317.476H515.243C519.793 317.476 523.483 321.166 523.483 325.716V425.381C523.483 429.933 519.793 433.621 515.243 433.621Z" fill="white"/>
<path d="M515.243 433.621C515.241 433.585 515.805 433.632 516.868 433.425C517.907 433.196 519.511 432.656 521.017 431.165C521.757 430.421 522.44 429.431 522.884 428.214C523.126 427.612 523.251 426.942 523.345 426.243C523.398 425.541 523.388 424.796 523.384 424.02C523.375 420.92 523.365 417.346 523.353 413.324C523.327 397.215 523.291 373.927 523.246 345.154C523.242 341.556 523.238 337.874 523.234 334.107C523.233 332.225 523.23 330.321 523.229 328.397C523.182 326.47 523.432 324.5 522.644 322.739C521.932 320.976 520.558 319.467 518.823 318.597C517.959 318.16 517.009 317.883 516.036 317.783C515.075 317.711 514.027 317.759 513.017 317.746C508.934 317.748 504.777 317.752 500.547 317.755C483.624 317.764 465.544 317.775 446.518 317.786C408.464 317.793 366.63 317.802 322.717 317.811C321.398 317.818 320.09 318.151 318.931 318.768C317.789 319.411 316.784 320.312 316.077 321.414C315.38 322.516 314.913 323.779 314.831 325.085C314.766 326.39 314.813 327.788 314.798 329.132C314.798 334.555 314.797 339.941 314.797 345.288C314.796 355.984 314.793 366.521 314.792 376.877C314.789 387.231 314.787 397.403 314.783 407.364C314.782 412.345 314.779 417.272 314.778 422.144C314.787 423.355 314.757 424.593 314.796 425.772C314.85 426.936 315.164 428.081 315.705 429.104C316.793 431.156 318.807 432.66 321.049 433.134C322.156 433.395 323.339 433.287 324.53 433.311C325.712 433.311 326.89 433.312 328.065 433.312C330.413 433.314 332.747 433.315 335.065 433.316C339.7 433.319 344.274 433.321 348.781 433.324C357.795 433.331 366.547 433.336 375.008 433.341C391.931 433.356 407.693 433.369 422.085 433.382C450.858 433.427 474.143 433.464 490.251 433.489C498.29 433.517 504.534 433.538 508.783 433.553C510.893 433.567 512.504 433.579 513.602 433.586C514.688 433.599 515.243 433.621 515.243 433.621C515.243 433.621 514.688 433.644 513.601 433.656C512.503 433.664 510.89 433.674 508.782 433.69C504.532 433.704 498.288 433.726 490.249 433.753C474.142 433.779 450.856 433.815 422.083 433.86C407.692 433.873 391.929 433.886 375.007 433.902C366.546 433.907 357.794 433.912 348.779 433.918C344.271 433.921 339.699 433.924 335.063 433.926C332.746 433.927 330.412 433.929 328.063 433.93C326.889 433.93 325.711 433.931 324.528 433.931C323.363 433.907 322.146 434.024 320.92 433.744C318.501 433.234 316.328 431.615 315.152 429.402C314.567 428.297 314.227 427.059 314.168 425.805C314.125 424.564 314.155 423.37 314.146 422.146C314.145 417.274 314.142 412.345 314.141 407.365C314.138 397.404 314.136 387.232 314.133 376.878C314.132 366.524 314.129 355.985 314.128 345.29C314.128 339.942 314.127 334.556 314.127 329.133C314.142 327.766 314.092 326.446 314.16 325.034C314.251 323.619 314.754 322.243 315.513 321.048C316.282 319.852 317.369 318.874 318.61 318.177C319.867 317.508 321.291 317.146 322.717 317.14C366.628 317.149 408.463 317.158 446.518 317.165C465.544 317.176 483.624 317.186 500.547 317.196C504.777 317.199 508.936 317.203 513.017 317.206C514.047 317.221 515.033 317.172 516.089 317.251C517.128 317.358 518.141 317.656 519.062 318.124C520.911 319.054 522.371 320.664 523.126 322.544C523.511 323.482 523.712 324.487 523.729 325.489C523.732 326.463 523.734 327.432 523.738 328.396C523.737 330.319 523.734 332.222 523.733 334.106C523.729 337.872 523.725 341.556 523.721 345.153C523.676 373.926 523.64 397.214 523.614 413.323C523.602 417.345 523.592 420.92 523.583 424.019C523.582 424.793 523.588 425.537 523.527 426.261C523.425 426.975 523.291 427.659 523.04 428.271C522.577 429.509 521.872 430.511 521.111 431.259C519.565 432.759 517.932 433.281 516.881 433.491C516.341 433.575 515.933 433.622 515.657 433.616C515.383 433.626 515.243 433.621 515.243 433.621Z" fill="#263238"/>
<path d="M387.286 358.516V359.967H381.238V352.155H387.14V353.606H383.034V355.303H386.661V356.71H383.034V358.516H387.286Z" fill="#263238"/>
<path d="M395.893 352.155V359.967H394.409L390.514 355.224V359.967H388.729V352.155H390.223L394.107 356.898V352.155H395.893Z" fill="#263238"/>
<path d="M399.363 353.628H396.863V352.154H403.671V353.628H401.171V359.965H399.363V353.628Z" fill="#263238"/>
<path d="M410.69 358.516V359.967H404.643V352.155H410.544V353.606H406.438V355.303H410.065V356.71H406.438V358.516H410.69Z" fill="#263238"/>
<path d="M417.108 359.967L415.602 357.79H415.514H413.94V359.967H412.133V352.155H415.514C417.599 352.155 418.905 353.238 418.905 354.99C418.905 356.16 418.314 357.02 417.3 357.455L419.05 359.965H417.108V359.967ZM415.413 353.628H413.94V356.35H415.413C416.518 356.35 417.076 355.836 417.076 354.989C417.076 354.131 416.518 353.628 415.413 353.628Z" fill="#263238"/>
<path d="M423.004 356.061C423.004 353.707 424.811 352.021 427.244 352.021C428.594 352.021 429.721 352.512 430.457 353.405L429.297 354.476C428.773 353.872 428.114 353.561 427.332 353.561C425.871 353.561 424.832 354.587 424.832 356.061C424.832 357.534 425.871 358.561 427.332 358.561C428.112 358.561 428.771 358.248 429.297 357.635L430.457 358.706C429.721 359.609 428.594 360.1 427.233 360.1C424.811 360.1 423.004 358.415 423.004 356.061Z" fill="#263238"/>
<path d="M431.018 356.061C431.018 353.739 432.825 352.021 435.291 352.021C437.746 352.021 439.565 353.728 439.565 356.061C439.565 358.393 437.748 360.1 435.291 360.1C432.825 360.1 431.018 358.381 431.018 356.061ZM437.735 356.061C437.735 354.577 436.687 353.561 435.29 353.561C433.896 353.561 432.846 354.575 432.846 356.061C432.846 357.544 433.896 358.561 435.29 358.561C436.687 358.561 437.735 357.546 437.735 356.061Z" fill="#263238"/>
<path d="M440.928 352.155H444.476C447.031 352.155 448.783 353.695 448.783 356.061C448.783 358.427 447.032 359.965 444.476 359.965H440.928V352.155ZM444.388 358.482C445.938 358.482 446.954 357.556 446.954 356.061C446.954 354.566 445.938 353.64 444.388 353.64H442.737V358.482H444.388Z" fill="#263238"/>
<path d="M456.194 358.516V359.967H450.146V352.155H456.048V353.606H451.942V355.303H455.569V356.71H451.942V358.516H456.194Z" fill="#263238"/>
<path d="M357.648 412.196H338.676C335.856 412.196 333.57 409.91 333.57 407.09V377.543C333.57 374.723 335.856 372.437 338.676 372.437H357.648C360.468 372.437 362.754 374.724 362.754 377.543V407.09C362.754 409.909 360.467 412.196 357.648 412.196Z" fill="#EBEBEB"/>
<path d="M394.091 412.196H375.12C372.299 412.196 370.014 409.91 370.014 407.09V377.543C370.014 374.723 372.299 372.437 375.12 372.437H394.091C396.912 372.437 399.197 374.724 399.197 377.543V407.09C399.197 409.909 396.912 412.196 394.091 412.196Z" fill="#EBEBEB"/>
<path d="M430.535 412.196H411.565C408.745 412.196 406.459 409.91 406.459 407.09V377.543C406.459 374.723 408.746 372.437 411.565 372.437H430.535C433.356 372.437 435.641 374.724 435.641 377.543V407.09C435.643 409.909 433.356 412.196 430.535 412.196Z" fill="#EBEBEB"/>
<path d="M466.98 412.196H448.008C445.188 412.196 442.902 409.91 442.902 407.09V377.543C442.902 374.723 445.189 372.437 448.008 372.437H466.98C469.801 372.437 472.086 374.724 472.086 377.543V407.09C472.086 409.909 469.801 412.196 466.98 412.196Z" fill="#EBEBEB"/>
<path d="M503.423 412.196H484.452C481.631 412.196 479.346 409.91 479.346 407.09V377.543C479.346 374.723 481.631 372.437 484.452 372.437H503.423C506.244 372.437 508.529 374.724 508.529 377.543V407.09C508.531 409.909 506.244 412.196 503.423 412.196Z" fill="#EBEBEB"/>
<path d="M354.52 395.388C354.52 398.227 352.325 400.068 349.352 400.068C345.272 400.068 343.121 397.14 343.121 392.284C343.121 387.028 345.916 384.321 350.019 384.321C351.349 384.321 352.591 384.543 353.545 385.119L353.079 386.029C352.281 385.519 351.193 385.318 350.019 385.318C346.537 385.318 344.252 387.604 344.252 392.105C344.252 392.57 344.275 393.259 344.386 393.968C345.029 391.928 346.98 390.775 349.332 390.775C352.436 390.775 354.52 392.594 354.52 395.388ZM353.389 395.409C353.389 393.192 351.793 391.75 349.175 391.75C346.624 391.75 344.872 393.369 344.872 395.454C344.872 397.272 346.403 399.09 349.308 399.09C351.726 399.091 353.389 397.651 353.389 395.409Z" fill="#FF725E"/>
<path d="M390.572 395.655H387.312V399.957H386.204V395.655H377.354V394.833L385.781 384.431H387.045L378.773 394.656H386.226V390.862H387.312V394.656H390.572V395.655Z" fill="#FF725E"/>
<path d="M428.161 402.16C428.161 402.346 425.132 402.496 421.398 402.496C417.662 402.496 414.635 402.344 414.635 402.16C414.635 401.974 417.662 401.824 421.398 401.824C425.132 401.824 428.161 401.975 428.161 402.16Z" fill="#FF725E"/>
<path d="M327.731 332.232C329.478 332.232 330.895 330.815 330.895 329.067C330.895 327.32 329.478 325.903 327.731 325.903C325.983 325.903 324.566 327.32 324.566 329.067C324.566 330.815 325.983 332.232 327.731 332.232Z" fill="#263238"/>
<path d="M340.016 329.067C340.016 330.816 338.6 332.232 336.852 332.232C335.103 332.232 333.688 330.814 333.688 329.067C333.688 327.321 335.103 325.903 336.852 325.903C338.6 325.903 340.016 327.319 340.016 329.067Z" fill="#263238"/>
<path d="M345.807 332.232C347.554 332.232 348.971 330.815 348.971 329.067C348.971 327.32 347.554 325.903 345.807 325.903C344.059 325.903 342.643 327.32 342.643 329.067C342.643 330.815 344.059 332.232 345.807 332.232Z" fill="#263238"/>
<path d="M523.798 337.985C523.798 338.171 476.999 338.321 419.283 338.321C361.548 338.321 314.758 338.17 314.758 337.985C314.758 337.799 361.546 337.649 419.283 337.649C476.999 337.648 523.798 337.799 523.798 337.985Z" fill="#263238"/>
<path d="M289.016 174.877H188.374C185.482 174.877 183.139 177.221 183.139 180.113V225.962C183.139 228.853 185.482 231.197 188.374 231.197H230.595L239.563 242.697L247.037 231.197H289.017C291.908 231.197 294.252 228.853 294.252 225.962V180.113C294.251 177.221 291.907 174.877 289.016 174.877Z" fill="white"/>
<path d="M289.016 174.877C289.016 174.877 289.183 174.868 289.514 174.876C289.84 174.91 290.339 174.956 290.949 175.195C291.554 175.425 292.287 175.826 292.94 176.542C293.601 177.237 294.163 178.27 294.318 179.533C294.415 184.527 294.399 191.786 294.44 200.985C294.452 205.583 294.464 210.661 294.477 216.168C294.483 218.923 294.489 221.786 294.494 224.751C294.481 225.482 294.548 226.245 294.392 227.037C294.242 227.813 293.909 228.559 293.435 229.205C292.497 230.511 290.927 231.384 289.262 231.444C276.6 231.462 262.4 231.484 247.036 231.506L247.296 231.365C244.95 234.981 242.415 238.887 239.831 242.87L239.585 243.248L239.309 242.892C236.477 239.264 233.433 235.364 230.336 231.397L230.594 231.524C218.965 231.526 206.796 231.529 194.31 231.532C192.853 231.532 191.399 231.532 189.951 231.532C189.214 231.519 188.532 231.564 187.745 231.494C186.982 231.409 186.238 231.161 185.577 230.773C184.25 230.006 183.272 228.675 182.943 227.187C182.762 226.432 182.811 225.676 182.803 224.982V222.849C182.805 217.172 182.807 211.578 182.809 206.081C182.811 200.583 182.814 195.184 182.816 189.896C182.818 187.252 182.82 184.636 182.821 182.049L182.823 180.115C182.827 179.434 182.952 178.755 183.197 178.124C183.683 176.858 184.644 175.797 185.834 175.186C186.429 174.88 187.076 174.677 187.738 174.609C188.416 174.547 189.019 174.579 189.647 174.571C190.894 174.573 192.133 174.574 193.363 174.575C195.824 174.578 198.252 174.58 200.645 174.583C205.43 174.589 210.076 174.595 214.567 174.6C223.549 174.615 231.917 174.628 239.558 174.641C254.821 174.686 267.179 174.722 275.745 174.748C280.001 174.775 283.311 174.797 285.583 174.812C286.692 174.826 287.543 174.837 288.141 174.845C288.722 174.854 289.016 174.877 289.016 174.877C289.016 174.877 288.72 174.901 288.144 174.912C287.545 174.92 286.694 174.932 285.586 174.946C283.313 174.96 280.003 174.982 275.747 175.009C267.181 175.035 254.823 175.071 239.561 175.116C231.92 175.129 223.552 175.142 214.57 175.158C210.077 175.163 205.431 175.168 200.647 175.175C198.254 175.177 195.827 175.18 193.365 175.182C192.135 175.184 190.896 175.185 189.65 175.186C189.032 175.194 188.382 175.167 187.81 175.222C187.222 175.284 186.648 175.465 186.121 175.738C185.066 176.283 184.213 177.226 183.785 178.35C183.57 178.911 183.458 179.512 183.456 180.118L183.457 182.052C183.458 184.639 183.461 187.255 183.462 189.898C183.465 195.186 183.467 200.586 183.47 206.083C183.471 211.581 183.474 217.175 183.475 222.852V224.985C183.482 225.711 183.44 226.399 183.599 227.042C183.889 228.349 184.75 229.52 185.917 230.194C186.498 230.534 187.151 230.753 187.823 230.828C188.474 230.888 189.241 230.849 189.953 230.861C191.402 230.861 192.855 230.861 194.313 230.861C206.798 230.864 218.968 230.866 230.597 230.869H230.757L230.855 230.995C233.948 234.966 236.989 238.869 239.817 242.499L239.295 242.521C241.885 238.542 244.425 234.64 246.777 231.028L246.868 230.886H247.036C262.391 230.9 276.583 230.913 289.238 230.924C290.747 230.875 292.171 230.09 293.028 228.906C293.461 228.32 293.767 227.645 293.905 226.94C294.051 226.246 293.992 225.498 294.007 224.751C294.014 221.786 294.019 218.923 294.024 216.168C294.038 210.661 294.051 205.584 294.061 200.985C294.086 191.813 294.105 184.549 294.118 179.554C293.984 178.339 293.458 177.33 292.826 176.644C292.205 175.938 291.498 175.531 290.91 175.29C289.712 174.818 289.006 174.93 289.016 174.877Z" fill="#263238"/>
<path d="M219.851 187.816V189.513H218.743V187.804L216.889 184.725H218.066L219.345 186.852L220.624 184.725H221.712L219.851 187.816Z" fill="#263238"/>
<path d="M221.676 187.118C221.676 185.697 222.784 184.642 224.296 184.642C225.801 184.642 226.916 185.689 226.916 187.118C226.916 188.548 225.801 189.595 224.296 189.595C222.784 189.595 221.676 188.542 221.676 187.118ZM225.793 187.118C225.793 186.208 225.151 185.585 224.295 185.585C223.439 185.585 222.796 186.207 222.796 187.118C222.796 188.027 223.439 188.651 224.295 188.651C225.151 188.65 225.793 188.027 225.793 187.118Z" fill="#263238"/>
<path d="M227.715 187.406V184.725H228.823V187.366C228.823 188.276 229.22 188.651 229.891 188.651C230.568 188.651 230.958 188.276 230.958 187.366V184.725H232.052V187.406C232.052 188.816 231.245 189.595 229.883 189.595C228.522 189.595 227.715 188.814 227.715 187.406Z" fill="#263238"/>
<path d="M236.202 189.513L235.278 188.18H235.224H234.259V189.513H233.15V184.725H235.224C236.503 184.725 237.303 185.389 237.303 186.463C237.303 187.181 236.94 187.708 236.318 187.974L237.392 189.513H236.202ZM235.162 185.627H234.259V187.296H235.162C235.839 187.296 236.181 186.982 236.181 186.462C236.181 185.934 235.84 185.627 235.162 185.627Z" fill="#263238"/>
<path d="M239.822 187.118C239.822 185.675 240.931 184.642 242.422 184.642C243.25 184.642 243.94 184.942 244.392 185.49L243.68 186.146C243.358 185.778 242.954 185.585 242.476 185.585C241.581 185.585 240.944 186.215 240.944 187.118C240.944 188.021 241.581 188.651 242.476 188.651C242.955 188.651 243.358 188.46 243.68 188.084L244.392 188.741C243.94 189.296 243.25 189.596 242.415 189.596C240.931 189.595 239.822 188.561 239.822 187.118Z" fill="#263238"/>
<path d="M244.738 187.118C244.738 185.697 245.847 184.642 247.358 184.642C248.864 184.642 249.979 185.689 249.979 187.118C249.979 188.548 248.864 189.595 247.358 189.595C245.847 189.595 244.738 188.542 244.738 187.118ZM248.857 187.118C248.857 186.208 248.214 185.585 247.358 185.585C246.503 185.585 245.86 186.207 245.86 187.118C245.86 188.027 246.503 188.651 247.358 188.651C248.214 188.65 248.857 188.027 248.857 187.118Z" fill="#263238"/>
<path d="M250.818 184.724H252.994C254.561 184.724 255.635 185.667 255.635 187.116C255.635 188.567 254.561 189.512 252.994 189.512H250.818V184.724ZM252.94 188.602C253.891 188.602 254.513 188.035 254.513 187.116C254.513 186.2 253.891 185.633 252.94 185.633H251.927V188.602H252.94Z" fill="#263238"/>
<path d="M260.183 188.623V189.513H256.475V184.725H260.094V185.614H257.577V186.654H259.8V187.516H257.577V188.623H260.183Z" fill="#263238"/>
<path d="M279.196 220.816H198.191C195.662 220.816 193.611 218.765 193.611 216.236V199.123C193.611 196.593 195.662 194.543 198.191 194.543H279.196C281.726 194.543 283.776 196.593 283.776 199.123V216.236C283.776 218.764 281.726 220.816 279.196 220.816Z" fill="#F5F5F5"/>
<path d="M211.942 209.287C211.942 211.614 210.142 213.123 207.707 213.123C204.362 213.123 202.6 210.724 202.6 206.742C202.6 202.435 204.889 200.218 208.252 200.218C209.343 200.218 210.361 200.4 211.142 200.871L210.76 201.617C210.106 201.199 209.215 201.035 208.252 201.035C205.399 201.035 203.526 202.907 203.526 206.597C203.526 206.98 203.544 207.542 203.634 208.125C204.162 206.453 205.761 205.508 207.687 205.508C210.234 205.507 211.942 206.998 211.942 209.287ZM211.016 209.307C211.016 207.489 209.707 206.308 207.562 206.308C205.472 206.308 204.036 207.634 204.036 209.344C204.036 210.834 205.291 212.325 207.671 212.325C209.653 212.324 211.016 211.143 211.016 209.307Z" fill="#FF725E"/>
<path d="M228.831 209.506H226.16V213.033H225.25V209.506H217.998V208.834L224.905 200.309H225.941L219.161 208.688H225.268V205.579H226.158V208.688H228.83L228.831 209.506Z" fill="#FF725E"/>
<path d="M242.957 209.452C242.957 211.56 241.43 213.123 238.503 213.123C236.631 213.123 234.904 212.433 234.014 211.415L234.487 210.706C235.268 211.596 236.758 212.269 238.503 212.269C240.794 212.269 242.011 211.179 242.011 209.452C242.011 207.743 240.848 206.634 238.303 206.634H237.503V205.962L241.266 201.144H234.485V200.309H242.465V200.963L238.648 205.853C241.538 205.926 242.957 207.38 242.957 209.452Z" fill="#FF725E"/>
<path d="M258.337 200.309V200.963L252.865 213.033H251.847L257.265 201.145H250.121V203.582H249.213V200.311H258.337V200.309Z" fill="#FF725E"/>
<path d="M264.828 206.671C264.828 202.69 266.882 200.219 269.807 200.219C272.734 200.219 274.788 202.69 274.788 206.671C274.788 210.652 272.734 213.123 269.807 213.123C266.882 213.123 264.828 210.652 264.828 206.671ZM273.862 206.671C273.862 203.127 272.208 201.073 269.807 201.073C267.408 201.073 265.754 203.127 265.754 206.671C265.754 210.215 267.408 212.269 269.807 212.269C272.208 212.269 273.862 210.215 273.862 206.671Z" fill="#FF725E"/>
<path d="M541.869 539.431C558.784 532.251 578.367 518.128 587.102 500.809C568.858 508.139 552.768 521.876 541.869 539.431Z" fill="#263238"/>
<path d="M545.465 512.555C562.38 505.375 581.963 491.251 590.698 473.933C572.453 481.264 556.364 495 545.465 512.555Z" fill="#263238"/>
<path d="M550.359 486.413C567.274 479.234 586.857 465.111 595.592 447.792C577.348 455.123 561.259 468.859 550.359 486.413Z" fill="#263238"/>
<path d="M556.494 459.048C572.452 449.579 590.239 432.865 596.867 414.505C579.604 424.308 565.244 440.152 556.494 459.048Z" fill="#263238"/>
<path d="M563.051 438.107C574.68 422.898 585.519 400.267 585.377 380.654C572.645 396.705 564.705 417.139 563.051 438.107Z" fill="#263238"/>
<path d="M559.8 448.062C557.451 427.498 549.453 401.64 535.871 386.219C538.029 408.255 546.539 430.252 559.8 448.062Z" fill="#263238"/>
<path d="M554.332 470.557C550.193 449.354 539.729 423.13 524.309 408.258C528.369 431.01 539.049 453.169 554.332 470.557Z" fill="#263238"/>
<path d="M548.053 497.989C543.913 476.786 533.449 450.562 518.029 435.69C522.09 458.442 532.768 480.601 548.053 497.989Z" fill="#263238"/>
<path d="M543.012 531.667C538.872 510.464 528.408 484.24 512.988 469.368C517.049 492.12 527.729 514.279 543.012 531.667Z" fill="#263238"/>
<path d="M563.839 434.077C563.827 434.075 563.783 434.182 563.708 434.394C563.624 434.644 563.518 434.956 563.388 435.342C563.104 436.228 562.712 437.456 562.215 439.01C561.198 442.196 559.822 446.837 558.213 452.597C556.592 458.354 554.812 465.251 552.973 472.942C551.168 480.641 549.328 489.141 547.632 498.109C545.956 507.083 544.587 515.673 543.473 523.503C542.39 531.338 541.55 538.411 540.966 544.364C540.373 550.315 539.969 555.138 539.758 558.475C539.656 560.104 539.575 561.388 539.517 562.319C539.499 562.727 539.483 563.055 539.47 563.319C539.464 563.545 539.466 563.661 539.477 563.661C539.488 563.662 539.509 563.547 539.538 563.324C539.567 563.061 539.603 562.735 539.649 562.328C539.736 561.401 539.859 560.121 540.013 558.496C540.302 555.166 540.778 550.352 541.43 544.413C542.072 538.472 542.96 531.411 544.075 523.588C545.221 515.77 546.607 507.194 548.28 498.23C549.976 489.273 551.795 480.779 553.565 473.08C555.37 465.389 557.101 458.487 558.664 452.719C560.215 446.948 561.521 442.29 562.461 439.084C562.909 437.514 563.26 436.276 563.514 435.381C563.619 434.987 563.704 434.668 563.773 434.412C563.827 434.195 563.85 434.08 563.839 434.077Z" fill="#263238"/>
<path d="M533.626 550.63C540.798 535.608 546.017 514.489 542.495 498.003C534.538 513.94 531.383 532.66 533.626 550.63Z" fill="#455A64"/>
<path d="M521.695 531.179C528.867 516.157 534.085 495.038 530.563 478.551C522.607 494.489 519.452 513.208 521.695 531.179Z" fill="#455A64"/>
<path d="M510.995 511.4C518.167 496.378 523.385 475.259 519.863 458.773C511.907 474.711 508.753 493.429 510.995 511.4Z" fill="#455A64"/>
<path d="M500.45 490.071C505.785 474.171 508.462 452.497 503.018 436.641C497.014 453.559 496.102 472.565 500.45 490.071Z" fill="#455A64"/>
<path d="M493.592 472.605C493.067 455.689 488.092 434.501 477.588 422.01C477.842 440.143 483.534 458.14 493.592 472.605Z" fill="#455A64"/>
<path d="M496.765 480.991C484.323 469.251 465.402 457.594 448.396 456.068C461.496 468.871 478.7 477.735 496.765 480.991Z" fill="#455A64"/>
<path d="M505.157 498.785C491.212 487.737 470.496 477.365 452.588 477.324C467.304 489.414 486.002 497.047 505.157 498.785Z" fill="#455A64"/>
<path d="M515.641 520.245C501.697 509.197 480.981 498.825 463.072 498.783C477.788 510.874 496.486 518.507 515.641 520.245Z" fill="#455A64"/>
<path d="M530.249 544.946C516.304 533.899 495.588 523.526 477.68 523.486C492.396 535.576 511.093 543.209 530.249 544.946Z" fill="#455A64"/>
<path d="M491.963 469.535C491.953 469.539 491.98 469.633 492.042 469.814C492.119 470.029 492.215 470.291 492.33 470.61C492.616 471.354 493.006 472.37 493.497 473.651C494.512 476.291 496.065 480.079 498.056 484.729C502.037 494.027 507.932 506.716 515.258 520.309C518.932 527.101 522.607 533.475 526.052 539.209C529.529 544.925 532.749 550.016 535.558 554.224C538.354 558.44 540.674 561.812 542.328 564.107C543.131 565.219 543.768 566.1 544.235 566.748C544.439 567.019 544.607 567.243 544.744 567.425C544.861 567.576 544.926 567.65 544.935 567.643C544.944 567.637 544.898 567.55 544.797 567.387C544.674 567.195 544.523 566.961 544.339 566.674C543.896 566.011 543.293 565.108 542.531 563.967C540.939 561.631 538.677 558.223 535.931 553.981C533.173 549.746 529.996 544.636 526.551 538.91C523.136 533.167 519.481 526.794 515.813 520.011C508.498 506.436 502.547 493.798 498.466 484.552C496.424 479.929 494.809 476.171 493.724 473.56C493.187 472.297 492.76 471.297 492.448 470.565C492.308 470.253 492.194 470 492.101 469.791C492.02 469.618 491.973 469.531 491.963 469.535Z" fill="#263238"/>
<path d="M499.463 552.442H570.731V566.179H563.408L557.24 605.352H513.188L506.844 566.179H499.463V552.442Z" fill="#EE7846"/>
<path d="M499.463 565.892C499.463 565.709 515.303 565.562 534.838 565.562C554.379 565.562 570.215 565.71 570.215 565.892C570.215 566.074 554.379 566.223 534.838 566.223C515.303 566.223 499.463 566.074 499.463 565.892Z" fill="#263238"/>
<path d="M91.2337 605.376H79.6664L75.377 553.305H88.9985L91.2337 605.376Z" fill="#263238"/>
<path d="M191.48 605.376H203.049L207.337 553.305H193.716L191.48 605.376Z" fill="#263238"/>
<path d="M215.286 559.897L66.4012 563.392L61.8702 467.227C61.427 457.811 68.9413 449.934 78.3677 449.934H205.219C214.79 449.934 222.357 458.045 221.694 467.593L215.286 559.897Z" fill="#EE7846"/>
<path d="M222.919 466.898C222.919 466.91 222.778 466.921 222.503 466.934C222.191 466.943 221.79 466.955 221.282 466.97C220.164 466.987 218.592 467.01 216.589 467.041C212.469 467.057 206.583 467.077 199.33 467.103C184.757 467.128 164.623 466.964 142.401 467.479C120.167 468.218 100.017 468.092 85.4475 467.871C78.1606 467.756 72.2652 467.614 68.1915 467.491C66.1902 467.422 64.6192 467.368 63.5016 467.331C62.9951 467.306 62.5933 467.287 62.2819 467.271C62.0067 467.254 61.8672 467.239 61.8672 467.227C61.8672 467.216 62.008 467.207 62.2832 467.201C62.5946 467.2 62.9977 467.198 63.5042 467.194C64.6217 467.202 66.1941 467.213 68.1967 467.227C72.3169 467.267 78.2007 467.323 85.4527 467.393C100.025 467.492 120.154 467.543 142.385 466.805C164.624 466.289 184.76 466.528 199.331 466.625C206.584 466.689 212.468 466.742 216.589 466.776C218.592 466.8 220.164 466.819 221.282 466.832C221.788 466.845 222.191 466.854 222.503 466.862C222.778 466.875 222.919 466.886 222.919 466.898Z" fill="#263238"/>
<path d="M116.179 451.438C116.22 451.662 111.514 451.743 106.512 454.338C101.474 456.865 98.6479 460.629 98.4903 460.464C98.4309 460.42 99.0407 459.429 100.334 458.072C101.62 456.715 103.651 455.049 106.207 453.739C108.768 452.438 111.308 451.771 113.161 451.527C115.018 451.276 116.179 451.364 116.179 451.438Z" fill="#263238"/>
<path d="M177.414 276.593L195.615 309.84L222.277 294.927L235.242 299.206C235.242 299.206 202.531 334.673 197.224 336.479C191.918 338.286 181.867 338.615 176.12 331.425C170.888 324.878 155.66 290.501 155.66 290.501L177.414 276.593Z" fill="#FFBE9D"/>
<path d="M252.344 254.889C251.87 254.303 251.124 254.007 250.378 254.11L237.698 255.855C236.585 256.026 235.6 256.663 234.986 257.607L208.656 298.075L210.681 299.206L224.7 298.766L252.742 255.386L252.344 254.889Z" fill="#263238"/>
<path d="M243.37 260.145C243.64 260.383 244.116 260.282 244.432 259.922C244.748 259.561 244.785 259.077 244.515 258.84C244.245 258.604 243.77 258.703 243.453 259.064C243.136 259.424 243.1 259.909 243.37 260.145Z" fill="white"/>
<path d="M252.744 255.383C252.75 255.436 251.877 255.605 250.293 255.868C248.578 256.132 246.313 256.484 243.573 256.908C242.14 257.118 240.587 257.346 238.928 257.59C238.13 257.662 237.422 258.074 236.968 258.744C236.481 259.499 235.981 260.275 235.468 261.069C233.395 264.267 231.126 267.763 228.745 271.434C223.955 278.777 219.584 285.401 216.388 290.174C214.831 292.471 213.544 294.369 212.57 295.806C211.654 297.126 211.127 297.843 211.083 297.814C211.039 297.785 211.482 297.014 212.321 295.643C213.243 294.173 214.462 292.23 215.936 289.879C219.016 285.031 223.316 278.36 228.105 271.016C230.504 267.357 232.79 263.871 234.879 260.684C235.404 259.892 235.915 259.118 236.414 258.364C236.97 257.533 237.942 257.024 238.826 256.963C240.492 256.753 242.052 256.555 243.49 256.373C246.247 256.046 248.527 255.776 250.251 255.572C251.85 255.402 252.736 255.331 252.744 255.383Z" fill="#455A64"/>
<path d="M238.678 269.851C238.678 269.851 237.548 269.648 236.929 272.74C236.31 275.831 234.317 284.698 234.317 284.698L228.396 281.552L220.989 282.518C220.989 282.518 219.373 284.011 220.558 284.823C221.744 285.633 226.426 286.47 226.426 286.47L229.879 291.435L219.969 286.657C219.969 286.657 216.662 287.519 217.63 289.537C218.599 291.555 225.281 297.869 225.281 297.869L220.316 297.493L214.412 293.908C214.412 293.908 212.6 293.991 213.276 295.533C213.952 297.076 220.091 302.651 220.091 302.651L227.537 306.263C227.537 306.263 231.602 305.944 231.992 304.75C232.382 303.557 232.482 301.854 232.482 301.854C232.482 301.854 234.639 301.272 235.042 300.226C235.445 299.179 235.186 297.524 235.186 297.524C235.186 297.524 238.572 298.118 238.993 296.231C239.414 294.343 239.06 290.624 238.719 289.171C238.378 287.719 240.164 274.22 240.024 273.813C239.885 273.404 240.801 268.958 238.678 269.851Z" fill="#FFBE9D"/>
<path d="M232.252 304.766C232.276 304.854 231.557 305.17 230.31 305.369C229.067 305.572 227.289 305.591 225.403 305.146C223.516 304.693 221.938 303.874 220.921 303.134C219.896 302.395 219.396 301.788 219.458 301.721C219.599 301.529 221.957 303.572 225.58 304.403C229.184 305.293 232.212 304.531 232.252 304.766Z" fill="#EB996E"/>
<path d="M230.488 302.095C230.372 302.267 229.053 301.576 227.644 300.42C226.233 299.265 225.297 298.107 225.443 297.96C225.593 297.807 226.746 298.7 228.127 299.83C229.507 300.962 230.608 301.918 230.488 302.095Z" fill="#EB996E"/>
<path d="M234.404 295.671C234.291 295.843 232.981 295.169 231.661 293.945C230.336 292.726 229.56 291.474 229.723 291.348C229.891 291.214 230.902 292.211 232.179 293.386C233.45 294.564 234.525 295.493 234.404 295.671Z" fill="#EB996E"/>
<path d="M238.525 290.496C238.322 290.582 237.574 289.184 236.393 287.662C235.225 286.13 234.068 285.049 234.202 284.874C234.317 284.709 235.758 285.575 236.998 287.197C238.249 288.814 238.715 290.427 238.525 290.496Z" fill="#EB996E"/>
<path d="M243.561 530.11C243.605 530.108 243.648 529.67 243.525 528.885C243.397 528.109 243.078 526.973 242.287 525.77C242.084 525.476 241.883 525.159 241.55 524.87C241.234 524.583 240.689 524.363 240.163 524.557C239.902 524.641 239.641 524.88 239.551 525.173C239.453 525.471 239.502 525.765 239.579 526.004C239.751 526.498 240.008 526.849 240.224 527.255C240.705 528.064 241.101 528.869 241.715 529.779C242.025 530.246 242.723 530.63 243.36 530.52C243.986 530.44 244.493 530.137 244.949 529.816C245.834 529.173 246.613 528.442 247.283 527.664C247.618 527.276 247.924 526.874 248.203 526.467C248.467 526.064 248.777 525.653 248.895 525.091C249.013 524.549 248.808 523.838 248.193 523.591C247.569 523.366 247.061 523.679 246.714 523.925C246.008 524.511 245.584 525.111 245.154 525.692C244.334 526.852 243.882 527.915 243.626 528.658C243.375 529.406 243.316 529.839 243.36 529.851C243.486 529.903 243.906 528.179 245.57 526C245.984 525.484 246.497 524.856 247.069 524.418C247.361 524.208 247.727 524.074 247.948 524.186C248.181 524.27 248.311 524.62 248.234 524.958C248.162 525.307 247.9 525.68 247.628 526.069C247.358 526.451 247.063 526.828 246.742 527.195C246.1 527.927 245.354 528.618 244.521 529.223C244.119 529.511 243.684 529.748 243.277 529.798C242.869 529.848 242.548 529.686 242.28 529.338C241.769 528.596 241.28 527.679 240.808 526.916C240.582 526.518 240.309 526.132 240.19 525.8C240.066 525.45 240.135 525.224 240.379 525.127C240.94 524.896 241.485 525.529 241.864 526.066C243.438 528.3 243.418 530.155 243.561 530.11Z" fill="#263238"/>
<path d="M211.809 531.197L196.044 565.364L170.604 553.612L186.91 511.324L211.809 531.197Z" fill="#FFBE9D"/>
<path d="M199.024 563.084L189.814 580.649C189.814 580.649 213.391 605.028 211.177 610.478L155.75 583.902L170.978 548.671L199.024 563.084Z" fill="#455A64"/>
<path d="M173.824 570.029C172.611 569.808 171.292 570.658 171.021 571.861C170.751 573.064 171.604 574.414 172.813 574.656C174.022 574.898 175.637 573.926 175.772 572.699C175.906 571.473 174.817 569.944 173.585 569.999" fill="#E0E0E0"/>
<g opacity="0.6">
<path d="M155.75 583.902L158.056 579.485L210.337 606.617C210.337 606.617 212.29 608.874 211.178 610.478L155.75 583.902Z" fill="white"/>
</g>
<path d="M190.847 580.798C190.708 581.064 189.296 580.538 187.547 580.771C185.792 580.957 184.543 581.8 184.345 581.573C184.122 581.401 185.3 579.976 187.423 579.733C189.543 579.47 191.025 580.577 190.847 580.798Z" fill="#263238"/>
<path d="M195.507 585.989C195.444 586.281 194.051 586.179 192.582 586.883C191.094 587.545 190.268 588.67 190.005 588.529C189.729 588.45 190.303 586.775 192.144 585.935C193.979 585.078 195.625 585.728 195.507 585.989Z" fill="#263238"/>
<path d="M195.472 594.53C195.198 594.47 195.471 592.937 196.877 591.789C198.274 590.63 199.831 590.657 199.838 590.937C199.884 591.233 198.681 591.635 197.542 592.596C196.379 593.528 195.754 594.632 195.472 594.53Z" fill="#263238"/>
<path d="M193.49 574.032C193.259 574.224 192.196 573.255 190.615 572.626C189.048 571.964 187.612 571.906 187.582 571.607C187.519 571.335 189.162 570.891 191.012 571.66C192.867 572.412 193.725 573.882 193.49 574.032Z" fill="#263238"/>
<path d="M204.217 558.524L245.773 454.524C245.773 454.524 244.839 436.78 241.57 431.177C238.302 425.573 139.307 392.886 139.307 392.886C139.307 392.886 114.091 386.814 97.2811 392.886C80.4709 398.955 67.8622 419.968 70.1969 431.643C72.5315 443.317 82.3843 451.892 82.3843 451.892L155.183 454.057L194.862 468.532L168.141 545.113L204.217 558.524Z" fill="#29415B"/>
<path d="M241.178 487.457L242.116 525.075L214.101 525.76L210.064 480.617L241.178 487.457Z" fill="#FFBE9D"/>
<path d="M243.782 521.713L243.27 541.54C243.27 541.54 275.188 553.007 275.608 558.874L214.142 559.497L212.252 521.162L243.782 521.713Z" fill="#455A64"/>
<path d="M224.238 539.07C223.052 539.407 222.243 540.754 222.531 541.953C222.819 543.152 224.181 543.986 225.374 543.67C226.565 543.353 227.585 541.768 227.166 540.608C226.744 539.449 225.092 538.557 224.012 539.15" fill="#E0E0E0"/>
<g opacity="0.6">
<path d="M214.143 559.497L214.261 554.515L273.15 555.781C273.15 555.781 275.898 556.944 275.608 558.874L214.143 559.497Z" fill="white"/>
</g>
<path d="M244.264 541.217C244.257 541.517 242.757 541.668 241.291 542.649C239.798 543.591 239.049 544.898 238.773 544.782C238.495 544.726 238.925 542.928 240.722 541.773C242.508 540.601 244.326 540.941 244.264 541.217Z" fill="#263238"/>
<path d="M250.738 543.818C250.809 544.107 249.514 544.632 248.508 545.911C247.464 547.162 247.221 548.536 246.921 548.526C246.639 548.576 246.415 546.821 247.696 545.253C248.964 543.676 250.729 543.533 250.738 543.818Z" fill="#263238"/>
<path d="M254.477 551.497C254.204 551.564 253.771 550.068 254.526 548.416C255.269 546.759 256.677 546.096 256.806 546.345C256.978 546.591 256.076 547.481 255.478 548.847C254.849 550.198 254.775 551.464 254.477 551.497Z" fill="#263238"/>
<path d="M243.649 533.978C243.526 534.253 242.145 533.853 240.45 533.986C238.752 534.084 237.438 534.667 237.278 534.411C237.102 534.195 238.38 533.073 240.379 532.945C242.376 532.8 243.795 533.742 243.649 533.978Z" fill="#263238"/>
<path d="M224.818 383.019C224.818 383.019 241.604 381.676 243.471 399.888C245.339 418.1 247.172 503.088 247.172 503.088L207.947 506.357L201.878 419.502L139.305 392.886C139.305 392.886 213.611 380.684 224.818 383.019Z" fill="#29415B"/>
<path d="M155.635 358.443C155.635 358.443 165.822 387.004 163.882 390.188C161.941 393.371 135.746 406.468 135.746 406.468L70.1975 431.643C70.1975 431.643 63.4648 420.933 63.4648 404.484C63.4648 388.034 86.2648 358.443 86.2648 358.443H155.635Z" fill="#29415B"/>
<path d="M136.205 391.428C136.201 391.438 136.305 391.494 136.513 391.593C136.753 391.705 137.059 391.847 137.443 392.024C138.307 392.409 139.52 392.948 141.073 393.639C144.292 395.041 148.913 397.053 154.699 399.574C166.39 404.607 182.777 411.661 201.739 419.824L201.527 419.525C202.122 428.104 202.765 437.37 203.431 446.957C205.025 469.367 206.495 490.028 207.658 506.375L207.679 506.671L207.973 506.645C219.904 505.598 229.693 504.739 236.548 504.137C239.919 503.822 242.567 503.575 244.417 503.402C245.287 503.311 245.97 503.24 246.472 503.189C246.936 503.136 247.174 503.101 247.172 503.087C247.171 503.071 246.931 503.078 246.464 503.101C245.959 503.133 245.275 503.176 244.401 503.23C242.548 503.366 239.896 503.561 236.52 503.808C229.659 504.349 219.862 505.122 207.923 506.065L208.238 506.335C207.115 489.984 205.698 469.319 204.159 446.907C203.485 437.321 202.832 428.055 202.228 419.477L202.212 419.263L202.015 419.179C183.01 411.113 166.588 404.141 154.872 399.168C149.052 396.728 144.403 394.778 141.166 393.422C139.594 392.777 138.367 392.273 137.491 391.913C137.097 391.758 136.781 391.634 136.536 391.538C136.321 391.455 136.209 391.419 136.205 391.428Z" fill="#455A64"/>
<path d="M84.0746 394.286C84.0913 394.334 84.7464 394.152 85.9144 393.783C87.2167 393.363 88.8718 392.83 90.8498 392.192C95.0139 390.871 100.792 389.029 107.367 388.018C113.942 387.004 120.026 387.317 124.275 388.235C128.544 389.118 130.997 390.336 131.052 390.198C131.07 390.159 130.477 389.825 129.346 389.335C128.218 388.841 126.532 388.243 124.386 387.729C120.106 386.666 113.913 386.265 107.257 387.294C100.603 388.318 94.8137 390.252 90.6831 391.701C88.6159 392.434 86.9583 393.064 85.8175 393.513C84.6792 393.965 84.0578 394.238 84.0746 394.286Z" fill="#455A64"/>
<path d="M93.3419 379.23C93.36 379.347 95.537 378.922 99.0732 379.198C100.838 379.321 102.939 379.592 105.277 379.862C107.612 380.14 110.175 380.454 112.829 380.956C118.155 381.905 122.737 383.761 125.673 385.721C128.637 387.65 130.026 389.409 130.126 389.309C130.155 389.286 129.855 388.814 129.174 388.077C128.495 387.342 127.442 386.321 125.962 385.292C123.042 383.179 118.358 381.196 112.966 380.238C110.279 379.729 107.695 379.433 105.351 379.192C103.009 378.958 100.894 378.739 99.0991 378.68C97.3071 378.615 95.8497 378.719 94.8574 378.869C93.8639 379.02 93.3329 379.188 93.3419 379.23Z" fill="#455A64"/>
<path d="M122.293 149.71C114.75 148.429 108.121 151.333 101.759 155.584C95.3987 159.836 90.6079 166.252 87.8431 173.385C84.9296 180.898 84.2216 189.352 86.4593 197.093C88.6984 204.834 93.9994 211.763 101.184 215.412C110.996 220.396 123.542 218.658 132.32 212.021C141.098 205.384 146.116 194.411 146.537 183.415C146.827 175.84 145.017 168.089 140.784 161.8C136.55 155.511 129.794 150.812 122.293 149.71Z" fill="#263238"/>
<path d="M100.843 175.358C101.946 172.473 101.519 169.251 101.955 166.192C102.917 159.459 108.343 154.058 114.618 151.433C120.455 148.991 127.586 149.523 134.618 151.797C139.439 153.355 143.976 156.072 147.19 159.988C151.454 165.186 152.958 172.528 151.077 178.983L116.622 173.965C113.396 176.634 110.094 179.348 106.181 180.836C105.033 181.273 103.798 181.601 102.585 181.41C101.371 181.217 100.192 180.393 99.9049 179.198C99.591 177.894 100.364 176.612 100.843 175.358Z" fill="#263238"/>
<path d="M135.356 161.31L105.274 167.683C102.365 167.877 100.087 170.266 100.031 173.182L100.393 238.281C100.418 242.728 101.909 247.043 104.633 250.556L107.502 254.256C114.043 262.692 127.292 261.842 132.289 252.41C132.637 251.751 132.879 251.174 132.981 250.706C133.082 250.121 133.237 249.734 133.264 249.237L133.838 242.891C134.131 237.095 134.171 231.205 134.172 231.259C134.172 231.259 146.483 229.703 149.636 213.843C151.205 205.955 151.312 192.926 151.054 182.264C150.822 172.664 144.935 160.67 135.356 161.31Z" fill="#FFBE9D"/>
<path d="M146.477 194.478C146.473 195.561 145.553 196.45 144.424 196.467C143.296 196.483 142.381 195.622 142.385 194.539C142.389 193.456 143.309 192.566 144.436 192.549C145.567 192.534 146.48 193.397 146.477 194.478Z" fill="#263238"/>
<path d="M147.968 188.921C147.705 189.179 146.198 187.971 143.995 187.89C141.796 187.779 140.136 188.85 139.907 188.571C139.794 188.447 140.073 187.976 140.795 187.49C141.508 187.007 142.708 186.557 144.081 186.615C145.453 186.676 146.587 187.226 147.23 187.769C147.887 188.315 148.097 188.806 147.968 188.921Z" fill="#263238"/>
<path d="M126.737 193.985C126.733 195.068 125.813 195.956 124.684 195.973C123.556 195.99 122.643 195.128 122.646 194.047C122.65 192.964 123.57 192.074 124.698 192.057C125.827 192.039 126.741 192.902 126.737 193.985Z" fill="#263238"/>
<path d="M127.053 188.385C126.788 188.642 125.281 187.434 123.079 187.356C120.88 187.244 119.22 188.314 118.991 188.035C118.879 187.911 119.154 187.44 119.88 186.955C120.593 186.472 121.793 186.021 123.166 186.079C124.536 186.14 125.671 186.69 126.315 187.233C126.97 187.779 127.182 188.27 127.053 188.385Z" fill="#263238"/>
<path d="M133.662 205.136C133.657 205.011 135.034 204.827 137.264 204.63C137.829 204.593 138.366 204.503 138.475 204.122C138.623 203.72 138.412 203.105 138.165 202.441C137.689 201.06 137.191 199.612 136.667 198.093C134.595 191.907 133.117 186.828 133.368 186.747C133.617 186.666 135.501 191.614 137.573 197.801C138.07 199.326 138.546 200.781 138.999 202.171C139.188 202.818 139.525 203.557 139.206 204.389C139.038 204.804 138.613 205.092 138.249 205.176C137.884 205.272 137.568 205.265 137.289 205.272C135.051 205.305 133.666 205.261 133.662 205.136Z" fill="#263238"/>
<path d="M134.171 231.258C134.171 231.258 123.407 231.533 113.02 224.727C113.02 224.727 117.964 235.982 133.995 235.109L134.171 231.258Z" fill="#EB996E"/>
<path d="M132.523 210.409C131.771 209.331 130.407 208.702 129.023 208.796C128.063 208.862 127.08 209.285 126.469 210.042C125.858 210.797 125.694 211.898 126.193 212.661C126.755 213.52 127.988 213.76 129.052 213.503C130.115 213.245 131.045 212.588 131.932 211.932C132.177 211.75 132.428 211.561 132.585 211.305C132.744 211.049 132.79 210.71 132.614 210.486" fill="#EB996E"/>
<path d="M127.12 206.409C127.48 206.401 127.39 208.792 129.372 210.569C131.348 212.351 133.907 212.181 133.913 212.516C133.94 212.667 133.327 212.959 132.251 212.946C131.194 212.941 129.667 212.543 128.455 211.457C127.247 210.367 126.764 208.958 126.721 207.975C126.668 206.969 126.958 206.388 127.12 206.409Z" fill="#263238"/>
<path d="M126.93 181.848C126.69 182.438 124.501 182.069 121.905 182.28C119.305 182.439 117.192 183.115 116.869 182.565C116.726 182.301 117.112 181.753 117.976 181.206C118.834 180.659 120.188 180.16 121.745 180.048C123.303 179.938 124.714 180.239 125.64 180.659C126.575 181.078 127.033 181.567 126.93 181.848Z" fill="#263238"/>
<path d="M147.702 179.266C147.295 179.751 145.799 179.173 143.975 179.078C142.154 178.919 140.592 179.283 140.258 178.746C140.112 178.486 140.374 177.994 141.068 177.547C141.751 177.101 142.879 176.758 144.131 176.845C145.383 176.934 146.452 177.429 147.067 177.966C147.692 178.504 147.883 179.028 147.702 179.266Z" fill="#263238"/>
<path d="M95.3292 170.713C98.4481 161.553 112.064 149.072 121.702 149.938L136.929 159.488C135.892 164.721 131.746 169.213 126.612 170.665C123.871 171.44 120.585 171.603 118.919 173.915C117.216 176.274 118.114 179.778 116.524 182.214C114.322 185.592 108.491 185.314 106.816 188.982C106.085 190.585 106.412 192.523 105.651 194.112C104.638 196.23 99.1755 198.831 96.952 198.078C94.7297 197.324 94.7982 193.514 94.107 191.504C92.9248 188.069 93.4752 186.311 93.9248 184.415C94.9881 179.921 93.8421 175.083 95.3292 170.713Z" fill="#263238"/>
<path d="M103.515 200.095C103.558 198.906 102.293 196.051 101.126 195.822C98.0114 195.212 92.3525 195.244 91.9907 203.202C91.4972 214.081 102.521 212.332 102.554 212.021C102.579 211.778 103.365 204.198 103.515 200.095Z" fill="#FFBE9D"/>
<path d="M99.4166 207.748C99.3701 207.711 99.2215 207.872 98.8946 208.004C98.5755 208.132 98.0341 208.207 97.476 207.969C96.3455 207.495 95.4605 205.627 95.4967 203.664C95.5135 202.672 95.7641 201.739 96.1504 200.974C96.5186 200.194 97.0587 199.66 97.6414 199.585C98.2228 199.478 98.6168 199.843 98.7357 200.155C98.8675 200.467 98.7887 200.681 98.8455 200.702C98.8739 200.731 99.0871 200.53 99.0199 200.078C98.9838 199.859 98.8688 199.597 98.6233 199.376C98.3714 199.153 97.9928 199.026 97.5871 199.052C96.746 199.073 95.9553 199.809 95.5315 200.649C95.0613 201.49 94.7563 202.538 94.737 203.651C94.7072 205.847 95.7357 207.949 97.2887 208.474C98.0445 208.708 98.6944 208.507 99.0354 208.265C99.3856 208.011 99.4528 207.77 99.4166 207.748Z" fill="#EB996E"/>
<path d="M92.9997 167.891C93.0359 164.488 88.7852 162.262 85.47 161.491C82.1547 160.721 78.6495 161.729 75.665 163.364C73.9182 164.32 72.1598 165.682 71.7696 167.634C71.3781 169.586 73.258 171.913 75.1223 171.214C71.55 172.437 69.7386 177.208 71.5991 180.494C73.4595 183.779 78.4828 184.68 81.3679 182.246C80.4363 185.363 78.4027 188.14 75.7115 189.968C81.3071 190.765 87.249 188.376 90.7336 183.925C94.2194 179.474 95.1147 173.133 92.9997 167.891Z" fill="#263238"/>
<path d="M85.4482 185.194C85.3707 185.205 85.08 183.972 85.0412 181.929C84.9973 179.893 85.2996 177.045 86.2944 174.079C87.2983 171.114 88.7815 168.664 90.0477 167.07C91.3139 165.466 92.2919 164.66 92.3475 164.716C92.5477 164.856 88.8978 168.471 86.9779 174.309C84.9753 180.115 85.6937 185.203 85.4482 185.194Z" fill="#FF725E"/>
<path d="M133.768 156.199C134.769 160.628 141.5 166.307 144.455 169.756C150.093 176.335 151.204 178.519 151.149 193.228C153.81 188.147 155.849 183.171 155.645 177.439C155.441 171.708 153.33 165.966 149.345 161.842C145.362 157.717 139.443 155.376 133.768 156.199Z" fill="#263238"/>
<path d="M179.906 277.239C179.906 277.239 168.181 257.689 164.928 253.735C161.878 250.027 157.947 247.84 155.323 246.692C153.863 246.054 152.328 245.614 150.759 245.342L133.897 241.608C133.897 241.608 133.867 253.117 121.808 253.829C109.748 254.541 99.5942 237.742 99.5942 237.742C99.5942 237.742 80.1134 240.755 75.4519 243.153C70.7903 245.551 63.4647 248.596 59.4349 268.781L56.6055 288.528L90.1962 291.633L93.4107 341.548L110.07 353.149C110.07 353.149 156.254 365.155 159.204 365.95C162.155 366.743 163.133 291.633 163.133 291.633C163.133 291.633 174.997 283.963 179.906 277.239Z" fill="#29415B"/>
<path d="M157.797 268.844C157.841 268.828 158.069 269.341 158.445 270.285C158.829 271.226 159.319 272.612 159.864 274.346C160.958 277.81 162.159 282.708 162.838 288.219C163.507 293.733 163.524 298.777 163.298 302.403C163.187 304.215 163.046 305.679 162.9 306.684C162.762 307.691 162.664 308.244 162.618 308.239C162.572 308.234 162.582 307.672 162.64 306.661C162.706 305.652 162.774 304.188 162.823 302.383C162.926 298.772 162.834 293.774 162.17 288.302C161.496 282.834 160.379 277.961 159.407 274.481C158.923 272.741 158.505 271.338 158.197 270.373C157.899 269.404 157.753 268.86 157.797 268.844Z" fill="#455A64"/>
<path d="M156.364 350.607L93.1184 336.841L90.1959 291.635L62.0703 289.036C62.0703 289.036 63.1104 319.939 64.1931 329.128C65.7486 342.341 73.5601 360.372 78.1286 363.976C82.6984 367.578 159.204 365.954 159.204 365.954L156.364 350.607Z" fill="#FFBE9D"/>
<path d="M192.265 358.801C191.82 359.684 190.895 360.259 189.911 360.173C189.714 360.157 189.509 360.118 189.298 360.049C187.899 359.601 188.031 356.752 188.031 356.752L181.328 355.658C181.328 355.658 172.612 361.278 169.511 365.004C166.41 368.729 158.499 365.712 158.499 365.712L155.758 351.427L168.095 340.27C168.095 340.27 167.338 340.934 168.188 338.848C169.04 336.761 172.916 337.55 172.916 337.55C173.519 336.518 176.051 336.149 176.051 336.149L186.873 337.395C189.103 337.653 191.097 338.906 192.296 340.802L196.872 348.047C196.872 348.047 199.289 353.261 198.9 354.474C198.314 356.304 196.378 355.897 196.378 355.897C196.378 355.897 195.846 359.326 194.945 359.445C194.045 359.564 192.265 358.801 192.265 358.801Z" fill="#FFBE9D"/>
<path d="M169.234 348.54C169.246 348.654 170.685 348.521 172.997 348.62C175.303 348.733 178.493 349.137 181.828 350.273C183.494 350.834 185.032 351.511 186.381 352.22C187.688 352.956 189.052 353.561 189.471 354.513C189.682 354.98 189.587 355.454 189.353 355.803C189.125 356.151 188.813 356.38 188.537 356.493C187.968 356.726 187.6 356.566 187.589 356.632C187.561 356.648 187.925 356.929 188.625 356.746C188.963 356.654 189.355 356.428 189.669 356.025C189.99 355.642 190.175 354.959 189.925 354.331C189.691 353.7 189.153 353.212 188.578 352.81C187.989 352.424 187.372 352.03 186.684 351.659C185.322 350.903 183.755 350.193 182.049 349.618C178.635 348.455 175.352 348.119 173.007 348.131C170.652 348.158 169.223 348.465 169.234 348.54Z" fill="#EB996E"/>
<path d="M168.475 355.441C168.488 355.646 172.891 355.461 178.302 355.779C183.715 356.076 188.069 356.757 188.104 356.556C188.119 356.467 187.048 356.181 185.286 355.871C183.525 355.561 181.069 355.246 178.34 355.089C175.613 354.936 173.137 354.97 171.352 355.079C169.566 355.189 168.469 355.35 168.475 355.441Z" fill="#EB996E"/>
<path d="M192.202 358.527C192.238 358.521 192.286 358.122 192.337 357.375C192.383 356.631 192.428 355.548 192.344 354.206C192.299 353.535 192.226 352.797 192.042 352.011C191.87 351.22 191.492 350.388 190.978 349.653C190.003 348.177 188.647 346.647 186.923 345.5C185.204 344.367 183.486 343.41 181.747 342.884C180.021 342.362 178.407 342.233 177.072 342.172C175.734 342.125 174.656 342.154 173.912 342.182C173.168 342.213 172.757 342.252 172.756 342.3C172.751 342.411 174.406 342.466 177.041 342.659C178.353 342.779 179.92 342.959 181.557 343.49C183.181 344.01 184.87 344.972 186.531 346.067C188.195 347.18 189.461 348.58 190.454 350.012C191.5 351.376 191.695 352.942 191.857 354.247C192.119 356.868 192.053 358.531 192.202 358.527Z" fill="#EB996E"/>
<path d="M176.57 338.897C176.569 339 178.189 339.043 180.776 339.34C183.265 339.721 187.25 339.904 189.52 343.336C191.977 346.458 194.068 349.406 194.981 351.825C195.95 354.226 195.865 355.888 196.006 355.876C196.043 355.878 196.107 355.469 196.069 354.729C196.038 353.99 195.879 352.912 195.439 351.655C194.608 349.104 192.53 346.044 190.059 342.905C189.428 342.116 188.746 341.368 187.955 340.778C187.167 340.176 186.251 339.826 185.409 339.582C183.702 339.1 182.132 338.959 180.822 338.853C178.194 338.678 176.569 338.81 176.57 338.897Z" fill="#EB996E"/>
<path d="M171.878 362.698C171.893 362.714 172.113 362.546 172.52 362.207C172.984 361.835 173.585 361.353 174.332 360.752C175.93 359.516 178.306 357.757 181.444 355.853L181.291 355.883C183.289 356.222 185.544 356.608 187.986 357.022L187.756 356.739C187.742 357.286 187.773 357.821 187.881 358.376C187.993 358.921 188.168 359.509 188.641 359.987C188.886 360.22 189.239 360.358 189.53 360.396C189.828 360.472 190.151 360.502 190.472 360.451C191.111 360.359 191.712 360.024 192.138 359.529C192.248 359.407 192.342 359.272 192.43 359.132L192.491 359.025L192.521 358.971L192.536 358.943L192.537 358.94C192.624 358.906 191.789 359.212 192.145 359.083L192.152 359.086L192.167 359.091L192.378 359.177C192.661 359.29 192.948 359.392 193.244 359.484C193.54 359.575 193.842 359.657 194.161 359.712C194.322 359.739 194.484 359.763 194.659 359.766C194.822 359.773 195.018 359.778 195.279 359.646C195.656 359.378 195.792 359.06 195.935 358.76C196.07 358.456 196.178 358.149 196.269 357.839C196.453 357.217 196.588 356.592 196.699 355.942L196.307 356.213C197.177 356.366 198.202 356.157 198.804 355.362C199.075 354.993 199.297 354.536 199.264 354.013C199.242 353.544 199.137 353.133 199.026 352.717C198.557 351.074 197.894 349.496 197.178 347.898L197.169 347.88L197.156 347.859C196.379 346.627 195.552 345.318 194.717 343.995C194.198 343.172 193.681 342.357 193.169 341.547C192.655 340.762 192.194 339.88 191.472 339.175C190.776 338.472 189.942 337.923 189.043 337.561C188.15 337.176 187.158 337.08 186.283 336.987C182.698 336.584 179.279 336.199 176.082 335.84L176.039 335.835L176.002 335.841C175.376 335.947 174.789 336.094 174.213 336.313C173.652 336.539 173.058 336.795 172.659 337.399L173.033 337.282C171.887 336.811 170.56 336.806 169.558 337.476C168.55 338.138 168.085 339.209 167.838 340.216L167.92 340.075C164.377 343.261 161.485 345.861 159.417 347.721C158.463 348.6 157.701 349.301 157.126 349.831C156.608 350.321 156.343 350.585 156.36 350.605C156.377 350.624 156.674 350.394 157.224 349.942C157.823 349.438 158.615 348.77 159.606 347.934C161.71 346.116 164.652 343.574 168.258 340.459L168.316 340.408L168.34 340.317C168.567 339.429 169.024 338.452 169.856 337.938C170.665 337.393 171.827 337.41 172.787 337.811L173.023 337.911L173.163 337.694C173.394 337.333 173.908 337.062 174.424 336.874C174.946 336.68 175.522 336.54 176.09 336.448L176.011 336.45C179.205 336.827 182.623 337.23 186.205 337.653C187.119 337.753 187.973 337.837 188.788 338.19C189.601 338.519 190.355 339.018 190.983 339.655C191.621 340.271 192.055 341.1 192.587 341.914C193.098 342.724 193.614 343.54 194.133 344.363C194.97 345.686 195.797 346.995 196.575 348.226L196.554 348.188C197.258 349.751 197.922 351.331 198.373 352.896C198.479 353.283 198.576 353.684 198.592 354.039C198.628 354.346 198.472 354.679 198.273 354.958C197.884 355.507 197.099 355.68 196.439 355.573L196.102 355.517L196.048 355.843C195.946 356.455 195.817 357.074 195.646 357.657C195.484 358.208 195.243 358.88 194.946 359.105C194.93 359.113 194.815 359.149 194.673 359.135C194.543 359.133 194.402 359.115 194.264 359.092C193.984 359.046 193.701 358.972 193.424 358.888C193.146 358.804 192.869 358.708 192.601 358.604L192.402 358.524L192.39 358.518L192.385 358.516C192.738 358.387 191.9 358.69 191.987 358.661L191.986 358.663L191.974 358.685L191.951 358.728L191.904 358.813C191.836 358.923 191.762 359.03 191.677 359.127C191.344 359.521 190.873 359.785 190.385 359.859C190.141 359.901 189.895 359.879 189.648 359.817C189.381 359.779 189.203 359.704 189.036 359.561C188.398 358.896 188.306 357.708 188.302 356.763L188.301 356.514L188.072 356.478C185.625 356.096 183.365 355.743 181.362 355.431L181.275 355.418L181.207 355.46C178.068 357.436 175.732 359.254 174.173 360.557C173.396 361.213 172.814 361.741 172.433 362.109C172.055 362.482 171.863 362.683 171.878 362.698Z" fill="#EB996E"/>
<path d="M274.323 317.243L191.016 317.92C188.314 317.92 185.732 319.218 185.326 321.89L176.222 382.608H133.312C131.931 382.608 130.811 383.728 130.811 385.109C130.811 386.49 131.931 387.61 133.312 387.61H175.471H183.474H270.359L279.725 323.528C280.229 320.221 277.668 317.243 274.323 317.243Z" fill="#E0E0E0"/>
<path d="M274.324 317.243C274.324 317.243 274.777 317.185 275.636 317.365C276.47 317.559 277.784 318.075 278.819 319.475C279.334 320.161 279.727 321.077 279.848 322.134C279.984 323.207 279.676 324.338 279.542 325.561C279.193 328.014 278.791 330.841 278.341 334.017C276.507 346.747 273.865 365.092 270.616 387.646L270.583 387.866H270.36C234.897 387.887 188.293 387.915 137.403 387.945C136.208 387.945 135.015 387.945 133.824 387.945C133.272 387.968 132.503 387.936 131.931 387.584C131.339 387.259 130.879 386.712 130.649 386.08C130.151 384.809 130.746 383.252 131.943 382.62C132.514 382.275 133.275 382.246 133.82 382.268H135.582C140.276 382.269 144.922 382.269 149.507 382.27C158.679 382.273 167.612 382.277 176.221 382.279L175.9 382.556C179.177 360.811 182.234 340.527 184.977 322.329C185.071 321.177 185.593 319.93 186.518 319.157C187.423 318.355 188.567 317.929 189.703 317.752C190.862 317.576 191.965 317.67 193.062 317.633C194.162 317.625 195.252 317.617 196.333 317.611C200.659 317.581 204.843 317.554 208.875 317.527C216.937 317.475 224.393 317.429 231.164 317.386C244.69 317.316 255.472 317.262 262.896 317.223C266.585 317.217 269.435 317.212 271.386 317.208C272.338 317.213 273.067 317.216 273.578 317.218C274.072 317.226 274.324 317.243 274.324 317.243C274.324 317.243 274.073 317.263 273.58 317.278C273.068 317.288 272.34 317.303 271.388 317.323C269.439 317.351 266.589 317.393 262.9 317.445C255.476 317.528 244.694 317.648 231.17 317.798C224.4 317.865 216.943 317.939 208.881 318.019C204.849 318.058 200.666 318.098 196.34 318.138C195.258 318.148 194.168 318.159 193.069 318.169C191.973 318.206 190.845 318.121 189.792 318.289C188.733 318.456 187.684 318.856 186.886 319.571C186.067 320.284 185.634 321.278 185.531 322.415C182.815 340.616 179.789 360.904 176.544 382.654L176.503 382.93H176.223C167.615 382.933 158.681 382.937 149.51 382.94C144.925 382.941 140.279 382.941 135.585 382.942H133.823C133.201 382.925 132.737 382.95 132.271 383.211C131.357 383.694 130.903 384.881 131.284 385.85C131.458 386.331 131.81 386.751 132.262 386.998C132.731 387.264 133.199 387.29 133.828 387.272C135.018 387.272 136.21 387.272 137.407 387.272C188.297 387.301 234.901 387.33 270.364 387.35L270.109 387.57C273.452 365.03 276.171 346.695 278.058 333.973C278.534 330.8 278.958 327.978 279.326 325.527C279.474 324.3 279.789 323.174 279.666 322.152C279.56 321.129 279.192 320.236 278.7 319.562C277.711 318.183 276.437 317.654 275.621 317.438C274.777 317.237 274.321 317.276 274.324 317.243Z" fill="#263238"/>
<path d="M229.138 356.87C232.018 356.87 234.353 354.534 234.353 351.654C234.353 348.773 232.018 346.438 229.138 346.438C226.257 346.438 223.922 348.773 223.922 351.654C223.922 354.534 226.257 356.87 229.138 356.87Z" fill="white"/>
<path d="M179.6 387.05C179.717 387.069 182.37 371.608 185.521 352.521C188.675 333.428 191.135 317.939 191.017 317.918C190.9 317.899 188.248 333.357 185.095 352.45C181.943 371.538 179.482 387.03 179.6 387.05Z" fill="#263238"/>
</svg>
