<?xml version="1.0" encoding="UTF-8"?>
<svg id="Layer_1" xmlns="http://www.w3.org/2000/svg" version="1.1" xmlns:xlink="http://www.w3.org/1999/xlink" viewBox="0 0 135 28">
  <!-- Generator: Adobe Illustrator 29.2.1, SVG Export Plug-In . SVG Version: 2.1.0 Build 116)  -->
  <defs>
    <style>
      .st0 {
        filter: url(#drop-shadow-3);
        font-family: Inter-Medium, 'Inter Medium';
        font-size: 21.78px;
        font-variation-settings: ';
        font-weight: 500;
      }

      .st1 {
        fill: #fec107;
      }

      .st2 {
        filter: url(#drop-shadow-2);
      }

      .st2, .st3, .st4, .st5 {
        fill: #29415b;
      }

      .st2, .st4 {
        display: none;
      }

      .st3 {
        letter-spacing: 0em;
      }

      .st6 {
        fill: #bb5d5e;
      }

      .st7 {
        filter: url(#drop-shadow-1);
      }

      .st4 {
        filter: url(#drop-shadow-4);
      }

      .st8 {
        fill: #ee7846;
      }
    </style>
    <filter id="drop-shadow-1" x="28.2" y="-5.64" width="116.4" height="46.56" filterUnits="userSpaceOnUse">
      <feOffset dx="6" dy="0"/>
      <feGaussianBlur result="blur" stdDeviation="5"/>
      <feFlood flood-color="#000" flood-opacity=".21"/>
      <feComposite in2="blur" operator="in"/>
      <feComposite in="SourceGraphic"/>
    </filter>
    <filter id="drop-shadow-2" x="18.84" y="-2.04" width="36.24" height="38.88" filterUnits="userSpaceOnUse">
      <feOffset dx="6" dy="0"/>
      <feGaussianBlur result="blur1" stdDeviation="5"/>
      <feFlood flood-color="#000" flood-opacity=".21"/>
      <feComposite in2="blur1" operator="in"/>
      <feComposite in="SourceGraphic"/>
    </filter>
    <filter id="drop-shadow-3" filterUnits="userSpaceOnUse">
      <feOffset dx="6" dy="0"/>
      <feGaussianBlur result="blur2" stdDeviation="5"/>
      <feFlood flood-color="#000" flood-opacity=".21"/>
      <feComposite in2="blur2" operator="in"/>
      <feComposite in="SourceGraphic"/>
    </filter>
    <filter id="drop-shadow-4" x="36.68" y="-73.57" width="36.24" height="38.88" filterUnits="userSpaceOnUse">
      <feOffset dx="6" dy="0"/>
      <feGaussianBlur result="blur3" stdDeviation="5"/>
      <feFlood flood-color="#000" flood-opacity=".21"/>
      <feComposite in2="blur3" operator="in"/>
      <feComposite in="SourceGraphic"/>
    </filter>
  </defs>
  <g>
    <g class="st7">
      <path class="st8" d="M42.89,25.86c-1.11,0-2.09-.25-2.92-.77-.83-.51-1.48-1.23-1.94-2.15s-.69-1.99-.69-3.21.23-2.31.69-3.24c.46-.92,1.11-1.64,1.94-2.15.83-.51,1.81-.77,2.92-.77s2.1.26,2.93.77c.83.51,1.48,1.23,1.94,2.15.46.93.69,2,.69,3.24s-.23,2.29-.69,3.21c-.46.92-1.11,1.64-1.94,2.15-.83.51-1.81.77-2.93.77ZM42.89,23.89c.72,0,1.32-.19,1.79-.57.47-.38.82-.88,1.05-1.51.23-.63.35-1.32.35-2.07s-.12-1.46-.35-2.09c-.23-.63-.58-1.14-1.05-1.52-.47-.38-1.07-.57-1.79-.57s-1.31.19-1.78.57c-.47.38-.82.88-1.05,1.51-.23.63-.35,1.33-.35,2.1s.12,1.44.35,2.07c.23.63.58,1.13,1.05,1.51.47.38,1.06.57,1.78.57Z"/>
      <path class="st8" d="M54.59,25.89c-.75,0-1.43-.14-2.04-.42s-1.09-.69-1.45-1.23c-.35-.54-.53-1.2-.53-1.98,0-.67.13-1.23.39-1.66s.61-.78,1.05-1.03c.44-.25.94-.45,1.48-.57.54-.13,1.09-.22,1.65-.29.7-.08,1.27-.15,1.71-.21.44-.05.76-.14.97-.27s.31-.32.31-.6v-.06c0-.45-.09-.82-.26-1.13-.17-.3-.42-.54-.76-.71-.34-.17-.76-.25-1.26-.25s-.96.08-1.33.24c-.37.16-.67.36-.9.61-.23.25-.4.51-.52.78l-2.2-.58c.27-.71.66-1.28,1.16-1.71s1.08-.75,1.73-.95c.65-.2,1.33-.3,2.02-.3.48,0,.99.06,1.53.17.54.11,1.05.32,1.52.62s.86.72,1.16,1.25c.3.54.45,1.24.45,2.11v7.89h-2.27v-1.63h-.12c-.16.3-.39.6-.69.89-.31.29-.69.53-1.15.72-.46.19-1.02.28-1.66.28ZM55.11,24c.64,0,1.18-.12,1.64-.37.45-.25.8-.58,1.04-.99.24-.41.36-.85.36-1.31v-1.52c-.08.08-.25.16-.48.23-.24.07-.51.13-.81.18-.3.05-.6.1-.88.13-.28.04-.52.06-.7.08-.44.06-.84.15-1.21.29-.37.13-.66.33-.87.58-.22.25-.32.58-.32.99,0,.38.1.69.29.95.2.25.46.45.79.57.33.13.72.19,1.16.19Z"/>
      <path class="st8" d="M65.97,18.58v7.04h-2.34v-11.89h2.23l.02,2.91h-.24c.35-1.06.85-1.84,1.51-2.33s1.46-.73,2.39-.73c.81,0,1.51.17,2.12.51.6.34,1.07.84,1.41,1.5.34.66.51,1.49.51,2.47v7.55h-2.34v-7.26c0-.86-.22-1.53-.67-2.01-.45-.48-1.06-.72-1.84-.72-.52,0-1,.12-1.41.35s-.75.57-.99,1c-.24.44-.36.98-.36,1.61Z"/>
      <path class="st5" d="M83.49,25.83c-1.37,0-2.59-.32-3.67-.97-1.08-.65-1.92-1.58-2.54-2.8s-.92-2.67-.92-4.35.31-3.15.92-4.37c.62-1.22,1.46-2.15,2.54-2.8,1.08-.65,2.3-.98,3.67-.98.84,0,1.62.12,2.36.36.73.24,1.39.59,1.97,1.05s1.06,1.02,1.44,1.68c.38.66.64,1.41.77,2.24h-2.44c-.1-.5-.28-.95-.53-1.33-.25-.39-.56-.71-.92-.98-.36-.27-.77-.47-1.21-.61-.45-.13-.92-.2-1.41-.2-.91,0-1.72.23-2.44.69-.72.46-1.29,1.13-1.7,2.01s-.62,1.96-.62,3.24.21,2.36.63,3.24c.42.88.99,1.55,1.7,2,.72.45,1.52.68,2.42.68.5,0,.97-.07,1.41-.21.44-.14.85-.34,1.21-.61.37-.27.67-.59.93-.98.25-.39.43-.83.53-1.33h2.45c-.12.78-.37,1.49-.73,2.14-.37.65-.84,1.21-1.41,1.7-.57.48-1.23.85-1.97,1.11-.74.26-1.55.39-2.42.39Z"/>
      <path class="st5" d="M92.88,25.62v-15.85h5.68c1.22,0,2.24.21,3.05.63s1.42,1.01,1.83,1.76.61,1.61.61,2.58-.2,1.83-.61,2.57c-.41.73-1.02,1.3-1.83,1.71s-1.84.61-3.06.61h-4.26v-2.07h4.03c.78,0,1.41-.11,1.89-.33s.83-.54,1.06-.96c.23-.42.34-.92.34-1.51s-.11-1.11-.34-1.54c-.23-.43-.58-.77-1.06-1-.48-.24-1.12-.36-1.9-.36h-2.98v13.77h-2.42ZM101.89,25.62l-3.84-7.16h2.69l3.9,7.16h-2.75Z"/>
      <path class="st5" d="M107,25.62v-15.85h3.57l3.46,9.09c.1.27.21.61.33,1.02s.25.86.39,1.34c.13.48.26.96.38,1.43.12.47.23.89.32,1.27h-.51c.09-.35.2-.76.32-1.23.12-.46.25-.94.38-1.42s.27-.94.39-1.36c.13-.43.24-.77.34-1.04l3.4-9.09h3.59v15.85h-2.41v-8.53c0-.33,0-.72.01-1.17,0-.45.02-.93.03-1.44s.02-1.02.03-1.54.02-1.01.03-1.49h.18c-.14.52-.3,1.05-.46,1.6-.17.55-.33,1.08-.49,1.59-.16.51-.31.98-.46,1.4-.15.42-.27.77-.37,1.05l-3.24,8.53h-2.07l-3.29-8.53c-.11-.27-.23-.61-.37-1.03-.14-.41-.29-.88-.45-1.38-.16-.51-.33-1.04-.5-1.58-.17-.55-.34-1.1-.51-1.64h.21c.01.43.03.9.04,1.41.01.51.02,1.02.03,1.54,0,.52.02,1.01.03,1.47.01.46.02.87.02,1.22v8.53h-2.36Z"/>
    </g>
    <path class="st2" d="M33.88,14.16h-1.45c.21.26.35.54.42.86h1.03v1.12h-1.07c-.11.38-.32.72-.62.99-.59.53-1.44.74-2.13.82l.63.63.22.22.66.66.22.22.65.66.22.22.7.71.22.22.12.12h-1.58l-.32-.33-.22-.22-.65-.66-.22-.22-.66-.66-.22-.22-.7-.7-.22-.22-.72-.72v-.77h.11c1.04.02,2.19,0,2.89-.39.1-.05.18-.12.26-.19.05-.04.09-.09.12-.14,0,0,0-.01.01-.02h-3.6v-1.12h3.67c-.24-.42-.82-.73-1.59-.86h-2.08v-1.12h5.9v1.12Z"/>
    <g>
      <rect class="st5" x="11.63" y="16.1" width="2.72" height="9.27"/>
      <rect class="st6" x="15.77" y="11.45" width="2.72" height="13.92"/>
      <rect class="st1" x="19.9" y="7.22" width="2.72" height="18.15"/>
      <g>
        <rect class="st8" x="24.35" y="22.65" width="10.99" height="2.72"/>
        <rect class="st8" x="24.04" y="2.11" width="2.72" height="23.26"/>
      </g>
    </g>
  </g>
  <g>
    <text class="st0" transform="translate(54.18 -45.9)"><tspan class="st1" x="0" y="0">oan</tspan><tspan class="st3" x="34.54" y="0">CRM</tspan></text>
    <path class="st4" d="M51.74-57.37h-1.45c.21.26.35.54.42.86h1.03v1.12h-1.07c-.11.38-.32.72-.62.99-.59.53-1.44.74-2.13.82l.63.63.22.22.66.66.22.22.65.66.22.22.7.71.22.22.12.12h-1.58l-.32-.33-.22-.22-.65-.66-.22-.22-.66-.66-.22-.22-.7-.7-.22-.22-.72-.72v-.77h.11c1.04.02,2.19,0,2.89-.39.1-.05.18-.12.26-.19.05-.04.09-.09.12-.14,0,0,0-.01.01-.02h-3.6v-1.12h3.67c-.24-.42-.82-.73-1.59-.86h-2.08v-1.12h5.9v1.12Z"/>
    <g>
      <rect class="st5" x="32.49" y="-55.42" width="2.72" height="9.27"/>
      <rect class="st6" x="35.63" y="-60.07" width="2.72" height="13.92"/>
      <rect class="st8" x="38.77" y="-64.31" width="2.72" height="18.15"/>
      <g>
        <rect class="st1" x="42.22" y="-48.87" width="10.99" height="2.72"/>
        <rect class="st1" x="41.91" y="-69.41" width="2.72" height="23.26"/>
      </g>
    </g>
  </g>
</svg>