<svg width="722" height="146" xmlns="http://www.w3.org/2000/svg" xmlns:xlink="http://www.w3.org/1999/xlink" overflow="hidden"><g transform="translate(-279 -283)"><g><g><g><path d="M513.513 370.103 534.22 370.103 534.22 380.096 500.913 380.096 500.913 317.263 513.513 317.263 513.513 370.103Z" fill="#8E89D0"/><path d="M551.413 377.703C547.573 375.576 544.553 372.556 542.367 368.656 540.173 364.756 539.08 360.256 539.08 355.149 539.08 350.049 540.207 345.549 542.453 341.643 544.707 337.743 547.78 334.729 551.68 332.596 555.58 330.463 559.933 329.403 564.733 329.403 569.533 329.403 573.887 330.469 577.787 332.596 581.687 334.729 584.767 337.743 587.013 341.643 589.267 345.543 590.387 350.043 590.387 355.149 590.387 360.249 589.233 364.756 586.92 368.656 584.607 372.556 581.487 375.576 577.56 377.703 573.627 379.836 569.233 380.896 564.373 380.896 559.573 380.903 555.253 379.836 551.413 377.703ZM570.813 368.249C572.82 367.143 574.427 365.476 575.627 363.256 576.827 361.036 577.427 358.336 577.427 355.156 577.427 350.416 576.18 346.769 573.693 344.216 571.2 341.669 568.16 340.389 564.553 340.389 560.953 340.389 557.94 341.663 555.507 344.216 553.073 346.769 551.86 350.416 551.86 355.156 551.86 359.896 553.047 363.543 555.413 366.096 557.78 368.649 560.767 369.923 564.373 369.923 566.653 369.916 568.8 369.363 570.813 368.249Z" fill="#8E89D0"/><path d="M599.44 341.569C601.453 337.669 604.18 334.669 607.633 332.569 611.087 330.469 614.94 329.416 619.2 329.416 622.92 329.416 626.18 330.169 628.967 331.669 631.76 333.169 633.993 335.063 635.673 337.343L635.673 330.229 648.367 330.229 648.367 380.103 635.673 380.103 635.673 372.809C634.053 375.149 631.813 377.083 628.967 378.616 626.113 380.149 622.827 380.909 619.107 380.909 614.907 380.909 611.08 379.829 607.627 377.669 604.173 375.509 601.447 372.463 599.433 368.529 597.42 364.596 596.42 360.083 596.42 354.983 596.42 349.936 597.427 345.463 599.44 341.569ZM633.867 347.276C632.667 345.083 631.047 343.403 629.007 342.236 626.967 341.069 624.773 340.483 622.433 340.483 620.093 340.483 617.933 341.056 615.953 342.189 613.973 343.329 612.367 344.996 611.14 347.183 609.907 349.376 609.293 351.969 609.293 354.969 609.293 357.969 609.907 360.596 611.14 362.843 612.367 365.096 613.987 366.823 616 368.023 618.013 369.223 620.153 369.823 622.44 369.823 624.78 369.823 626.973 369.236 629.013 368.069 631.053 366.896 632.673 365.223 633.873 363.029 635.073 360.836 635.673 358.216 635.673 355.149 635.673 352.083 635.067 349.476 633.867 347.276Z" fill="#8E89D0"/><path d="M702.733 335.123C706.393 338.876 708.227 344.109 708.227 350.829L708.227 380.089 695.627 380.089 695.627 352.543C695.627 348.583 694.633 345.536 692.653 343.403 690.673 341.276 687.973 340.209 684.553 340.209 681.073 340.209 678.327 341.276 676.313 343.403 674.3 345.536 673.3 348.576 673.3 352.543L673.3 380.089 660.693 380.089 660.693 330.216 673.3 330.216 673.3 336.429C674.98 334.269 677.127 332.576 679.733 331.343 682.347 330.116 685.207 329.496 688.333 329.496 694.267 329.496 699.067 331.376 702.733 335.123Z" fill="#8E89D0"/><path d="M723.093 331.976C725.887 327.083 729.693 323.276 734.527 320.543 739.36 317.809 744.773 316.449 750.773 316.449 757.793 316.449 763.947 318.249 769.227 321.849 774.507 325.449 778.2 330.429 780.3 336.796L765.807 336.796C764.367 333.796 762.34 331.543 759.733 330.043 757.12 328.543 754.107 327.789 750.687 327.789 747.027 327.789 743.767 328.643 740.92 330.356 738.067 332.063 735.847 334.483 734.26 337.603 732.667 340.723 731.873 344.383 731.873 348.583 731.873 352.723 732.667 356.369 734.26 359.523 735.847 362.676 738.073 365.103 740.92 366.816 743.767 368.529 747.027 369.383 750.687 369.383 754.107 369.383 757.127 368.616 759.733 367.089 762.347 365.556 764.367 363.296 765.807 360.289L780.3 360.289C778.2 366.709 774.52 371.709 769.273 375.276 764.02 378.849 757.853 380.629 750.773 380.629 744.773 380.629 739.353 379.263 734.527 376.536 729.693 373.803 725.887 370.009 723.093 365.149 720.3 360.289 718.907 354.769 718.907 348.583 718.9 342.403 720.3 336.869 723.093 331.976Z" fill="#535AB4"/><path d="M823.507 380.096 809.64 355.609 803.7 355.609 803.7 380.096 791.093 380.096 791.093 317.263 814.68 317.263C819.54 317.263 823.68 318.116 827.1 319.829 830.52 321.543 833.087 323.849 834.8 326.763 836.513 329.676 837.367 332.929 837.367 336.529 837.367 340.669 836.167 344.409 833.767 347.736 831.367 351.069 827.793 353.363 823.053 354.623L838.087 380.096 823.507 380.096 823.507 380.096ZM803.7 346.149 814.233 346.149C817.653 346.149 820.207 345.323 821.887 343.676 823.567 342.023 824.407 339.729 824.407 336.789 824.407 333.909 823.567 331.676 821.887 330.083 820.207 328.496 817.653 327.696 814.233 327.696L803.7 327.696 803.7 346.149Z" fill="#535AB4"/><path d="M917.307 317.256 917.307 380.089 904.7 380.089 904.7 339.223 887.867 380.089 878.327 380.089 861.4 339.223 861.4 380.089 848.8 380.089 848.8 317.256 863.113 317.256 883.1 363.976 903.087 317.256 917.307 317.256Z" fill="#535AB4"/><path d="M431.153 317.536 431.153 380.329 418.56 380.329 418.56 339.483 401.733 380.329 392.2 380.329 375.287 339.483 375.287 380.329 362.693 380.329 362.693 317.536 377 317.536 396.973 364.229 416.947 317.536 431.153 317.536 431.153 317.536Z" fill="#535AB4"/><path d="M491.247 330.483 460.387 403.896 446.98 403.896 457.773 379.063 437.8 330.483 451.927 330.483 464.793 365.303 477.84 330.483 491.247 330.483Z" fill="#535AB4"/></g></g></g></g></svg>