<?xml version="1.0" encoding="utf-8"?>
<!-- Generator: Adobe Illustrator 29.7.0, SVG Export Plug-In . SVG Version: 9.03 Build 0)  -->
<svg version="1.0" id="Layer_1" xmlns="http://www.w3.org/2000/svg" xmlns:xlink="http://www.w3.org/1999/xlink" x="0px" y="0px"
	 viewBox="0 0 1080 1080" style="enable-background:new 0 0 1080 1080;" xml:space="preserve">
<style type="text/css">
	.st0{fill:#8E89D0;}
	.st1{fill:#535AB4;}
</style>
<g>
	<g>
		<path class="st0" d="M350.27,554.89h31.06v14.99h-49.96v-94.25h18.9V554.89z"/>
		<path class="st0" d="M407.12,566.29c-5.76-3.19-10.29-7.72-13.57-13.57c-3.29-5.85-4.93-12.6-4.93-20.26
			c0-7.65,1.69-14.4,5.06-20.26c3.38-5.85,7.99-10.37,13.84-13.57s12.38-4.79,19.58-4.79c7.2,0,13.73,1.6,19.58,4.79
			c5.85,3.2,10.47,7.72,13.84,13.57c3.38,5.85,5.06,12.6,5.06,20.26c0,7.65-1.73,14.41-5.2,20.26c-3.47,5.85-8.15,10.38-14.04,13.57
			c-5.9,3.2-12.49,4.79-19.78,4.79C419.36,571.09,412.88,569.49,407.12,566.29z M436.22,552.11c3.01-1.66,5.42-4.16,7.22-7.49
			s2.7-7.38,2.7-12.15c0-7.11-1.87-12.58-5.6-16.41c-3.74-3.82-8.3-5.74-13.71-5.74c-5.4,0-9.92,1.91-13.57,5.74
			s-5.47,9.3-5.47,16.41s1.78,12.58,5.33,16.41c3.55,3.83,8.03,5.74,13.44,5.74C429.98,554.61,433.2,553.78,436.22,552.11z"/>
		<path class="st0" d="M479.16,512.09c3.02-5.85,7.11-10.35,12.29-13.5c5.18-3.15,10.96-4.73,17.35-4.73
			c5.58,0,10.47,1.13,14.65,3.38c4.19,2.25,7.54,5.09,10.06,8.51v-10.67h19.04v74.81h-19.04v-10.94c-2.43,3.51-5.79,6.41-10.06,8.71
			c-4.28,2.3-9.21,3.44-14.79,3.44c-6.3,0-12.04-1.62-17.22-4.86s-9.27-7.81-12.29-13.71c-3.02-5.9-4.52-12.67-4.52-20.32
			C474.63,524.64,476.14,517.93,479.16,512.09z M530.8,520.65c-1.8-3.29-4.23-5.81-7.29-7.56s-6.35-2.63-9.86-2.63
			c-3.51,0-6.75,0.86-9.72,2.56c-2.97,1.71-5.38,4.21-7.22,7.49c-1.85,3.29-2.77,7.18-2.77,11.68s0.92,8.44,2.77,11.81
			c1.84,3.38,4.27,5.97,7.29,7.77c3.02,1.8,6.23,2.7,9.66,2.7c3.51,0,6.8-0.88,9.86-2.63c3.06-1.76,5.49-4.27,7.29-7.56
			s2.7-7.22,2.7-11.82S532.6,523.95,530.8,520.65z"/>
		<path class="st0" d="M634.1,502.42c5.49,5.63,8.24,13.48,8.24,23.56v43.89h-18.9v-41.32c0-5.94-1.49-10.51-4.46-13.71
			c-2.97-3.19-7.02-4.79-12.15-4.79c-5.22,0-9.34,1.6-12.36,4.79c-3.02,3.2-4.52,7.76-4.52,13.71v41.32h-18.91v-74.81h18.91v9.32
			c2.52-3.24,5.74-5.78,9.65-7.63c3.92-1.84,8.21-2.77,12.9-2.77C621.4,493.98,628.6,496.8,634.1,502.42z"/>
		<path class="st1" d="M664.64,497.7c4.19-7.34,9.9-13.05,17.15-17.15s15.37-6.14,24.37-6.14c10.53,0,19.76,2.7,27.68,8.1
			s13.46,12.87,16.61,22.42h-21.74c-2.16-4.5-5.2-7.88-9.11-10.13c-3.92-2.25-8.44-3.38-13.57-3.38c-5.49,0-10.38,1.28-14.65,3.85
			c-4.28,2.56-7.61,6.19-9.99,10.87c-2.39,4.68-3.58,10.17-3.58,16.47c0,6.21,1.19,11.68,3.58,16.41c2.38,4.73,5.72,8.37,9.99,10.94
			s9.16,3.85,14.65,3.85c5.13,0,9.66-1.15,13.57-3.44c3.92-2.3,6.95-5.69,9.11-10.2h21.74c-3.15,9.63-8.67,17.13-16.54,22.48
			c-7.88,5.36-17.13,8.03-27.75,8.03c-9,0-17.13-2.05-24.37-6.14c-7.25-4.1-12.96-9.79-17.15-17.08
			c-4.19-7.29-6.28-15.57-6.28-24.85C658.35,513.34,660.45,505.04,664.64,497.7z"/>
		<path class="st1" d="M815.26,569.88l-20.8-36.73h-8.91v36.73h-18.91v-94.25h35.38c7.29,0,13.5,1.28,18.63,3.85
			s8.98,6.03,11.55,10.4s3.85,9.25,3.85,14.65c0,6.21-1.8,11.82-5.4,16.81c-3.6,5-8.96,8.44-16.07,10.33l22.55,38.21L815.26,569.88
			L815.26,569.88z M785.55,518.96h15.8c5.13,0,8.96-1.24,11.48-3.71c2.52-2.48,3.78-5.92,3.78-10.33c0-4.32-1.26-7.67-3.78-10.06
			c-2.52-2.38-6.35-3.58-11.48-3.58h-15.8V518.96z"/>
		<path class="st1" d="M955.96,475.62v94.25h-18.91v-61.3l-25.25,61.3h-14.31l-25.39-61.3v61.3H853.2v-94.25h21.47l29.98,70.08
			l29.98-70.08H955.96z"/>
	</g>
	<g>
		<path class="st1" d="M226.73,476.04v94.19h-18.89v-61.27l-25.24,61.27h-14.3l-25.37-61.27v61.27h-18.89v-94.19h21.46l29.96,70.04
			l29.96-70.04L226.73,476.04L226.73,476.04z"/>
		<path class="st1" d="M316.87,495.46l-46.29,110.12h-20.11l16.19-37.25l-29.96-72.87h21.19l19.3,52.23l19.57-52.23H316.87z"/>
	</g>
</g>
</svg>
