<svg width="1280" height="720" xmlns="http://www.w3.org/2000/svg" xmlns:xlink="http://www.w3.org/1999/xlink" overflow="hidden"><g><rect x="0" y="0" width="1280" height="720" fill="#FFFFFF"/><g><g><g><path d="M233.189 369.413 253.867 369.413 253.867 379.392 220.607 379.392 220.607 316.646 233.189 316.646 233.189 369.413Z" fill="#8E89D0" transform="matrix(1 0 0 1.0107 193 -71.13)"/><path d="M271.036 377.002C267.202 374.879 264.186 371.863 262.002 367.968 259.812 364.074 258.72 359.58 258.72 354.48 258.72 349.387 259.845 344.894 262.089 340.992 264.339 337.098 267.408 334.089 271.303 331.958 275.197 329.828 279.545 328.769 284.338 328.769 289.131 328.769 293.478 329.835 297.373 331.958 301.268 334.089 304.343 337.098 306.587 340.992 308.837 344.887 309.956 349.381 309.956 354.48 309.956 359.573 308.804 364.074 306.494 367.968 304.184 371.863 301.068 374.879 297.147 377.002 293.219 379.133 288.832 380.191 283.978 380.191 279.185 380.198 274.871 379.133 271.036 377.002ZM290.409 367.562C292.413 366.457 294.018 364.793 295.216 362.576 296.414 360.359 297.014 357.663 297.014 354.487 297.014 349.754 295.769 346.112 293.285 343.562 290.796 341.019 287.76 339.741 284.158 339.741 280.563 339.741 277.554 341.012 275.124 343.562 272.694 346.112 271.482 349.754 271.482 354.487 271.482 359.22 272.667 362.862 275.031 365.412 277.394 367.962 280.377 369.233 283.978 369.233 286.255 369.226 288.399 368.674 290.409 367.562Z" fill="#8E89D0" transform="matrix(1 0 0 1.0107 193 -71.13)"/><path d="M318.996 340.919C321.007 337.025 323.73 334.029 327.178 331.932 330.627 329.835 334.475 328.783 338.729 328.783 342.444 328.783 345.699 329.535 348.482 331.033 351.271 332.531 353.502 334.422 355.179 336.698L355.179 329.595 367.855 329.595 367.855 379.399 355.179 379.399 355.179 372.116C353.562 374.453 351.325 376.383 348.482 377.914 345.633 379.446 342.35 380.205 338.636 380.205 334.441 380.205 330.62 379.126 327.172 376.969 323.723 374.812 321 371.77 318.99 367.842 316.979 363.914 315.981 359.407 315.981 354.314 315.981 349.274 316.986 344.807 318.996 340.919ZM353.375 346.618C352.177 344.428 350.559 342.75 348.522 341.585 346.485 340.42 344.294 339.834 341.958 339.834 339.621 339.834 337.464 340.407 335.487 341.538 333.509 342.677 331.905 344.341 330.68 346.525 329.448 348.715 328.836 351.305 328.836 354.301 328.836 357.296 329.448 359.919 330.68 362.163 331.905 364.413 333.523 366.137 335.533 367.336 337.544 368.534 339.681 369.133 341.964 369.133 344.301 369.133 346.491 368.547 348.529 367.382 350.566 366.211 352.184 364.54 353.382 362.349 354.58 360.159 355.179 357.543 355.179 354.48 355.179 351.418 354.573 348.815 353.375 346.618Z" fill="#8E89D0" transform="matrix(1 0 0 1.0107 193 -71.13)"/><path d="M422.146 334.481C425.801 338.23 427.632 343.456 427.632 350.166L427.632 379.386 415.049 379.386 415.049 351.877C415.049 347.923 414.057 344.88 412.08 342.75 410.103 340.626 407.407 339.561 403.991 339.561 400.516 339.561 397.773 340.626 395.763 342.75 393.752 344.88 392.754 347.916 392.754 351.877L392.754 379.386 380.165 379.386 380.165 329.582 392.754 329.582 392.754 335.786C394.431 333.629 396.575 331.938 399.178 330.707 401.788 329.482 404.644 328.863 407.766 328.863 413.691 328.863 418.485 330.74 422.146 334.481Z" fill="#8E89D0" transform="matrix(1 0 0 1.0107 193 -71.13)"/><path d="M442.478 331.339C445.267 326.453 449.069 322.651 453.895 319.922 458.722 317.192 464.128 315.834 470.119 315.834 477.13 315.834 483.275 317.632 488.547 321.227 493.82 324.822 497.508 329.795 499.605 336.152L485.132 336.152C483.694 333.157 481.67 330.906 479.067 329.409 476.457 327.911 473.448 327.158 470.033 327.158 466.378 327.158 463.123 328.01 460.28 329.721 457.43 331.426 455.214 333.842 453.629 336.958 452.038 340.074 451.246 343.729 451.246 347.923 451.246 352.057 452.038 355.699 453.629 358.848 455.214 361.997 457.437 364.42 460.28 366.131 463.123 367.842 466.378 368.694 470.033 368.694 473.448 368.694 476.464 367.928 479.067 366.404 481.677 364.873 483.694 362.616 485.132 359.613L499.605 359.613C497.508 366.024 493.833 371.017 488.594 374.579 483.348 378.147 477.19 379.925 470.119 379.925 464.128 379.925 458.715 378.56 453.895 375.837 449.069 373.108 445.267 369.32 442.478 364.466 439.688 359.613 438.297 354.101 438.297 347.923 438.29 341.751 439.688 336.226 442.478 331.339Z" fill="#535AB4" transform="matrix(1 0 0 1.0107 193 -71.13)"/><path d="M542.752 379.392 528.904 354.94 522.973 354.94 522.973 379.392 510.383 379.392 510.383 316.646 533.937 316.646C538.791 316.646 542.925 317.498 546.34 319.209 549.755 320.92 552.318 323.224 554.029 326.133 555.74 329.042 556.593 332.291 556.593 335.886 556.593 340.02 555.394 343.755 552.998 347.077 550.601 350.406 547.032 352.696 542.299 353.954L557.312 379.392 542.752 379.392 542.752 379.392ZM522.973 345.493 533.491 345.493C536.907 345.493 539.456 344.667 541.134 343.023 542.812 341.372 543.651 339.082 543.651 336.146 543.651 333.27 542.812 331.04 541.134 329.448 539.456 327.864 536.907 327.065 533.491 327.065L522.973 327.065 522.973 345.493Z" fill="#535AB4" transform="matrix(1 0 0 1.0107 193 -71.13)"/><path d="M636.422 316.64 636.422 379.386 623.832 379.386 623.832 338.576 607.022 379.386 597.496 379.386 580.592 338.576 580.592 379.386 568.01 379.386 568.01 316.64 582.303 316.64 602.262 363.295 622.221 316.64 636.422 316.64Z" fill="#535AB4" transform="matrix(1 0 0 1.0107 193 -71.13)"/><path d="M150.943 316.919 150.943 379.625 138.368 379.625 138.368 338.835 121.564 379.625 112.044 379.625 95.1543 338.835 95.1543 379.625 82.5785 379.625 82.5785 316.919 96.8653 316.919 116.811 363.548 136.756 316.919 150.943 316.919 150.943 316.919Z" fill="#535AB4" transform="matrix(1 0 0 1.0107 193 -71.13)"/><path d="M210.953 329.848 180.136 403.159 166.748 403.159 177.526 378.36 157.581 329.848 171.688 329.848 184.537 364.62 197.565 329.848 210.953 329.848Z" fill="#535AB4" transform="matrix(1 0 0 1.0107 193 -71.13)"/></g></g></g></g></svg>