<?xml version="1.0" standalone="no"?>
<!DOCTYPE svg PUBLIC "-//W3C//DTD SVG 20010904//EN"
 "http://www.w3.org/TR/2001/REC-SVG-20010904/DTD/svg10.dtd">
<svg version="1.0" xmlns="http://www.w3.org/2000/svg"
 width="2131.000000pt" height="2131.000000pt" viewBox="0 0 2131.000000 2131.000000"
 preserveAspectRatio="xMidYMid meet">
<metadata>
Created by potrace 1.14, written by Peter Selinger 2001-2017
</metadata>
<g transform="translate(0.000000,2131.000000) scale(0.100000,-0.100000)"
fill="#000000" stroke="none">
<path d="M10305 21264 c-566 -29 -927 -66 -1392 -144 -1890 -318 -3689 -1172
-5138 -2440 -312 -273 -714 -671 -968 -958 -31 -35 -83 -82 -114 -104 -141
-98 -237 -186 -323 -293 -829 -1043 -1546 -2413 -1896 -3623 -211 -731 -370
-1548 -434 -2237 -44 -467 -52 -1295 -16 -1685 162 -1750 743 -3406 1706
-4859 187 -283 490 -702 609 -842 397 -467 576 -663 892 -974 816 -803 1718
-1444 2754 -1955 1292 -637 2591 -980 4095 -1082 239 -16 1000 -16 1240 0 986
66 1821 225 2700 514 2986 980 5405 3265 6555 6193 591 1504 829 3123 699
4745 -123 1544 -590 3058 -1353 4394 -1044 1825 -2603 3301 -4479 4240 -1275
638 -2595 993 -4077 1097 -149 10 -926 20 -1060 13z"/>
</g>
</svg>
