<svg width="24" height="24" viewBox="0 0 24 24" fill="none" xmlns="http://www.w3.org/2000/svg">
<path d="M4.53833 3.09978C4.66719 3.10073 4.79304 3.13741 4.90063 3.20525L5.00122 3.28337L5.00903 3.29021L4.92114 3.37029L4.91626 3.37517L5.00903 3.29118L20.01 19.7873L20.0911 19.8957C20.1604 20.0112 20.1942 20.1458 20.1877 20.2824C20.1791 20.4646 20.099 20.6362 19.9641 20.759C19.8293 20.8816 19.6511 20.9452 19.469 20.9367C19.3324 20.9302 19.2015 20.8838 19.093 20.8039L18.9924 20.7131L16.8958 18.4074C15.3559 19.095 13.6873 19.4468 12.0002 19.4367V19.4377C8.14736 19.4377 5.43946 17.7275 3.77173 16.1711L3.45142 15.8615C2.13388 14.5439 1.36189 13.2329 1.04321 12.6261L0.872314 12.2804C0.833172 12.1925 0.812773 12.0974 0.812744 12.0011C0.812744 11.9048 0.833141 11.8089 0.872314 11.7209C0.945571 11.5547 2.41889 8.32601 5.84595 6.2531L3.99146 4.20915L3.98364 4.20036C3.88054 4.06304 3.83327 3.89179 3.84985 3.72087C3.86645 3.54999 3.94594 3.39146 4.07349 3.27654C4.20095 3.1617 4.36678 3.09862 4.53833 3.09978ZM6.78931 7.29216C4.14085 8.80783 2.70447 11.1844 2.26978 11.9992C2.85092 13.0733 3.58582 14.0572 4.45239 14.9181L4.85181 15.297C6.87351 17.1332 9.27385 18.0627 12.0002 18.0627H12.0012L12.5247 18.0529C13.6862 18.0017 14.831 17.755 15.9143 17.3283L14.4387 15.7043C13.5722 16.2733 12.5335 16.5232 11.5012 16.4054C10.4325 16.2835 9.44451 15.7775 8.72095 14.9816C7.99753 14.1858 7.58758 13.1546 7.56763 12.0793C7.54845 11.0404 7.89439 10.0285 8.54321 9.21989L6.78931 7.29216ZM12.3821 4.56853C16.2844 4.6844 18.9677 6.56034 20.5481 8.13884L20.8665 8.46794C22.3852 10.0907 23.0816 11.6124 23.1282 11.7209L23.1536 11.7883C23.1759 11.8568 23.1877 11.9288 23.1877 12.0011C23.1877 12.0733 23.1757 12.1447 23.1536 12.2131L23.1282 12.2804C23.0863 12.3743 22.1438 14.4625 20.0168 16.3654L20.0159 16.3644C19.9495 16.4261 19.8723 16.4745 19.7874 16.506C19.7016 16.5378 19.6102 16.553 19.5188 16.549C19.4273 16.545 19.3369 16.5228 19.2542 16.4836C19.1714 16.4444 19.0974 16.3887 19.0364 16.3205C18.9753 16.2522 18.9285 16.1718 18.8987 16.0851C18.8689 15.9986 18.8564 15.9069 18.8625 15.8156C18.8687 15.7242 18.8927 15.6347 18.9338 15.5529C18.9749 15.4711 19.0322 15.3985 19.1018 15.339C20.1633 14.3848 21.0513 13.2546 21.7297 11.9992C21.2227 11.0625 20.5986 10.1948 19.8723 9.41716L19.5481 9.0822C17.5772 7.12518 15.2239 6.0742 12.5413 5.95036L12.0002 5.93767C11.3887 5.93686 10.7774 5.98657 10.1741 6.08611L10.1731 6.08513C10.0846 6.10126 9.99352 6.10106 9.90552 6.0822C9.8163 6.06303 9.73137 6.02597 9.65649 5.9738C9.58167 5.9216 9.51784 5.85457 9.46899 5.77751C9.42024 5.70049 9.38755 5.61446 9.37231 5.52458C9.35709 5.43454 9.35933 5.34202 9.38013 5.2531C9.40095 5.16413 9.43977 5.08 9.49341 5.00603C9.54696 4.93221 9.61472 4.86984 9.69263 4.82243C9.77026 4.77526 9.85673 4.74332 9.94653 4.72966L10.4563 4.65642C10.9683 4.5931 11.484 4.56178 12.0002 4.56267L12.3821 4.56853ZM9.48657 10.2609C9.10897 10.8073 8.91681 11.4617 8.94458 12.1281C8.97454 12.8449 9.25512 13.5287 9.73755 14.0597C10.2201 14.5908 10.8744 14.9361 11.5852 15.0343C12.2459 15.1256 12.9154 14.9958 13.4954 14.672L9.48657 10.2609ZM12.8342 7.64079H12.8352L13.1838 7.72282C13.9884 7.94755 14.7164 8.39508 15.2815 9.01677C15.9272 9.72715 16.3256 10.6277 16.4182 11.5832L16.4172 11.7179C16.4126 11.7627 16.4042 11.8075 16.3909 11.8508C16.3642 11.9368 16.3205 12.0167 16.2629 12.0861C16.2054 12.1555 16.1346 12.213 16.0549 12.2551C15.9751 12.2972 15.887 12.3229 15.7971 12.3312L15.7854 12.3332V12.3322H15.7336C15.5618 12.3329 15.396 12.269 15.2688 12.1535C15.1733 12.0667 15.1045 11.9556 15.0696 11.8332L15.0461 11.7082C14.9819 11.0499 14.7068 10.43 14.262 9.9406C13.8725 9.51218 13.3711 9.20311 12.8167 9.04802L12.5764 8.99138C12.3974 8.95714 12.2394 8.85308 12.137 8.70232C12.0346 8.5516 11.9965 8.36665 12.0305 8.18767C12.0647 8.00853 12.1687 7.84973 12.3196 7.74724C12.4703 7.64497 12.6553 7.60671 12.8342 7.64079Z" fill="#EE7846" stroke="#EE7846" stroke-width="0.25"/>
</svg>
