<svg width="24" height="25" viewBox="0 0 24 25" fill="none" xmlns="http://www.w3.org/2000/svg">
<path d="M9.33814 16.6321C12.4946 16.4567 15 13.8419 15 10.6416C15 7.32789 12.3137 4.6416 9 4.6416C5.68629 4.6416 3 7.32789 3 10.6416C3 11.8223 3.34094 12.9233 3.92989 13.8516L3.50586 15.1236L3.50518 15.1255C3.34278 15.6127 3.26154 15.8565 3.31938 16.0187C3.36979 16.16 3.48169 16.2715 3.62305 16.3219C3.78472 16.3795 4.02675 16.2989 4.51069 16.1375L4.51758 16.1355L5.79004 15.7114C6.7183 16.3004 7.81935 16.6414 9.00006 16.6414C9.11352 16.6414 9.22624 16.6383 9.33814 16.6321ZM9.33814 16.6321C9.33822 16.6323 9.33806 16.6318 9.33814 16.6321ZM9.33814 16.6321C10.1591 18.9675 12.3841 20.6418 15.0001 20.6418C16.1808 20.6418 17.2817 20.3004 18.2099 19.7114L19.482 20.1355L19.4845 20.136C19.9717 20.2983 20.2158 20.3797 20.378 20.3219C20.5194 20.2715 20.6299 20.16 20.6803 20.0187C20.7382 19.8562 20.6572 19.6122 20.4943 19.1237L20.0703 17.8516L20.2123 17.6162C20.7138 16.7395 20.9995 15.7239 20.9995 14.6416C20.9995 11.3279 18.3137 8.6416 15 8.6416L14.7754 8.64574L14.6621 8.65128" stroke="#737373" stroke-width="2" stroke-linecap="round" stroke-linejoin="round"/>
</svg>
