<svg width="83" height="33" viewBox="0 0 83 33" fill="none" xmlns="http://www.w3.org/2000/svg">
<g filter="url(#filter0_d_1_8130)">
<path d="M13 25.5H19M16 7.5C12.6863 7.5 10 10.1863 10 13.5C10 14.7145 10.3608 15.8447 10.9812 16.7893C11.9351 18.2418 12.4116 18.9676 12.4735 19.0761C13.0243 20.041 12.9229 19.7007 12.9922 20.8096C13 20.9342 13 21.1229 13 21.5C13 22.0523 13.4477 22.5 14 22.5L18 22.5C18.5523 22.5 19 22.0523 19 21.5C19 21.1229 19 20.9342 19.0078 20.8096C19.0771 19.7007 18.9751 20.041 19.5259 19.0761C19.5878 18.9676 20.0651 18.2418 21.019 16.7893C21.6394 15.8447 22.0002 14.7145 22.0002 13.5C22.0002 10.1863 19.3137 7.5 16 7.5Z" stroke="#737373" stroke-width="2" stroke-linecap="round" stroke-linejoin="round"/>
</g>
<path d="M51.2461 20.1396V21.5H46.249V20.1396H51.2461ZM46.7275 11.5469V21.5H45.0117V11.5469H46.7275ZM55.8189 21.6367C55.2721 21.6367 54.7776 21.5479 54.3355 21.3701C53.898 21.1878 53.5243 20.9349 53.2145 20.6113C52.9091 20.2878 52.6744 19.9072 52.5104 19.4697C52.3463 19.0322 52.2643 18.5605 52.2643 18.0547V17.7812C52.2643 17.2025 52.3486 16.6784 52.5172 16.209C52.6858 15.7396 52.9205 15.3385 53.2213 15.0059C53.5221 14.6686 53.8775 14.4111 54.2877 14.2334C54.6979 14.0557 55.1422 13.9668 55.6207 13.9668C56.1493 13.9668 56.6119 14.0557 57.0084 14.2334C57.4049 14.4111 57.733 14.6618 57.9928 14.9854C58.2571 15.3044 58.4531 15.6849 58.5807 16.127C58.7128 16.569 58.7789 17.0566 58.7789 17.5898V18.2939H53.0641V17.1113H57.152V16.9814C57.1428 16.6852 57.0836 16.4072 56.9742 16.1475C56.8694 15.8877 56.7076 15.6781 56.4889 15.5186C56.2701 15.359 55.9785 15.2793 55.6139 15.2793C55.3404 15.2793 55.0966 15.3385 54.8824 15.457C54.6728 15.571 54.4973 15.7373 54.3561 15.9561C54.2148 16.1748 54.1054 16.4391 54.0279 16.749C53.955 17.0544 53.9186 17.3984 53.9186 17.7812V18.0547C53.9186 18.3783 53.9618 18.679 54.0484 18.957C54.1396 19.2305 54.2717 19.4697 54.4449 19.6748C54.6181 19.8799 54.8277 20.0417 55.0738 20.1602C55.3199 20.2741 55.6002 20.3311 55.9146 20.3311C56.3111 20.3311 56.6643 20.2513 56.9742 20.0918C57.2841 19.9323 57.553 19.7067 57.7809 19.415L58.649 20.2559C58.4895 20.4883 58.2822 20.7116 58.027 20.9258C57.7717 21.1354 57.4596 21.3063 57.0904 21.4385C56.7258 21.5706 56.302 21.6367 55.8189 21.6367ZM64.384 20.0166V16.4893C64.384 16.2249 64.3361 15.9971 64.2404 15.8057C64.1447 15.6143 63.9989 15.4661 63.8029 15.3613C63.6115 15.2565 63.37 15.2041 63.0783 15.2041C62.8094 15.2041 62.577 15.2497 62.3811 15.3408C62.1851 15.432 62.0324 15.555 61.923 15.71C61.8137 15.8649 61.759 16.0404 61.759 16.2363H60.1184C60.1184 15.9447 60.189 15.6621 60.3303 15.3887C60.4715 15.1152 60.6766 14.8714 60.9455 14.6572C61.2144 14.443 61.5357 14.2744 61.9094 14.1514C62.2831 14.0283 62.7023 13.9668 63.1672 13.9668C63.7232 13.9668 64.2154 14.0602 64.6438 14.2471C65.0767 14.4339 65.4162 14.7165 65.6623 15.0947C65.913 15.4684 66.0383 15.9378 66.0383 16.5029V19.791C66.0383 20.1283 66.0611 20.4313 66.1066 20.7002C66.1568 20.9645 66.2274 21.1947 66.3186 21.3906V21.5H64.6301C64.5526 21.3223 64.4911 21.0967 64.4455 20.8232C64.4045 20.5452 64.384 20.2764 64.384 20.0166ZM64.6232 17.002L64.6369 18.0205H63.4543C63.149 18.0205 62.8801 18.0501 62.6477 18.1094C62.4152 18.1641 62.2215 18.2461 62.0666 18.3555C61.9117 18.4648 61.7954 18.597 61.718 18.752C61.6405 18.9069 61.6018 19.0824 61.6018 19.2783C61.6018 19.4743 61.6473 19.6543 61.7385 19.8184C61.8296 19.9779 61.9618 20.1032 62.135 20.1943C62.3127 20.2855 62.5269 20.3311 62.7775 20.3311C63.1148 20.3311 63.4087 20.2627 63.6594 20.126C63.9146 19.9847 64.1151 19.8138 64.2609 19.6133C64.4068 19.4082 64.4842 19.2145 64.4934 19.0322L65.0266 19.7637C64.9719 19.9505 64.8785 20.151 64.7463 20.3652C64.6141 20.5794 64.441 20.7845 64.2268 20.9805C64.0171 21.1719 63.7642 21.3291 63.468 21.4521C63.1763 21.5752 62.8391 21.6367 62.4563 21.6367C61.9732 21.6367 61.5425 21.541 61.1643 21.3496C60.786 21.1536 60.4898 20.8916 60.2756 20.5635C60.0614 20.2308 59.9543 19.8548 59.9543 19.4355C59.9543 19.0436 60.0272 18.6973 60.173 18.3965C60.3234 18.0911 60.5422 17.8359 60.8293 17.6309C61.121 17.4258 61.4764 17.2708 61.8957 17.166C62.315 17.0566 62.7935 17.002 63.3313 17.002H64.6232ZM72.4227 19.9688V11H74.077V21.5H72.5799L72.4227 19.9688ZM67.6102 17.8838V17.7402C67.6102 17.1797 67.6762 16.6693 67.8084 16.209C67.9406 15.7441 68.132 15.3454 68.3826 15.0127C68.6333 14.6755 68.9386 14.418 69.2986 14.2402C69.6587 14.0579 70.0643 13.9668 70.5154 13.9668C70.962 13.9668 71.354 14.0534 71.6912 14.2266C72.0285 14.3997 72.3156 14.6481 72.5525 14.9717C72.7895 15.2907 72.9786 15.6735 73.1199 16.1201C73.2612 16.5622 73.3615 17.0544 73.4207 17.5967V18.0547C73.3615 18.5833 73.2612 19.0664 73.1199 19.5039C72.9786 19.9414 72.7895 20.3197 72.5525 20.6387C72.3156 20.9577 72.0262 21.2038 71.6844 21.377C71.3471 21.5501 70.9529 21.6367 70.5018 21.6367C70.0551 21.6367 69.6518 21.5433 69.2918 21.3564C68.9363 21.1696 68.6333 20.9076 68.3826 20.5703C68.132 20.2331 67.9406 19.8366 67.8084 19.3809C67.6762 18.9206 67.6102 18.4215 67.6102 17.8838ZM69.2576 17.7402V17.8838C69.2576 18.221 69.2872 18.5355 69.3465 18.8271C69.4103 19.1188 69.5083 19.3763 69.6404 19.5996C69.7726 19.8184 69.9435 19.9915 70.1531 20.1191C70.3673 20.2422 70.6225 20.3037 70.9188 20.3037C71.2924 20.3037 71.6001 20.2217 71.8416 20.0576C72.0831 19.8936 72.2723 19.6725 72.409 19.3945C72.5503 19.112 72.646 18.7975 72.6961 18.4512V17.2139C72.6688 16.945 72.6118 16.6943 72.5252 16.4619C72.4432 16.2295 72.3315 16.0267 72.1902 15.8535C72.049 15.6758 71.8735 15.5391 71.6639 15.4434C71.4588 15.3431 71.215 15.293 70.9324 15.293C70.6316 15.293 70.3764 15.3568 70.1668 15.4844C69.9572 15.612 69.784 15.7874 69.6473 16.0107C69.5151 16.234 69.4171 16.4938 69.3533 16.79C69.2895 17.0863 69.2576 17.403 69.2576 17.7402ZM80.099 19.4971C80.099 19.333 80.058 19.1849 79.976 19.0527C79.8939 18.916 79.7367 18.793 79.5043 18.6836C79.2764 18.5742 78.9392 18.474 78.4926 18.3828C78.1007 18.2962 77.7406 18.1937 77.4125 18.0752C77.0889 17.9521 76.8109 17.804 76.5785 17.6309C76.3461 17.4577 76.1661 17.2526 76.0385 17.0156C75.9109 16.7786 75.8471 16.5052 75.8471 16.1953C75.8471 15.8945 75.9132 15.6097 76.0453 15.3408C76.1775 15.0719 76.3666 14.835 76.6127 14.6299C76.8588 14.4248 77.1573 14.263 77.5082 14.1445C77.8637 14.026 78.2602 13.9668 78.6977 13.9668C79.3174 13.9668 79.8484 14.0716 80.2904 14.2812C80.737 14.4863 81.0788 14.7666 81.3158 15.1221C81.5528 15.473 81.6713 15.8695 81.6713 16.3115H80.0238C80.0238 16.1156 79.9737 15.9333 79.8734 15.7646C79.7777 15.5915 79.6319 15.4525 79.4359 15.3477C79.24 15.2383 78.9939 15.1836 78.6977 15.1836C78.4151 15.1836 78.1804 15.2292 77.9936 15.3203C77.8113 15.4069 77.6745 15.5208 77.5834 15.6621C77.4968 15.8034 77.4535 15.9583 77.4535 16.127C77.4535 16.25 77.4763 16.3617 77.5219 16.4619C77.572 16.5576 77.654 16.6465 77.768 16.7285C77.8819 16.806 78.0368 16.8789 78.2328 16.9473C78.4333 17.0156 78.684 17.0817 78.9848 17.1455C79.5499 17.264 80.0352 17.4167 80.4408 17.6035C80.851 17.7858 81.1654 18.0228 81.3842 18.3145C81.6029 18.6016 81.7123 18.9661 81.7123 19.4082C81.7123 19.7363 81.6417 20.0371 81.5004 20.3105C81.3637 20.5794 81.1632 20.8141 80.8988 21.0146C80.6345 21.2106 80.3178 21.3633 79.9486 21.4727C79.584 21.582 79.1739 21.6367 78.7182 21.6367C78.0482 21.6367 77.4809 21.5182 77.016 21.2812C76.5512 21.0397 76.198 20.7321 75.9564 20.3584C75.7195 19.9801 75.601 19.5882 75.601 19.1826H77.1938C77.212 19.488 77.2963 19.7318 77.4467 19.9141C77.6016 20.0918 77.793 20.2217 78.0209 20.3037C78.2533 20.3812 78.4926 20.4199 78.7387 20.4199C79.0349 20.4199 79.2833 20.3812 79.4838 20.3037C79.6843 20.2217 79.837 20.1123 79.9418 19.9756C80.0466 19.8343 80.099 19.6748 80.099 19.4971Z" fill="#737373"/>
<defs>
<filter id="filter0_d_1_8130" x="-4" y="-4" width="40" height="41" filterUnits="userSpaceOnUse" color-interpolation-filters="sRGB">
<feFlood flood-opacity="0" result="BackgroundImageFix"/>
<feColorMatrix in="SourceAlpha" type="matrix" values="0 0 0 0 0 0 0 0 0 0 0 0 0 0 0 0 0 0 127 0" result="hardAlpha"/>
<feOffset/>
<feGaussianBlur stdDeviation="2"/>
<feComposite in2="hardAlpha" operator="out"/>
<feColorMatrix type="matrix" values="0 0 0 0 0 0 0 0 0 0 0 0 0 0 0 0 0 0 0.25 0"/>
<feBlend mode="normal" in2="BackgroundImageFix" result="effect1_dropShadow_1_8130"/>
<feBlend mode="normal" in="SourceGraphic" in2="effect1_dropShadow_1_8130" result="shape"/>
</filter>
</defs>
</svg>
