<svg width="24" height="25" viewBox="0 0 24 25" fill="none" xmlns="http://www.w3.org/2000/svg">
<path d="M2 20.5001H4M4 20.5001H10M4 20.5001V11.9522C4 11.4179 4 11.1506 4.06497 10.9019C4.12255 10.6816 4.21779 10.4731 4.3457 10.2846C4.49004 10.072 4.69064 9.89569 5.09277 9.54383L9.89436 5.34244C10.6398 4.69014 11.0126 4.36397 11.4324 4.23982C11.8026 4.13035 12.1972 4.13035 12.5674 4.23982C12.9875 4.36406 13.3608 4.69054 14.1074 5.34383L18.9074 9.54383C19.3095 9.89568 19.5102 10.072 19.6546 10.2846C19.7825 10.4731 19.877 10.6816 19.9346 10.9019C19.9995 11.1506 20 11.4179 20 11.9522V20.5001M10 20.5001H14M10 20.5001V16.5001C10 15.3955 10.8954 14.5001 12 14.5001C13.1046 14.5001 14 15.3955 14 16.5001V20.5001M14 20.5001H20M20 20.5001H22" stroke="#3A42A7" stroke-width="2" stroke-linecap="round" stroke-linejoin="round"/>
</svg>
