<svg width="24" height="26" viewBox="0 0 24 26" fill="none" xmlns="http://www.w3.org/2000/svg">
<path d="M8.49951 11.2858H15.5007M8.49951 14.0355H15.5007M11.4995 11.2858C12.1664 11.4521 13.5001 12.0366 13.5001 13.7852C13.5001 16.7852 9.49894 16.7852 9.49894 16.7852C9.49894 16.7852 11.4995 18.5355 14.4995 19.2863" stroke="#EE7846" stroke-width="2" stroke-linecap="round" stroke-linejoin="round"/>
<path d="M12.0001 24.1429C18.0001 24.1429 22.2858 22.0206 22.2858 17.296C22.2858 12.1617 19.7144 8.73832 14.5715 6.17032L16.5944 3.56803C16.6974 3.39734 16.7533 3.20238 16.7565 3.00303C16.7596 2.80368 16.7099 2.60705 16.6123 2.43318C16.5148 2.2593 16.3729 2.1144 16.2011 2.01321C16.0293 1.91203 15.8337 1.85819 15.6344 1.85718H8.36578C8.16683 1.85925 7.97194 1.91374 7.80077 2.01517C7.6296 2.1166 7.4882 2.26137 7.39084 2.43488C7.29348 2.6084 7.24359 2.80452 7.24622 3.00346C7.24884 3.20241 7.30388 3.39715 7.40578 3.56803L9.42864 6.18746C4.28578 8.77261 1.71436 12.196 1.71436 17.3303C1.71436 22.0206 6.00007 24.1429 12.0001 24.1429Z" stroke="#EE7846" stroke-width="2" stroke-linecap="round" stroke-linejoin="round"/>
</svg>
