<svg width="22" height="19" viewBox="0 0 22 19" fill="none" xmlns="http://www.w3.org/2000/svg">
<path d="M15.8031 17.6416L17.793 17.6416C18.2255 17.6416 18.4419 17.6416 18.6236 17.5674C18.784 17.5019 18.9251 17.3954 19.0322 17.2591C19.1535 17.1047 19.2132 16.8971 19.332 16.4811L20.4177 12.6812C20.6156 11.9888 20.714 11.6425 20.6363 11.3687C20.5682 11.1287 20.4131 10.9229 20.2011 10.7916C19.9731 10.6503 19.64 10.6421 19.0002 10.6416M15.8031 17.6416H4.19691M15.8031 17.6416C16.921 17.6416 17.48 17.6416 17.9074 17.4238C18.2837 17.2321 18.5905 16.9257 18.7822 16.5494C19.0002 16.1216 19.0002 15.5615 19.0002 14.4414V10.6416M4.19691 17.6416H3.12109C2.40152 17.6416 2.04075 17.6416 1.79883 17.4917C1.58683 17.3603 1.43144 17.1545 1.36338 16.9145C1.34904 16.864 1.34073 16.811 1.33796 16.7538M4.19691 17.6416C3.07899 17.6416 2.5192 17.6416 2.0918 17.4238C1.78624 17.2681 1.52721 17.0368 1.33796 16.7538M19.0002 10.6416C18.9608 10.6416 18.9203 10.6416 18.8786 10.6416H3.00028L1.58301 15.602L1.58096 15.609C1.42083 16.1694 1.32578 16.5021 1.33796 16.7538M19.0002 10.6416L19.0002 6.84138C19.0002 5.72127 19.0002 5.16122 18.7822 4.7334C18.5905 4.35707 18.2839 4.05134 17.9076 3.85959C17.4798 3.6416 16.9201 3.6416 15.8 3.6416H10M1.33796 16.7538C1.29413 16.6883 1.25404 16.62 1.21799 16.5492C1 16.1214 1 15.5617 1 14.4416V3.6416M1 3.6416H10M1 3.6416C1 2.53703 1.89543 1.6416 3 1.6416H6.67452C7.1637 1.6416 7.40886 1.6416 7.63904 1.69686C7.84311 1.74586 8.03785 1.82687 8.2168 1.93652C8.41857 2.06017 8.59181 2.23342 8.9375 2.5791L10 3.6416" stroke="#737373" stroke-width="2" stroke-linecap="round" stroke-linejoin="round"/>
</svg>
