<svg width="32" height="32" viewBox="0 0 32 32" fill="none" xmlns="http://www.w3.org/2000/svg">
<path d="M16 2.6665C8.66669 2.6665 2.66669 8.6665 2.66669 15.9998C2.66669 18.3998 3.3344 20.6665 4.40106 22.6665L2.66669 29.3332L9.59898 27.7342C11.599 28.8009 13.7334 29.3332 16 29.3332C23.3334 29.3332 29.3334 23.3332 29.3334 15.9998C29.3334 12.3998 27.9995 9.06702 25.4662 6.53369C22.9328 4.00036 19.6 2.6665 16 2.6665ZM16 5.33317C18.8 5.33317 21.4656 6.40088 23.599 8.40088C25.599 10.5342 26.6667 13.1998 26.6667 15.9998C26.6667 21.8665 21.8667 26.6665 16 26.6665C14.2667 26.6665 12.399 26.2665 10.9323 25.3332L10 24.7993L9.06773 25.0675L6.40106 25.7342L7.06773 23.3332L7.33335 22.2655L6.7995 21.3332C5.86617 19.7332 5.33335 17.8665 5.33335 15.9998C5.33335 10.1332 10.1334 5.33317 16 5.33317ZM11.3334 9.86702C11.0667 9.86702 10.6677 9.86546 10.4011 10.2655C10.0011 10.6655 9.20054 11.4675 9.20054 13.0675C9.20054 14.6675 10.4005 16.267 10.5339 16.5337C10.8005 16.8004 12.9323 20.2655 16.2656 21.5988C19.0656 22.6655 19.599 22.4009 20.2656 22.4009C20.9323 22.2675 22.2672 21.5993 22.5339 20.7993C22.8005 19.9993 22.799 19.3321 22.9323 18.9321C22.799 18.7988 22.6656 18.667 22.2656 18.5337C21.999 18.4004 20.4 17.5993 20 17.466C19.6 17.3326 19.4672 17.1988 19.2005 17.5988C18.9339 17.9988 18.2662 18.6655 18.1328 18.9321C17.9995 19.1988 17.8662 19.2009 17.4662 19.0675C17.1995 18.9342 16.1328 18.666 14.7995 17.466C13.7328 16.666 13.0656 15.6004 12.9323 15.2004C12.6656 14.9337 12.9344 14.667 13.0677 14.5337L13.599 13.9998C13.7323 13.8665 13.7339 13.5993 13.8672 13.466C14.0005 13.3326 14.0005 13.1988 13.8672 12.9321C13.7339 12.6655 13.0662 11.0675 12.7995 10.4009C12.5328 9.86755 12.2667 9.86702 12 9.86702H11.3334Z" fill="#8E89D0"/>
</svg>
