<?xml version="1.0" encoding="utf-8"?>
<!-- Generator: Adobe Illustrator 29.7.1, SVG Export Plug-In . SVG Version: 9.03 Build 0)  -->
<svg version="1.0" id="Layer_1" xmlns="http://www.w3.org/2000/svg" xmlns:xlink="http://www.w3.org/1999/xlink" x="0px" y="0px"
	 viewBox="0 0 34 34" style="enable-background:new 0 0 34 34;" xml:space="preserve">
<style type="text/css">
	.st0{fill:#8E89D0;}
	.st1{fill:#535AB4;stroke:#535AB4;stroke-miterlimit:10;}
	.st2{fill:none;stroke:#535AB4;stroke-miterlimit:10;}
</style>
<g>
	<path class="st0" d="M21.8,12.66c-0.38-0.36-0.89-0.54-1.42-0.54h-1.72c-0.7,0-1.25,0.29-1.65,0.86c0,0,0,0,0,0.01
		c-0.4-0.58-0.96-0.87-1.66-0.87h-1.77c-0.59,0-1.08,0.22-1.49,0.65c-0.35,0.38-0.54,0.89-0.54,1.41v6.63h0h0
		c0.02,0.59,0.5,1.05,1.09,1.05c1.7,0,3.4,0,5.1,0c0-0.56-0.23-1.12-0.64-1.51c-0.83-0.81-2.15-0.59-3.22-0.59
		c-0.08,0-0.16,0-0.24,0v-5.09c0.08-0.61,0.46-0.92,1.15-0.92c0.69,0,1.07,0.3,1.14,0.92v3.93c0.39,0,0.75-0.11,1.06-0.29
		c0.6-0.36,1-1.02,1-1.77v-1.87c0.08-0.61,0.48-0.92,1.17-0.92c0.7,0,1.09,0.3,1.17,0.92v3.93c1.16,0,2.1-0.94,2.1-2.1v-2.37
		C22.45,13.56,22.23,13.07,21.8,12.66z"/>
	<path class="st1" d="M29.09,16.77c0.06,3.16-1.09,6.05-3.02,8.23c-0.27,0.31-0.74,0.33-1.03,0.04h0l-0.16-0.16
		c-0.25-0.25-0.27-0.66-0.03-0.93c1.71-1.93,2.72-4.5,2.62-7.3c-0.19-5.48-4.66-9.94-10.14-10.11c-3.02-0.09-5.76,1.1-7.73,3.06
		c-1.89,1.89-3.07,4.51-3.07,7.4c0,5.57,4.34,10.12,9.83,10.45c0.36,0.02,0.64,0.33,0.64,0.69v0.22c0,0.41-0.35,0.73-0.76,0.7
		C9.92,28.69,4.91,23.43,4.91,17.01c0-3.34,1.35-6.36,3.54-8.55c2.23-2.24,5.34-3.6,8.77-3.54C23.68,5.04,28.96,10.31,29.09,16.77z"
		/>
</g>
</svg>
